<svg width="193" height="241" viewBox="0 0 193 241" fill="none" xmlns="http://www.w3.org/2000/svg">
<mask id="mask0_1_59" style="mask-type:luminance" maskUnits="userSpaceOnUse" x="0" y="0" width="193" height="241">
<path d="M0 0.666504H192.688V240.667H0V0.666504Z" fill="white"/>
</mask>
<g mask="url(#mask0_1_59)">
<path d="M193.224 171.187C193.224 209.453 162.198 240.505 123.932 240.505C85.6667 240.505 54.6406 209.453 54.6406 171.187C54.6406 153 61.6563 136.427 73.151 124.036L18.3125 33.4736L5.72396 41.458L0.546875 32.7757L50.7083 1.59863C52.0781 3.81217 54.1198 6.94759 55.4844 9.1403L44.6146 16.1038L99.849 106.172C107.365 103.364 115.448 101.869 123.958 101.869C162.224 101.896 193.224 132.922 193.224 171.187Z" fill="#E5EDF5"/>
</g>
</svg>
