<svg width="95" height="90" viewBox="0 0 95 90" fill="none" xmlns="http://www.w3.org/2000/svg">
<mask id="mask0_1_249" style="mask-type:luminance" maskUnits="userSpaceOnUse" x="0" y="0" width="95" height="91">
<path d="M0.921875 0.666992H95V90.0003H0.921875V0.666992Z" fill="white"/>
</mask>
<g mask="url(#mask0_1_249)">
<path d="M91.7622 10.2008C92.9028 12.3363 93.606 14.4665 93.8716 16.5863C94.0174 17.7633 94.0955 19.2686 94.0955 21.1019V69.9769C94.0955 73.7217 93.4497 76.9665 92.1633 79.7061C91.2414 81.6748 90.0122 83.3623 88.481 84.7686C86.7987 86.3206 84.8612 87.4404 82.6685 88.1331C80.4185 88.8415 77.8508 89.1956 74.9601 89.1956C72.1476 89.1956 69.7101 88.8936 67.6476 88.2894C65.2466 87.5811 63.2049 86.5758 61.5226 85.2686C59.3039 83.5394 57.6633 81.2946 56.5955 78.529L56.4289 78.0915L56.2987 77.6436C55.6893 75.5811 55.3872 72.9665 55.3872 69.7998V40.2998H66.9445L75.9445 47.555C74.6216 49.1956 72.6216 51.8988 69.9393 55.6748C67.0435 59.7425 65.1737 62.3311 64.3299 63.4352L62.7362 65.5133C61.5226 67.0915 59.7049 68.5915 57.2726 70.029C54.3195 71.7686 51.1268 72.6436 47.7049 72.6436C44.3507 72.6436 41.2414 71.8311 38.3872 70.2113C36.0122 68.8623 34.1268 67.3154 32.731 65.5758L32.5695 65.3675L31.7049 64.18L41.0539 57.3831L32.0278 64.6071C30.7362 62.9925 28.3091 59.7165 24.7362 54.7842C21.4237 50.2113 19.7049 47.8519 19.5799 47.7008L28.4601 40.2998H40.0226V69.9769C40.0226 71.8258 39.9445 73.3415 39.7935 74.5081C39.507 76.6904 38.7518 78.8571 37.5278 80.9977C36.5539 82.7477 35.2153 84.2633 33.5018 85.5498C32.1424 86.5706 30.606 87.3727 28.8976 87.9665C26.5278 88.7894 23.7674 89.1956 20.6216 89.1956C17.507 89.1956 14.7622 88.779 12.3924 87.9352C10.6997 87.3363 9.17367 86.5186 7.82471 85.4873C6.15804 84.2113 4.82471 82.6748 3.82471 80.8727C2.63721 78.7946 1.90283 76.6383 1.62158 74.404C1.47575 73.2269 1.40283 71.6904 1.40283 69.7998V20.9248C1.40283 19.0758 1.48096 17.5602 1.632 16.3936C1.90283 14.3258 2.60075 12.2321 3.73096 10.1123L3.8195 9.94043L3.91846 9.77376C7.02262 4.39356 12.6528 1.70605 20.7987 1.70605C23.6372 1.70605 26.2205 2.09147 28.5487 2.86751C31.7205 3.92481 34.1737 5.47168 35.9185 7.50293L27.1424 15.0238L35.3143 6.85189L36.3924 7.93001L56.856 34.7894L47.658 41.7946L38.4393 34.8258C48.4705 21.5498 55.1893 12.7633 58.5903 8.46647L67.6528 15.6383L57.8664 9.4821C61.132 4.2946 66.757 1.70605 74.7414 1.70605C77.908 1.70605 80.6789 2.11751 83.0435 2.94043C84.7883 3.54981 86.3455 4.37793 87.7153 5.43001C89.4601 6.77376 90.8299 8.40397 91.8247 10.3206L91.7622 10.2008ZM71.3039 20.9613C71.8872 22.0863 72.6633 23.0238 73.6372 23.7686C74.2362 24.2269 74.8351 24.5602 75.4393 24.7738C75.5695 24.8206 75.6841 24.8519 75.7778 24.8727C75.7935 24.8779 75.8039 24.8779 75.8091 24.8779C75.7935 24.8779 75.7778 24.8727 75.7518 24.8727C75.5018 24.8363 75.1633 24.8206 74.7414 24.8206C74.3091 24.8206 73.9601 24.8415 73.6893 24.8727C73.6424 24.8779 73.6164 24.8831 73.6008 24.8883C73.6685 24.8727 73.7518 24.8467 73.8455 24.8154C74.3299 24.654 74.8247 24.3936 75.3299 24.0394C76.1633 23.4456 76.8664 22.7008 77.4341 21.7998L77.1008 22.3258L76.7153 22.8154C73.4237 26.9769 66.8091 35.6227 56.882 48.7633L47.6997 60.9196L18.4758 22.555L27.6685 15.555L19.4966 23.7269L18.6528 22.8831L18.3664 22.5446C19.1424 23.4508 19.9862 24.1488 20.908 24.6331C21.0487 24.7113 21.1789 24.7686 21.2882 24.8154C21.2987 24.8206 21.3091 24.8258 21.3091 24.8258C21.2935 24.8206 21.2674 24.8102 21.2414 24.7998C21.3091 24.8258 21.3716 24.8415 21.4237 24.8571L21.4132 24.8519C21.2622 24.8311 21.0539 24.8206 20.7987 24.8206C20.3664 24.8206 20.0122 24.8363 19.7518 24.8727C19.7205 24.8779 19.6945 24.8779 19.6737 24.8831H19.6789C19.757 24.8623 19.856 24.8363 19.9653 24.7998C20.5122 24.6175 21.0643 24.3258 21.6216 23.9196C22.5643 23.2425 23.3403 22.3779 23.9445 21.3311L13.9289 15.555L24.132 20.9925C24.3195 20.6331 24.4601 20.0967 24.5539 19.3831C24.533 19.5602 24.5226 20.0758 24.5226 20.9248V69.7998C24.5226 70.7321 24.533 71.3102 24.5643 71.5394C24.4601 70.7113 24.283 70.0811 24.033 69.6488C23.4758 68.6383 22.7518 67.7946 21.8612 67.1175C21.2935 66.68 20.7153 66.3571 20.132 66.154C19.9393 66.0863 19.8143 66.0446 19.7518 66.0394C19.9601 66.0654 20.2518 66.0811 20.6216 66.0811C21.0382 66.0811 21.3716 66.0654 21.6164 66.029C21.6424 66.029 21.6633 66.0238 21.6789 66.0238C21.6737 66.0238 21.6632 66.0238 21.6528 66.029C21.5643 66.0498 21.4549 66.0811 21.3351 66.1227C20.7674 66.3154 20.1997 66.6279 19.632 67.055C18.7153 67.7425 17.9914 68.5654 17.4549 69.5238C17.1737 70.0238 16.9758 70.6904 16.8664 71.5186C16.8924 71.3415 16.9028 70.8258 16.9028 69.9769V8.37272L37.3403 32.8988C37.8039 33.4508 39.8455 36.2269 43.4601 41.2269C46.8143 45.8623 49.0226 48.8415 50.0799 50.1644L50.2466 50.3727L51.106 51.555L41.757 58.3519L50.783 51.1331C50.4445 50.7061 50.106 50.3623 49.7674 50.1019C49.7205 50.0654 49.6841 50.0394 49.658 50.0238C49.6893 50.0446 49.7362 50.0706 49.7987 50.1071C49.1164 49.7165 48.4185 49.5238 47.7049 49.5238C46.9237 49.5238 46.1997 49.7217 45.533 50.1123C45.7674 49.9717 45.908 49.8883 45.9549 49.8519C45.4341 50.2321 44.9133 50.7686 44.382 51.4561L45.9653 49.3936C46.6476 48.5029 48.356 46.1279 51.0955 42.2738C54.0487 38.1227 56.3351 35.0446 57.9497 33.0446L78.507 7.5498V69.7998C78.507 70.4613 78.5226 70.9873 78.5643 71.3831C78.5695 71.4665 78.5747 71.5238 78.5799 71.5446C78.5591 71.43 78.5278 71.2894 78.4758 71.1175L67.3872 74.3779L78.1737 70.2321C77.6997 68.9925 76.882 67.9248 75.7153 67.0186C75.283 66.68 74.856 66.4144 74.4341 66.2165C74.2987 66.1592 74.2153 66.1227 74.1685 66.1071C74.0487 66.0706 73.9445 66.0446 73.856 66.029H73.8455C73.8612 66.029 73.8872 66.0342 73.9185 66.0394C74.1789 66.0654 74.5278 66.0811 74.9601 66.0811C75.3299 66.0811 75.632 66.0654 75.8612 66.0394C75.8872 66.0342 75.908 66.029 75.9289 66.029C75.8664 66.0394 75.7935 66.0602 75.7049 66.0863C74.6268 66.43 73.6633 66.9873 72.8195 67.7686C72.1268 68.404 71.5955 69.1123 71.231 69.8883C71.0695 70.2321 70.9705 70.5081 70.9341 70.7269C70.9601 70.5758 70.9758 70.3258 70.9758 69.9769V21.1019C70.9758 20.2321 70.9601 19.68 70.9341 19.4508C71.0226 20.1592 71.1633 20.7061 71.3664 21.0811L71.3039 20.9613Z" fill="white"/>
</g>
</svg>
