<svg width="73" height="91" viewBox="0 0 73 91" fill="none" xmlns="http://www.w3.org/2000/svg">
<path d="M47.2681 36.9819C56.5077 45.8621 63.1222 52.6069 67.1118 57.2215C70.9295 61.4976 72.8358 65.8517 72.8358 70.284C72.8358 75.3101 70.3254 79.9924 65.3045 84.3205C63.466 85.909 61.6743 87.159 59.9399 88.0757C57.2889 89.4715 54.6379 90.1642 51.9868 90.1642C46.9452 90.1642 42.216 87.5861 37.7941 82.4299L18.5024 60.4246L27.1952 52.8049H38.7577V69.9767C38.7577 71.909 38.6743 73.4559 38.5181 74.6226C38.242 76.633 37.5441 78.6903 36.4243 80.7892C35.4712 82.633 34.1118 84.2319 32.3566 85.5757C30.9816 86.6226 29.4191 87.4507 27.6743 88.0549C25.3045 88.8778 22.5337 89.284 19.3566 89.284C15.6066 89.284 12.3566 88.6486 9.61182 87.3778C7.63786 86.4611 5.93994 85.2424 4.51807 83.7163C2.95036 82.0236 1.81494 80.0757 1.11182 77.8621L12.1379 74.3778L1.31494 78.4403C0.471191 76.1903 0.0493164 73.3413 0.0493164 69.8882V20.9246C0.0493164 19.0757 0.127442 17.5601 0.278483 16.3934C0.549316 14.3257 1.24723 12.2319 2.37744 10.1121C3.33578 8.26839 4.68994 6.66943 6.45036 5.32568C7.82536 4.27881 9.38265 3.45068 11.1274 2.84652C13.4972 2.0236 16.2733 1.61735 19.4452 1.61735C23.1431 1.61735 26.3462 2.22152 29.0597 3.42985C31.0077 4.29964 32.6899 5.45589 34.117 6.90902C35.7212 8.53923 36.9035 10.4403 37.6639 12.6017L37.7629 12.883L37.8462 13.1694C38.4504 15.2319 38.7577 17.8465 38.7577 21.0132V37.8309H27.1952L18.5545 30.1538C26.4972 21.2215 32.9087 13.909 37.7941 8.20589C42.1483 3.10693 46.8618 0.560059 51.9399 0.560059C56.3306 0.560059 60.7889 2.50798 65.3045 6.40381C70.3254 10.7319 72.8358 15.4142 72.8358 20.4403C72.8358 24.7892 71.0285 29.0705 67.4139 33.2892C63.7472 37.5236 58.2056 43.1955 50.7837 50.3153L47.2212 53.7007L39.2629 45.3205L47.2681 36.9819ZM22.5285 45.2736L34.7837 33.6278C41.6847 27.008 46.7108 21.8778 49.8566 18.2476C50.0337 18.0392 50.1743 17.8621 50.2733 17.7163C50.2941 17.6851 50.3097 17.6642 50.3202 17.6538C50.3045 17.6799 50.2837 17.7163 50.2629 17.758C49.8983 18.4871 49.716 19.383 49.716 20.4403C49.716 21.4142 49.8722 22.3257 50.1847 23.1851C50.3514 23.659 50.5545 24.0705 50.7785 24.409C50.8202 24.4715 50.8566 24.5236 50.8879 24.5601C50.8827 24.5496 50.8618 24.5288 50.8306 24.4976C50.6795 24.3361 50.4712 24.1382 50.2056 23.909C49.7056 23.4767 49.367 23.2163 49.1847 23.1226C49.3774 23.2215 49.6222 23.3153 49.9191 23.4038C50.5441 23.5861 51.2212 23.6746 51.9399 23.6746C52.9139 23.6746 53.8306 23.5236 54.6899 23.2111C55.1639 23.0392 55.5649 22.8413 55.9035 22.6121C55.966 22.5705 56.0129 22.5392 56.0493 22.508C56.0337 22.5184 56.0077 22.5444 55.9764 22.5757C55.8045 22.7371 55.5962 22.9611 55.3462 23.2528C50.3722 29.0549 43.867 36.4767 35.8358 45.5132L15.6379 68.2371V21.0132C15.6379 20.3569 15.617 19.8257 15.5806 19.4351C15.5702 19.3465 15.5649 19.2892 15.5597 19.2684C15.5806 19.383 15.617 19.5236 15.6639 19.6955L26.7577 16.4351L15.8514 20.2632C16.2264 21.3413 16.8202 22.2892 17.6222 23.1069C18.2472 23.7424 18.9243 24.2215 19.6483 24.5444C19.9399 24.6799 20.1691 24.758 20.3254 24.784C20.1327 24.7476 19.841 24.7319 19.4452 24.7319C19.0077 24.7319 18.6639 24.7528 18.4035 24.784C18.3774 24.7892 18.3566 24.7892 18.341 24.7944C18.341 24.7944 18.3514 24.7944 18.3618 24.7892C18.4556 24.7684 18.5649 24.7371 18.6899 24.6903C19.2941 24.4871 19.8879 24.1538 20.4868 23.6955C21.466 22.9455 22.2316 22.0444 22.7785 20.9924C22.966 20.633 23.1066 20.0965 23.2004 19.383C23.1795 19.5601 23.1691 20.0757 23.1691 20.9246V69.8882C23.1691 70.4663 23.1847 70.9038 23.2212 71.2007C23.2004 71.0236 23.1118 70.7267 22.9608 70.3205L23.0649 70.6069L23.1587 70.8986C22.8149 69.7996 22.242 68.8257 21.4504 67.9715C20.8097 67.284 20.1014 66.758 19.3306 66.4038C19.0024 66.2528 18.742 66.159 18.5441 66.1226C18.716 66.1538 18.9868 66.1694 19.3566 66.1694C19.7941 66.1694 20.1431 66.1486 20.3983 66.1174C20.4243 66.1121 20.4504 66.1121 20.466 66.1069C20.4608 66.1069 20.4556 66.1069 20.4399 66.1121C20.3462 66.133 20.2368 66.1642 20.1118 66.2111C19.5129 66.4142 18.9139 66.7476 18.3149 67.2059C17.3358 67.9559 16.5754 68.8569 16.0285 69.909C16.0077 69.9455 15.9764 70.0236 15.9295 70.1486C15.7837 70.5496 15.6795 70.9976 15.6118 71.4976C15.6274 71.3674 15.6379 70.8621 15.6379 69.9767V22.0809L55.3462 67.3882C55.6118 67.6955 55.841 67.9403 56.0337 68.1226L56.0285 68.1382C55.7056 67.9194 55.3149 67.7215 54.8462 67.5496C53.9556 67.2163 53.0024 67.0496 51.9868 67.0496C51.242 67.0496 50.5493 67.1434 49.9087 67.3361C49.6066 67.4246 49.3566 67.5184 49.1639 67.6226C49.3514 67.5236 49.6952 67.2528 50.2056 66.8153C50.4712 66.5861 50.6795 66.3882 50.8306 66.2267C50.8618 66.1955 50.8827 66.1746 50.8879 66.1642C50.8566 66.2007 50.8202 66.2528 50.7785 66.3153C50.5545 66.659 50.3514 67.0653 50.1847 67.5392C49.8722 68.3986 49.716 69.3153 49.716 70.284C49.716 71.4455 49.9243 72.4142 50.3306 73.1851C50.3462 73.2163 50.3566 73.2371 50.367 73.2528C50.3462 73.2215 50.3202 73.1799 50.2837 73.133C50.1483 72.9455 49.9295 72.6851 49.6274 72.3413C46.1014 68.2684 39.9764 62.0392 31.2524 53.6538L22.5285 45.2736Z" fill="white"/>
</svg>
