<svg width="76" height="89" viewBox="0 0 76 89" fill="none" xmlns="http://www.w3.org/2000/svg">
<path d="M56.7184 50.1069C60.9684 50.1069 64.4632 50.8517 67.2132 52.3465C68.9424 53.284 70.4424 54.4819 71.7028 55.9299C73.0101 57.4194 73.9997 59.1121 74.682 60.9976C75.5205 63.3257 75.9424 65.9819 75.9424 68.9767C75.9424 71.7319 75.6403 74.1382 75.0309 76.2007C74.3278 78.6017 73.3174 80.6434 72.0101 82.3257C70.0518 84.8413 67.4528 86.5601 64.2132 87.4871L61.0361 76.3726L65.0934 87.1955C62.8486 88.0392 59.9945 88.4611 56.5466 88.4611H19.9111C16.5101 88.4611 13.307 87.6017 10.3018 85.883C7.15072 84.0913 4.72363 81.6746 3.03092 78.633C1.41113 75.7215 0.598633 72.4767 0.598633 68.8882C0.598633 64.7944 1.72363 61.2476 3.96842 58.2528L31.1455 20.6382L40.5153 27.409V38.9715H20.2601C18.3538 38.9715 16.8122 38.8934 15.6403 38.7424C13.8799 38.508 12.0257 37.9715 10.083 37.1174L9.88509 37.034L9.68717 36.9403C7.78613 36.0184 6.14551 34.7424 4.7653 33.1121C3.61426 31.7476 2.69759 30.1851 2.0153 28.4299C1.07259 25.9871 0.598633 23.1538 0.598633 19.9246C0.598633 16.7476 1.01009 13.9767 1.83301 11.6069C2.43717 9.86214 3.26009 8.30485 4.31217 6.92985C5.65592 5.16943 7.29134 3.79443 9.21842 2.79443C11.2549 1.70589 13.307 1.0236 15.3747 0.757975C16.5465 0.601725 18.0882 0.528809 19.9997 0.528809H55.4007C58.7966 0.528809 61.9997 1.38818 65.0101 3.10693C68.057 4.84652 70.4424 7.2111 72.1559 10.2007C73.8591 13.159 74.708 16.4559 74.708 20.1017C74.708 24.2528 73.5882 27.8309 71.3382 30.8205L44.1611 68.4403L34.7913 61.6694V50.1069H56.7184ZM56.7184 73.2267H12.1768L52.8434 16.9507C52.3278 17.6382 51.9632 18.3674 51.7497 19.1278C51.6455 19.5132 51.5882 19.8361 51.5882 20.1017C51.5882 20.5705 51.7653 21.1121 52.1143 21.7215C52.4841 22.3621 52.958 22.8465 53.5413 23.1799C54.083 23.4924 54.7028 23.6434 55.4007 23.6434H19.9997C19.0882 23.6434 18.5465 23.659 18.3643 23.6799C19.083 23.5861 19.5778 23.4663 19.859 23.3153C20.9893 22.7267 21.932 21.9455 22.682 20.9663C23.1403 20.3674 23.4684 19.7684 23.6768 19.1694C23.7184 19.0444 23.7549 18.9351 23.7757 18.8413C23.7757 18.8257 23.7809 18.8205 23.7809 18.8205C23.7757 18.8361 23.7705 18.8569 23.7705 18.883C23.734 19.1434 23.7184 19.4871 23.7184 19.9246C23.7184 20.258 23.7288 20.5028 23.7549 20.6694C23.7341 20.5392 23.6768 20.3465 23.5778 20.0913C23.3278 19.4351 22.9424 18.8049 22.4268 18.1955C21.6872 17.3205 20.7913 16.6278 19.7393 16.1174L14.7132 26.5288L19.3486 15.9403C19.4007 15.9611 19.4476 15.9819 19.484 15.9976C19.4788 15.9924 19.4632 15.9871 19.4372 15.9819C19.2132 15.9142 18.9424 15.8569 18.6299 15.8153C18.807 15.8413 19.3538 15.8517 20.2601 15.8517H63.1299L22.4632 72.1278C22.9632 71.4559 23.3226 70.7476 23.5361 69.9924C23.6611 69.5757 23.7184 69.2059 23.7184 68.8882C23.7184 68.4715 23.557 67.9715 23.2288 67.383C22.8226 66.6538 22.3382 66.133 21.7705 65.8101C21.2236 65.4976 20.6038 65.3413 19.9111 65.3413H56.5466C57.1195 65.3413 57.557 65.3257 57.8591 65.2892C57.6768 65.3101 57.3851 65.3986 56.9788 65.5496L57.4111 65.3882L57.8591 65.258C57.2445 65.4351 56.6299 65.7111 56.0309 66.0861C55.1611 66.6226 54.4059 67.3049 53.7601 68.133C53.4216 68.5653 53.1559 68.9976 52.9632 69.4194C52.9007 69.5496 52.8643 69.633 52.8538 69.6799C52.8174 69.7944 52.7966 69.8934 52.7809 69.9767C52.7757 69.9819 52.7757 69.9871 52.7757 69.9871C52.7809 69.9715 52.7809 69.9507 52.7861 69.9246C52.8122 69.6903 52.8226 69.3726 52.8226 68.9767C52.8226 68.6955 52.8122 68.4871 52.7966 68.3465C52.8122 68.4611 52.8591 68.633 52.9372 68.8517C53.2393 69.6851 53.6872 70.4403 54.2861 71.1278C54.8434 71.7684 55.4788 72.2788 56.182 72.6642C56.7966 72.9976 57.3278 73.2007 57.7653 73.2736C57.5726 73.2424 57.2236 73.2267 56.7184 73.2267Z" fill="white"/>
</svg>
