<svg width="80" height="89" viewBox="0 0 80 89" fill="none" xmlns="http://www.w3.org/2000/svg">
<path d="M43.2171 9.34668C44.2119 7.51855 45.4932 5.95085 47.0661 4.65397C48.639 3.3571 50.4202 2.39355 52.4046 1.76855C54.6546 1.06022 57.2067 0.706055 60.0713 0.706055C62.8213 0.706055 65.2327 0.997722 67.2952 1.58626C69.8682 2.32064 72.0192 3.40397 73.7588 4.83626C76.1077 6.77376 77.7328 9.30501 78.6234 12.4352L67.5088 15.6071L78.3317 11.5498C79.1755 13.7998 79.5973 16.6488 79.5973 20.1019V68.9769C79.5973 70.9092 79.5192 72.4561 79.3577 73.6227C79.0869 75.6331 78.389 77.6904 77.2692 79.7894C76.3109 81.6331 74.9567 83.2321 73.1963 84.5758C71.8213 85.6227 70.264 86.4508 68.5192 87.055C66.1494 87.8779 63.3786 88.2842 60.2015 88.2842C56.4255 88.2842 53.4098 87.8363 51.1546 86.93C48.3109 85.7946 45.9567 84.0081 44.0817 81.5706C30.8473 63.93 22.1598 52.4248 18.0244 47.0654L27.1755 40.0029H38.738V68.9769C38.738 70.9092 38.6546 72.4561 38.4984 73.6227C38.2223 75.6331 37.5244 77.6904 36.4098 79.7894C35.4515 81.6331 34.0921 83.2321 32.3369 84.5758C30.9619 85.6227 29.3994 86.4508 27.6546 87.055C25.2848 87.8779 22.514 88.2842 19.3369 88.2842C16.1911 88.2842 13.4307 87.8675 11.0661 87.0238C9.33692 86.4092 7.79004 85.5706 6.42546 84.5081C4.71192 83.1748 3.36816 81.5654 2.38379 79.6696C1.28483 77.6123 0.602541 75.5238 0.336915 73.404C0.191082 72.2269 0.118164 70.7217 0.118164 68.8883V19.7477C0.118164 15.5602 0.862956 12.0915 2.35254 9.34668C3.34733 7.51855 4.63379 5.95085 6.20671 4.65397C7.77962 3.3571 9.55566 2.39355 11.5452 1.76855C13.79 1.06022 16.389 0.706055 19.3369 0.706055C22.2848 0.706055 24.8317 1.0446 26.988 1.72168C29.8161 2.6071 32.1077 3.93001 33.8525 5.6748L25.6807 13.8467L32.613 4.60189C33.363 5.15918 34.1598 5.92481 35.0192 6.89355C35.4463 7.37272 35.9775 7.99772 36.6182 8.77376L36.8265 9.02897L37.0192 9.28939C49.3525 26.0706 57.5765 37.1227 61.6911 42.4508L52.54 49.5133H40.9827V19.7477C40.9827 15.5602 41.7275 12.0915 43.2171 9.34668ZM63.5348 20.3779C63.863 19.7686 64.0661 19.2477 64.1442 18.805C64.113 18.9717 64.0973 19.2894 64.0973 19.7477V83.4144L43.389 56.5758C39.165 51.1019 30.8317 39.9092 18.3942 22.9821L27.7067 16.1383L18.7952 23.4977C18.3213 22.9248 17.9567 22.4977 17.7067 22.2113C17.665 22.1696 17.6338 22.1331 17.6077 22.1071C17.6077 22.1071 17.6182 22.1175 17.6338 22.1331C17.9463 22.4508 18.3161 22.7738 18.7432 23.0967L18.0869 22.6019L17.5036 22.0238C18.1598 22.68 18.8525 23.1904 19.5765 23.5602C19.7952 23.6696 19.9515 23.7425 20.0557 23.7738C20.1911 23.8154 20.3109 23.8519 20.415 23.8675C20.4307 23.8727 20.4359 23.8727 20.4411 23.8727C20.4255 23.8727 20.4046 23.8675 20.3786 23.8675C20.1182 23.8363 19.7744 23.8206 19.3369 23.8206C18.9307 23.8206 18.5973 23.8363 18.3421 23.8675C18.3005 23.8727 18.2744 23.8779 18.264 23.8779C18.3265 23.8675 18.4098 23.8415 18.5036 23.8154C19.3734 23.5394 20.1755 23.0967 20.915 22.4925C21.6494 21.8831 22.238 21.18 22.6702 20.3779C23.0036 19.7686 23.2067 19.2477 23.2796 18.805C23.2484 18.9717 23.238 19.2894 23.238 19.7477V68.8883C23.238 69.7581 23.2484 70.3102 23.2796 70.5394C23.1911 69.8311 23.0661 69.3258 22.9098 69.029C22.3369 67.93 21.5765 67.0081 20.6286 66.2686C20.0296 65.7998 19.4202 65.4613 18.8057 65.2425C18.665 65.1904 18.54 65.154 18.4307 65.1279L18.4202 65.1227C18.639 65.154 18.9463 65.1696 19.3369 65.1696C19.7744 65.1696 20.1234 65.1488 20.3786 65.1175C20.4046 65.1123 20.4307 65.1123 20.4463 65.1071C20.4411 65.1071 20.4359 65.1071 20.4255 65.1123C20.3317 65.1331 20.2171 65.1644 20.0921 65.2113C19.4932 65.4144 18.8942 65.7477 18.3005 66.2061C17.3161 66.9561 16.5557 67.8571 16.0088 68.9092C15.988 68.9456 15.9567 69.0238 15.9098 69.1488C15.7692 69.5498 15.6598 69.9977 15.5921 70.4977C15.6077 70.3675 15.6182 69.8623 15.6182 68.9769V6.1071L36.3265 32.9404C40.5296 38.3831 49.2223 49.8988 62.4046 67.4769C61.7067 66.5706 60.8161 65.8988 59.738 65.4665C59.3525 65.3102 58.9932 65.1956 58.6598 65.1279C58.6025 65.1123 58.5557 65.1071 58.5192 65.1019C58.5244 65.1019 58.5452 65.1019 58.5713 65.1071C58.9411 65.1488 59.4827 65.1696 60.2015 65.1696C60.639 65.1696 60.9827 65.1488 61.2432 65.1175C61.2692 65.1123 61.29 65.1123 61.3057 65.1071C61.3057 65.1071 61.2952 65.1071 61.2848 65.1123C61.1911 65.1331 61.0817 65.1644 60.9567 65.2113C60.3578 65.4144 59.7588 65.7477 59.1598 66.2061C58.1807 66.9561 57.415 67.8571 56.8734 68.9092C56.8525 68.9456 56.8213 69.0238 56.7744 69.1488C56.6286 69.5498 56.5244 69.9977 56.4515 70.4977C56.4723 70.3675 56.4775 69.8623 56.4775 68.9769V20.1019C56.4775 19.5238 56.4619 19.0863 56.4255 18.7894C56.4463 18.9665 56.5348 19.2633 56.6859 19.6696L56.5244 19.2321L56.3942 18.7842C56.8213 20.2686 57.7067 21.5706 59.0609 22.6852C59.5817 23.1071 60.0973 23.4404 60.6182 23.6852C60.7796 23.7581 60.889 23.7998 60.9463 23.8154C61.04 23.8467 61.1182 23.8623 61.1859 23.8779C61.1702 23.8727 61.139 23.8675 61.0869 23.8623C60.8265 23.8363 60.488 23.8206 60.0713 23.8206C59.7171 23.8206 59.4359 23.8363 59.2171 23.8623C59.1807 23.8675 59.1598 23.8727 59.1546 23.8727C59.2119 23.8571 59.2848 23.8415 59.3682 23.8154C60.238 23.5394 61.04 23.0967 61.7744 22.4925C62.514 21.8831 63.0973 21.18 63.5348 20.3779Z" fill="white"/>
</svg>
