<svg width="166" height="167" viewBox="0 0 166 167" fill="none" xmlns="http://www.w3.org/2000/svg">
<path d="M113.767 19.1692L160.772 118.977C163.856 125.31 165.371 130.82 165.324 135.513C165.257 141.977 162.892 147.763 158.236 152.867C155.033 156.383 150.725 159.461 145.309 162.096C138.85 165.242 133.121 166.789 128.126 166.737C122.158 166.674 116.96 165.018 112.543 161.763C109.007 159.164 106.314 156.138 104.465 152.685C103.72 151.299 102.72 149.31 101.46 146.727L92.2984 127.18L107.71 119.956L107.528 136.977L58.2359 136.456L58.4129 119.44L73.6681 126.982L64.215 146.107C62.7046 149.044 61.4911 151.247 60.5744 152.721C58.7775 155.591 56.2723 158.221 53.064 160.607C48.5015 164.003 43.1525 165.664 37.0171 165.602C32.0223 165.544 26.3296 163.878 19.9338 160.596C14.6733 157.987 10.4546 154.898 7.28793 151.331C2.68376 146.138 0.418139 140.289 0.485849 133.779C0.532723 129.081 2.19939 123.539 5.48585 117.143L54.4754 18.3776C57.2515 12.7265 61.3973 8.22651 66.9129 4.87234C72.3713 1.55984 78.2046 -0.0651584 84.4129 -0.00265842C90.9806 0.0650509 96.84 1.81505 101.996 5.24734C106.923 8.52338 110.814 13.0963 113.673 18.9713L113.767 19.1692ZM83.0692 33.8723C82.9129 33.5442 82.7827 33.3203 82.6838 33.2005C82.7827 33.3203 82.9338 33.4453 83.1473 33.5859C83.4286 33.7734 83.715 33.9088 84.0119 33.9973C84.09 34.0182 84.1577 34.0338 84.2046 34.039C84.1786 34.039 84.1265 34.0338 84.0536 34.0338C84.2098 34.0338 84.3661 34.013 84.5275 33.9661C84.5848 33.9505 84.6317 33.9348 84.6681 33.9192C84.6577 33.9244 84.6317 33.9401 84.59 33.9609C84.7359 33.8723 84.8609 33.7213 84.9702 33.5026L35.7671 132.685C35.1056 133.971 34.6473 134.992 34.3869 135.737L34.3608 135.773C34.465 135.299 34.5171 134.758 34.5223 134.138C34.5327 132.888 34.3088 131.695 33.84 130.565C33.5327 129.82 33.1681 129.211 32.7515 128.742C32.715 128.695 32.6786 128.659 32.6473 128.633H32.6525C32.7411 128.711 32.8661 128.81 33.0275 128.919C33.59 129.32 34.4077 129.784 35.4754 130.315C36.6942 130.94 37.6733 131.372 38.4129 131.617C38.4963 131.643 38.5692 131.664 38.6213 131.68C38.6161 131.68 38.59 131.674 38.5536 131.669C38.2202 131.602 37.8296 131.57 37.3713 131.565C36.8817 131.56 36.3192 131.643 35.6838 131.825C34.6473 132.122 33.6681 132.612 32.7515 133.294L32.7671 133.305C32.4077 133.664 32.0588 134.117 31.715 134.664C32.1265 134.013 32.7879 132.794 33.7046 131.018L47.8973 102.305L118.585 103.055L132.064 131.825C133.126 134.008 133.923 135.602 134.46 136.596C133.892 135.534 133.309 134.789 132.72 134.352C131.84 133.706 130.913 133.237 129.934 132.95C129.376 132.789 128.897 132.706 128.486 132.7C128.033 132.695 127.637 132.721 127.309 132.779C127.267 132.789 127.246 132.789 127.236 132.794C127.293 132.779 127.361 132.758 127.449 132.732C128.194 132.508 129.179 132.091 130.413 131.492C131.366 131.029 132.137 130.591 132.725 130.185C132.903 130.065 133.038 129.961 133.142 129.872C133.158 129.862 133.163 129.852 133.168 129.852C133.142 129.872 133.116 129.904 133.08 129.94C132.689 130.372 132.335 130.945 132.022 131.654C131.543 132.753 131.298 133.919 131.288 135.159C131.278 135.773 131.319 136.32 131.413 136.794L131.387 136.758C131.147 136.008 130.673 134.914 129.975 133.477L82.9754 33.6692L83.0692 33.8723ZM98.7619 76.5234L86.7567 100.784L71.5067 93.2369L71.6838 76.2161L95.3556 76.4661L95.1734 93.4869L79.8088 100.799L68.1421 76.2942L83.5067 68.9765L98.7619 76.5234ZM83.8036 30.0026L122.262 110.789L44.2359 109.966L68.2515 61.4296L83.8036 30.0026Z" fill="white"/>
</svg>
