<svg width="71" height="65" viewBox="0 0 71 65" fill="none" xmlns="http://www.w3.org/2000/svg">
<path d="M69.2414 2.64355C69.7101 3.51855 69.9914 4.31022 70.0747 5.01855C70.158 5.72689 70.1997 6.75814 70.1997 8.10189V56.9769C70.1997 61.0342 69.0851 63.4092 66.8664 64.1019C65.7414 64.4665 64.3247 64.6436 62.6164 64.6436C60.9185 64.6436 59.5747 64.4977 58.5747 64.2061C57.5851 63.9144 56.8299 63.5602 56.3039 63.1436C55.7726 62.7269 55.356 62.1383 55.0539 61.3727C54.7622 60.3883 54.6164 58.8675 54.6164 56.8102V27.3102C53.158 29.1331 51.0174 32.0186 48.1997 35.9769C45.3768 39.9352 43.5851 42.4144 42.8247 43.4144C42.0591 44.4144 41.533 45.1123 41.2414 45.4977C40.9497 45.8727 40.2257 46.404 39.0747 47.0811C37.9341 47.7477 36.7049 48.0811 35.3872 48.0811C34.0643 48.0811 32.856 47.779 31.7622 47.1644C30.6789 46.5394 29.8976 45.9352 29.4289 45.3519L28.7205 44.3936C27.5539 42.9248 25.231 39.7998 21.7622 35.0186C18.3039 30.2269 16.4289 27.6592 16.1372 27.3102V56.9769C16.1372 58.3258 16.0851 59.3415 15.9914 60.0186C15.908 60.6852 15.6372 61.4352 15.1789 62.2686C14.2882 63.8519 11.9966 64.6436 8.30387 64.6436C4.72054 64.6436 2.49137 63.8519 1.61637 62.2686C1.14242 61.4352 0.855958 60.6748 0.762207 59.9769C0.678874 59.2686 0.637207 58.2165 0.637207 56.8102V7.93522C0.637207 6.57585 0.678874 5.56022 0.762207 4.89355C0.855958 4.21647 1.14242 3.43522 1.61637 2.56022C2.49137 1.03418 4.77262 0.268555 8.47054 0.268555C10.0539 0.268555 11.4132 0.466472 12.5539 0.851888C13.7049 1.22689 14.4601 1.61751 14.8247 2.01855L15.3455 2.56022L35.3455 28.7894C45.3143 15.5811 51.9757 6.86751 55.3247 2.64355C56.3247 1.06022 58.6841 0.268555 62.408 0.268555C66.1424 0.268555 68.4185 1.06022 69.2414 2.64355Z" fill="#FF8461"/>
</svg>
