<svg width="107" height="108" viewBox="0 0 107 108" fill="none" xmlns="http://www.w3.org/2000/svg">
<path d="M76.1146 14.8045L103.219 74.5285C105.24 78.8253 106.208 82.6639 106.125 86.0493C106.063 88.5649 105.51 90.9764 104.464 93.2837C103.563 95.2785 102.323 97.1118 100.75 98.7941C98.4844 101.206 95.5156 103.278 91.8385 105.002C87.4323 107.075 83.4479 108.065 79.8906 107.976C75.5313 107.867 71.724 106.586 68.4792 104.122C65.9479 102.206 64.0156 99.9607 62.6875 97.393C62.2344 96.518 61.6302 95.2837 60.8854 93.6899L55.5781 81.9399L68.2344 76.2264L67.8958 90.1118L38.5937 89.3878L38.9323 75.5076L51.2969 81.8357L45.5156 93.1274C44.526 94.9868 43.724 96.3982 43.1094 97.3514C41.7552 99.4451 39.9271 101.325 37.6146 102.992C34.1875 105.466 30.2292 106.648 25.7344 106.539C22.1719 106.45 18.2448 105.263 13.9479 102.982C10.4375 101.179 7.59375 99.018 5.42187 96.4972C3.90625 94.742 2.73958 92.841 1.92708 90.7889C0.984374 88.4243 0.546874 85.9816 0.609374 83.4555C0.692707 80.0701 1.875 76.2264 4.15625 71.9295L34.0833 13.6691C36.1094 9.68991 39.0937 6.54408 43.0312 4.22116C46.9219 1.9347 51.0729 0.840954 55.4792 0.95033C60.1302 1.06491 64.2813 2.3722 67.9323 4.87741C71.3958 7.25241 74.0938 10.5024 76.0365 14.6378L76.1146 14.8045ZM50.8958 26.4451C50.9323 26.5232 51.0156 26.643 51.1458 26.8045C51.4375 27.1639 51.7969 27.492 52.224 27.7837C53.099 28.3878 53.9583 28.6951 54.7969 28.716C55.6771 28.742 56.4531 28.5545 57.125 28.1587C57.8438 27.7368 58.3958 27.1378 58.7917 26.3618L28.6875 84.9607C28.3698 85.5649 28.1615 86.0024 28.0625 86.2732C28.25 85.7524 28.3542 85.0389 28.375 84.1378C28.4063 82.8826 28.1927 81.6743 27.7344 80.5232C27.401 79.6847 26.974 78.9607 26.4531 78.3566C26.25 78.1222 26.0937 77.966 25.9792 77.8826C26.1562 78.0076 26.4896 78.2003 26.974 78.4503C27.5208 78.742 27.9219 78.9295 28.1719 79.0128C27.75 78.8722 27.1667 78.7889 26.4167 78.768C25.7604 78.7524 25.0677 78.8462 24.3385 79.0389C23.2708 79.3305 22.2812 79.8045 21.3594 80.4712C20.8385 80.8462 20.3125 81.4503 19.7708 82.2889C19.9583 81.9972 20.3021 81.3878 20.7917 80.466L30.5521 61.4087L77.3021 62.5597L86.026 81.8826C86.6198 83.1482 87.0573 84.0545 87.3438 84.6066C86.7552 83.466 86.0573 82.5962 85.2604 81.9868C84.3906 81.3305 83.4531 80.8462 82.4479 80.5337C81.7865 80.3305 81.1615 80.2212 80.5729 80.2055C79.8281 80.1899 79.2396 80.242 78.8125 80.367C79.0677 80.2941 79.474 80.1222 80.0313 79.8618C80.4323 79.6743 80.7292 79.518 80.9219 79.3826C80.8281 79.4503 80.6823 79.5857 80.4844 79.7941C79.9635 80.3514 79.5208 81.0285 79.1563 81.8305C78.6563 82.9451 78.3854 84.1222 78.3542 85.367C78.3333 86.268 78.401 86.9868 78.5677 87.518C78.4792 87.2368 78.2656 86.7368 77.9271 86.0076L50.8177 26.2837L50.8958 26.4451ZM66.6354 52.0545L59.2969 66.3722L46.9375 60.0389L47.276 46.1535L61.3438 46.5024L61.0052 60.3826L48.3802 66.1795L41.651 51.5128L54.276 45.716L66.6354 52.0545ZM54.9635 13.9191L82.9063 74.8149L24.4948 73.3774L41.9115 39.3826L54.9635 13.9191Z" fill="white"/>
</svg>
