<svg width="94" height="108" viewBox="0 0 94 108" fill="none" xmlns="http://www.w3.org/2000/svg">
<path d="M81.8785 38.5921C85.3004 41.9879 87.9983 45.7379 89.967 49.8369C91.9827 54.0192 93.1962 58.4775 93.6181 63.2119C93.9931 68.6337 93.4566 73.6962 92.0035 78.3889C90.5243 83.1858 88.1389 87.5764 84.8525 91.566C81.54 95.5869 77.6962 98.7431 73.316 101.05C68.941 103.352 64.1598 104.738 58.9775 105.196L31.2587 107.66C26.7639 108.061 22.8056 107.644 19.3889 106.415C16.9254 105.53 14.7639 104.248 12.9045 102.576C10.8473 100.722 9.27954 98.5035 8.20663 95.9306L21.0295 90.5921L8.39413 96.3577C7.20663 93.7587 6.43579 90.4358 6.07642 86.3994L0.873292 27.9046C0.664959 25.5921 0.597249 23.7327 0.664959 22.3212C0.779541 19.8837 1.39413 17.3473 2.50871 14.7171C3.45663 12.4046 4.91496 10.3525 6.87329 8.55561C8.40454 7.15457 10.1858 5.99832 12.2118 5.08686C14.9566 3.8577 18.2327 3.07124 22.0295 2.7327L48.592 0.368112C53.665 -0.0798036 58.4827 0.414989 63.0504 1.85249C67.6806 3.31082 71.9045 5.69103 75.7327 8.99832C79.5087 12.1546 82.5191 15.8681 84.7535 20.1285C87.0035 24.4046 88.3473 29.066 88.8004 34.1077C89.467 41.6233 87.9254 48.6858 84.1754 55.3004L72.092 48.4462L81.8785 38.5921ZM62.3108 58.3004L54.7795 50.8264L60.0139 41.5973C60.915 40.0035 61.2848 38.3317 61.1285 36.566C61.0087 35.2171 60.6858 34.04 60.165 33.04C59.6285 32.0244 58.7639 31.0139 57.5712 30.0139C56.6389 29.2119 55.6858 28.6546 54.7014 28.3421C53.6598 28.0139 52.441 27.915 51.0504 28.0348L24.4931 30.3994C23.967 30.4462 23.5556 30.5035 23.2535 30.5712C23.217 30.5764 23.1962 30.5817 23.1754 30.5869C23.1754 30.5869 23.1858 30.5869 23.2014 30.5817C23.3108 30.5452 23.441 30.4931 23.5868 30.4306C24.2795 30.1181 24.9618 29.6546 25.6285 29.0452C26.7222 28.0452 27.54 26.8837 28.0764 25.566C28.0973 25.5244 28.1285 25.4254 28.1702 25.2692C28.3004 24.7744 28.3785 24.2275 28.4098 23.6233C28.4045 23.7744 28.4462 24.3837 28.54 25.4462L33.7431 83.9358C33.8056 84.6389 33.8733 85.1806 33.9514 85.5608V85.566C33.8837 85.3473 33.7848 85.0973 33.665 84.8264L33.7587 85.04L33.8473 85.2535C33.316 83.9775 32.5295 82.8681 31.4931 81.9358C30.6493 81.1754 29.7483 80.6233 28.79 80.2796C28.3785 80.1337 28.0556 80.0504 27.8212 80.0296C28.0243 80.0452 28.3525 80.0348 28.7952 79.9931L56.5139 77.5296C58.0035 77.3994 59.29 77.0452 60.3785 76.4723C61.4618 75.8994 62.4723 75.0452 63.415 73.9046C64.3785 72.7327 65.0608 71.4983 65.4618 70.1962C65.8993 68.7952 66.0608 67.2848 65.9514 65.6702C65.8264 64.29 65.4879 63.0244 64.9358 61.8733C64.3473 60.6442 63.467 59.4567 62.3108 58.3004ZM47.2014 66.2744C47.191 66.1494 47.1754 66.0452 47.165 65.9619C47.165 65.9462 47.1598 65.9358 47.1598 65.9306C47.165 65.9462 47.165 65.9671 47.1754 65.9931C47.2639 66.3785 47.4306 66.8108 47.6754 67.2952C48.2118 68.3785 48.9514 69.3473 49.8889 70.191C50.8941 71.1025 52.0243 71.7848 53.2795 72.2327L57.9618 59.1598L53.967 72.4567C54.2014 72.5296 54.4202 72.5817 54.6077 72.6129C54.6441 72.6181 54.6702 72.6181 54.691 72.6233C54.6806 72.6233 54.665 72.6181 54.6389 72.6181C54.3004 72.6025 53.8264 72.6181 53.217 72.6754C47.5191 73.1806 42.665 72.1389 38.6389 69.5452C33.4827 66.2223 30.566 60.7744 29.8941 53.2067C29.6285 50.2327 29.7743 47.5192 30.3316 45.0608C31.2118 41.1702 33.0348 37.9671 35.8056 35.4567C39.3212 32.2692 44.1389 30.4046 50.2587 29.8577L50.2535 29.8629C50.1545 29.8785 50.0452 29.8994 49.9202 29.9358C49.3473 30.0817 48.7535 30.3212 48.1389 30.6598C47.0452 31.2587 46.0712 32.0556 45.2223 33.0608C44.1702 34.2952 43.4254 35.691 42.9827 37.2535L56.3473 41.0296L42.6806 38.5764C42.6025 39.0192 42.5608 39.3421 42.5608 39.5556C42.5608 39.3056 42.54 38.9306 42.4931 38.4358C42.6025 39.6233 43.0035 40.816 43.7066 42.0192C44.7691 43.8369 46.2483 45.2119 48.1441 46.1389C48.9827 46.5556 49.7639 46.8004 50.4827 46.8785C50.54 46.8837 50.5868 46.8889 50.6285 46.8942H50.6181C50.5087 46.8942 50.3629 46.8994 50.1806 46.915L35.4254 48.2275L34.1962 34.3942L48.0295 33.165L51.5816 73.1077L37.7483 74.3421L36.5191 60.5087L53.8004 58.9671C53.3004 59.0139 52.717 59.191 52.0556 59.4983C50.8108 60.0712 49.7483 60.9306 48.8681 62.0712C48.0764 63.0921 47.5608 64.1702 47.316 65.3108C47.2223 65.7587 47.1858 66.0764 47.2014 66.2744ZM74.8681 63.816C75.4045 69.8212 74.0608 74.9046 70.8368 79.066C68.9566 81.4983 66.5868 83.3733 63.7379 84.6962C61.467 85.7483 58.9775 86.3942 56.2639 86.6337L25.1441 89.4046L19.1337 21.79L47.7223 19.2483C52.6129 18.816 56.8368 19.4671 60.3785 21.2067C63.4931 22.7327 65.9306 24.9983 67.6806 27.9931C69.0712 30.3733 69.8993 33.0348 70.1598 35.9775C70.4254 38.9671 70.3785 41.4723 70.0191 43.4827L69.8993 44.1494L69.717 44.8056C69.0608 47.1285 67.9462 49.2119 66.3837 51.0504C65.0191 52.6546 63.3889 53.9775 61.4827 55.0192C58.9723 56.3942 56.0504 57.2275 52.717 57.5244C52.3993 57.5556 52.1337 57.5869 51.9202 57.6285L51.9045 57.6233C52.7431 57.3525 53.5973 56.8212 54.467 56.0348C56.0243 54.6181 57.0087 53.0035 57.4202 51.191C57.4931 50.8785 57.5295 50.6181 57.54 50.4046C57.5348 50.4567 57.5452 50.5712 57.5608 50.7483C57.5764 50.941 57.592 51.0712 57.6077 51.1337C57.566 50.9462 57.4879 50.7171 57.3733 50.4358C56.6702 48.7431 55.441 47.3264 53.6858 46.1962C52.7535 45.5973 51.8264 45.2171 50.915 45.066C50.7431 45.04 50.6077 45.0244 50.5035 45.0192C50.5504 45.0192 50.6337 45.0139 50.7535 45.0035C55.0608 44.6233 58.7952 44.9046 61.9566 45.8577L62.3004 45.9619L62.6441 46.0817C64.8473 46.8733 66.8108 48.0452 68.5295 49.5973C70.1754 51.0921 71.5087 52.8525 72.5243 54.8889C73.7795 57.4046 74.5608 60.3837 74.8681 63.816Z" fill="white"/>
</svg>
