<svg width="130" height="140" viewBox="0 0 130 140" fill="none" xmlns="http://www.w3.org/2000/svg">
<path d="M97.3155 12.6152L127.899 118.615C129.19 122.933 129.67 126.084 129.336 128.074C128.612 132.266 124.571 135.48 117.211 137.719C112.888 139.021 109.592 139.48 107.315 139.094C105.034 138.704 103.253 137.855 101.961 136.553C100.68 135.261 99.8207 133.969 99.378 132.678C98.9301 131.396 98.3207 129.495 97.5446 126.969L91.6905 106.428L43.0863 98.0944L30.7113 115.49C29.154 117.631 27.9613 119.167 27.128 120.115C26.305 121.058 25.0707 121.959 23.4196 122.824C21.7634 123.683 19.7998 123.917 17.5238 123.532C15.2425 123.141 12.2842 121.605 8.6488 118.928C2.42484 114.485 -0.325162 110.167 0.398797 105.969C0.73213 103.985 2.23734 101.167 4.91963 97.511L69.1071 7.59436C70.8415 5.12561 73.1696 3.29749 76.0863 2.1152C79.003 0.92249 81.9248 0.573531 84.8571 1.07353C91.1592 2.15686 95.3155 6.00582 97.3155 12.6152ZM75.878 52.2819L60.1905 74.3027L83.5238 78.3027L75.878 52.2819Z" fill="#28499A"/>
</svg>
