<svg width="74" height="89" viewBox="0 0 74 89" fill="none" xmlns="http://www.w3.org/2000/svg">
<path d="M27.4178 49.5807H54.5428C56.3918 49.5807 57.9074 49.6536 59.0741 49.8099C61.1418 50.0807 63.2355 50.7786 65.3553 51.9089C67.1991 52.8672 68.798 54.2214 70.1418 55.9818C71.1886 57.3568 72.0168 58.9141 72.6209 60.6589C73.4438 63.0286 73.8501 65.7995 73.8501 68.9766C73.8501 72.6901 73.2407 75.9036 72.0168 78.6172C71.1261 80.5859 69.9334 82.2839 68.4438 83.7109C66.7616 85.3151 64.8136 86.4766 62.6001 87.1953L59.0324 76.2005L62.8813 87.0964C60.6366 87.888 57.8293 88.2839 54.4543 88.2839H19.5793C15.8293 88.2839 12.5793 87.6484 9.83447 86.3776C7.86051 85.4609 6.1626 84.2422 4.74072 82.7161C3.17302 81.0234 2.0376 79.0755 1.33447 76.862L12.3605 73.3776L1.5376 77.4401C0.693848 75.1901 0.271973 72.3411 0.271973 68.888V19.9245C0.271973 13.6797 1.99593 8.8776 5.43864 5.52344C8.79802 2.2526 13.6001 0.617188 19.8449 0.617188H54.5428C56.3918 0.617188 57.9022 0.690104 59.0741 0.846354C61.1418 1.11198 63.2355 1.8151 65.3553 2.94531C67.1991 3.89844 68.798 5.25781 70.1418 7.01823C71.1886 8.39323 72.0168 9.95052 72.6209 11.6953C73.4438 14.0651 73.8501 16.8359 73.8501 20.013C73.8501 23.7266 73.2407 26.9401 72.0168 29.6536C71.1261 31.6224 69.9334 33.3203 68.4438 34.7474C66.7616 36.3516 64.8136 37.5078 62.6001 38.2266L59.0324 27.2318L62.8813 38.1328C60.6366 38.9245 57.8293 39.3203 54.4543 39.3203H27.4178V27.763H38.9803V36.6589H27.4178V25.0964H44.8553C46.7043 25.0964 48.2199 25.1745 49.3866 25.3255C51.4543 25.5964 53.548 26.2943 55.6678 27.4245C57.5116 28.3828 59.1105 29.7422 60.4543 31.4974C61.5011 32.8724 62.3293 34.4349 62.9334 36.1797C63.7564 38.5495 64.1626 41.3203 64.1626 44.4922C64.1626 48.2474 63.5272 51.4974 62.2563 54.2422C61.3397 56.2161 60.1209 57.9141 58.5949 59.3359C56.9022 60.9036 54.9543 62.0391 52.7407 62.737L49.2616 51.7161L53.1053 62.6172C50.8657 63.4089 48.0532 63.8047 44.6782 63.8047H27.4178V52.2422H38.9803V61.138H27.4178V49.5807ZM15.8605 72.7005V40.6849H44.6782C45.2616 40.6849 45.7199 40.6641 46.0428 40.6276V40.6328C45.8553 40.6745 45.647 40.7318 45.4126 40.8151L45.5949 40.7526L45.7772 40.6953C44.6782 41.0391 43.7043 41.612 42.8501 42.4036C42.1626 43.0443 41.6366 43.7526 41.2824 44.5234C41.1313 44.8516 41.0376 45.112 41.0011 45.3099C41.0324 45.138 41.048 44.8672 41.048 44.4922C41.048 44.0599 41.0272 43.7109 40.9959 43.4557C40.9907 43.4245 40.9907 43.4036 40.9855 43.388C40.9855 43.3932 40.9855 43.3984 40.9907 43.4089C41.0116 43.5026 41.0428 43.612 41.0897 43.7422C41.298 44.3411 41.6261 44.9401 42.0845 45.5339C42.8345 46.513 43.7355 47.2786 44.7876 47.8255C45.147 48.013 45.6834 48.1589 46.397 48.2526C46.2199 48.2266 45.7043 48.2161 44.8553 48.2161H15.8605V16.2005H54.4543C55.0376 16.2005 55.4907 16.1849 55.8136 16.1484H55.8188C55.6314 16.1901 55.423 16.2526 55.1886 16.3359L55.3293 16.2839L55.4699 16.237C54.3397 16.6068 53.3397 17.2005 52.4751 18.0286C51.798 18.6745 51.2876 19.3776 50.9438 20.1432C50.8032 20.4557 50.7147 20.7005 50.6886 20.8776C50.7199 20.6901 50.7355 20.4036 50.7355 20.013C50.7355 19.5755 50.7147 19.2266 50.6834 18.9714C50.6782 18.9453 50.6782 18.9245 50.673 18.9036C50.673 18.9089 50.673 18.9141 50.6782 18.9297C50.6991 19.0234 50.7303 19.1328 50.7772 19.2578C50.9803 19.8568 51.3136 20.4557 51.772 21.0547C52.522 22.0339 53.423 22.7943 54.4751 23.3411C54.8345 23.5339 55.3709 23.6745 56.0845 23.7682C55.9074 23.7474 55.3918 23.7318 54.5428 23.7318H19.8449C19.4647 23.7318 19.147 23.7474 18.8918 23.7734C18.8241 23.7786 18.7668 23.7891 18.7303 23.7943C18.7407 23.7943 18.7668 23.7891 18.8032 23.7786C19.0845 23.7057 19.3918 23.5807 19.7355 23.4089C20.3866 23.0807 21.0011 22.638 21.5688 22.0859C22.5168 21.1641 23.1261 20.2005 23.397 19.1953C23.4178 19.1328 23.4282 19.0859 23.4334 19.0443C23.4334 19.0599 23.4282 19.0859 23.423 19.1328C23.4022 19.3359 23.3918 19.6016 23.3918 19.9245V68.888C23.3918 69.4661 23.4074 69.9036 23.4438 70.2005C23.423 70.0234 23.3345 69.7266 23.1834 69.3203L23.2876 69.6068L23.3814 69.8984C23.0376 68.7995 22.4647 67.8255 21.673 66.9714C21.0324 66.2839 20.3241 65.7578 19.5532 65.4036C19.2251 65.2526 18.9647 65.1589 18.7668 65.1224C18.9386 65.1536 19.2095 65.1693 19.5793 65.1693H54.4543C55.0376 65.1693 55.4907 65.1484 55.8136 65.112L55.8188 65.1172C55.6314 65.1536 55.423 65.2161 55.1886 65.2995L55.3293 65.2474L55.4699 65.2005C54.3397 65.5703 53.3397 66.1641 52.4751 66.9922C51.798 67.638 51.2876 68.3464 50.9438 69.112C50.8032 69.4245 50.7147 69.6641 50.6886 69.8411C50.7199 69.6536 50.7355 69.3672 50.7355 68.9766C50.7355 68.5391 50.7147 68.1953 50.6834 67.9349C50.6782 67.9089 50.6782 67.888 50.673 67.8724C50.673 67.8724 50.673 67.8828 50.6782 67.8932C50.6991 67.987 50.7303 68.0964 50.7772 68.2214C50.9803 68.8203 51.3136 69.4193 51.772 70.0182C52.522 70.9974 53.423 71.763 54.4751 72.3047C54.8345 72.4974 55.3709 72.638 56.0845 72.7318C55.9074 72.7109 55.3918 72.7005 54.5428 72.7005H15.8605Z" fill="white"/>
</svg>
