<svg width="159" height="170" viewBox="0 0 159 170" fill="none" xmlns="http://www.w3.org/2000/svg">
<path d="M27.2861 10.2496L125.776 0.702767C132.218 0.0777672 137.619 0.603808 141.979 2.28089C145.062 3.46318 147.765 5.18193 150.083 7.42673C152.406 9.67152 154.208 12.3174 155.494 15.3642C156.942 18.7913 157.895 22.9007 158.364 27.6976C158.833 32.5413 158.671 36.7809 157.875 40.4111C157.229 43.359 156.135 46.0309 154.583 48.4371C152.776 51.2392 150.463 53.5257 147.651 55.2913C143.359 57.984 137.932 59.6507 131.369 60.2861L97.5361 63.5621L95.8954 46.6246L112.833 44.984L121.468 134.083C121.807 137.567 121.932 140.349 121.854 142.437C121.724 145.708 120.937 149.156 119.489 152.77C118.198 155.994 116.276 158.812 113.729 161.208C111.531 163.276 108.963 164.937 106.015 166.192C102.229 167.802 97.635 168.869 92.234 169.39C86.7861 169.922 82.0621 169.744 78.0569 168.859C74.9475 168.172 72.1246 167.015 69.5934 165.39C66.7027 163.531 64.3277 161.166 62.4736 158.297C60.3382 154.994 58.8954 151.703 58.1402 148.422C57.6663 146.364 57.26 143.609 56.9267 140.161L48.3069 51.234L65.2496 49.5934L66.8902 66.5309L32.8798 69.8278C26.4319 70.4528 21.0309 69.9267 16.6767 68.2549C13.5882 67.0674 10.885 65.3486 8.56732 63.1038C6.24961 60.859 4.44232 58.2132 3.15586 55.1663C1.71315 51.7392 0.75482 47.6299 0.291278 42.8382C-0.177472 37.9892 -0.0160135 33.7496 0.775653 30.1194C1.42149 27.1767 2.52045 24.4996 4.06732 22.0986C5.87461 19.2913 8.18711 17.0049 10.9996 15.2392C15.2913 12.5465 20.7184 10.8851 27.2861 10.2496ZM30.5673 44.1246C29.609 44.2184 28.8642 44.3382 28.3434 44.484L28.3277 44.4788C28.5569 44.3851 28.8121 44.2496 29.0882 44.0726C30.5569 43.1559 31.7496 41.9736 32.6819 40.5361C33.3486 39.4996 33.7965 38.4528 34.0309 37.3955C34.0569 37.2653 34.0725 37.1715 34.0829 37.109C34.0725 37.1767 34.0673 37.2861 34.0673 37.4267C34.0517 37.9892 34.0882 38.6976 34.1715 39.5517C34.2548 40.4163 34.359 41.1351 34.484 41.7028C34.5152 41.8642 34.5465 41.9892 34.5777 42.083C34.5725 42.0621 34.5517 42.0101 34.5152 41.9267C34.0048 40.7132 33.2444 39.6194 32.2392 38.6507C31.234 37.6767 30.1194 36.9528 28.8902 36.484C28.1871 36.2132 27.6715 36.0674 27.3382 36.0465C27.8486 36.0778 28.6038 36.0465 29.5934 35.9476L80.5465 31.0101L90.8069 136.875C90.9996 138.859 91.1663 140.161 91.3069 140.786C91.2027 140.328 91.0777 139.942 90.9371 139.63C90.9267 139.604 90.9163 139.583 90.9059 139.567C90.9059 139.567 90.9111 139.573 90.9163 139.583C90.9475 139.645 90.9944 139.724 91.0569 139.812C90.2496 138.567 89.2288 137.547 87.9892 136.75C87.109 136.187 86.2392 135.807 85.385 135.619L85.3902 135.614C85.5621 135.635 85.7809 135.645 86.0361 135.651C86.8329 135.672 87.8017 135.625 88.9527 135.515C90.8694 135.328 92.1142 135.114 92.6819 134.875C91.9111 135.203 91.1507 135.718 90.4007 136.422C89.2965 137.458 88.4632 138.692 87.8902 140.119C87.9371 140 87.9736 139.901 87.9996 139.817V139.838C87.9111 140.187 87.859 140.609 87.8382 141.109C87.859 140.562 87.7757 139.317 87.5882 137.364L77.3121 31.3278L128.088 26.4059C129.046 26.3121 129.786 26.1924 130.312 26.0465L130.328 26.0517C130.093 26.1455 129.843 26.2861 129.562 26.458C128.099 27.3799 126.901 28.5569 125.974 29.9944C125.307 31.0361 124.854 32.083 124.625 33.1351C124.593 33.2653 124.578 33.359 124.573 33.4215C124.578 33.3538 124.583 33.2444 124.588 33.1038C124.599 32.5465 124.567 31.8382 124.484 30.9788C124.401 30.1142 124.296 29.3955 124.171 28.8278C124.135 28.6663 124.104 28.5413 124.078 28.4476C124.083 28.4736 124.104 28.5257 124.135 28.6038C124.651 29.8174 125.406 30.9111 126.411 31.8851C127.416 32.8538 128.531 33.5778 129.76 34.0517C130.463 34.3174 130.979 34.4632 131.317 34.484C130.802 34.4528 130.052 34.484 129.057 34.583L30.5673 44.1246Z" fill="white"/>
</svg>
