<svg width="85" height="109" viewBox="0 0 85 109" fill="none" xmlns="http://www.w3.org/2000/svg">
<path d="M5.24672 89.0322C1.60609 84.0218 -0.0814053 78.975 0.194636 73.8968C0.387344 70.3031 1.67901 66.8343 4.06964 63.4958C5.51234 61.475 7.43422 59.4177 9.83005 57.3135C12.0228 55.4281 14.3353 54.0062 16.7676 53.0583C19.5853 51.9593 22.4863 51.4906 25.4707 51.652C29.1634 51.85 32.778 53.2197 36.304 55.7614C38.4446 57.2979 40.679 59.3708 43.0123 61.9697L43.4603 62.4697L43.8613 63.0062C43.7936 62.9177 43.7363 62.8447 43.6842 62.7875C43.6738 62.777 43.6686 62.7718 43.6686 62.7718C43.6738 62.7822 43.6894 62.7927 43.7051 62.8083C43.8821 62.9697 44.1373 63.1572 44.4655 63.3812C44.5123 63.4125 44.5436 63.4333 44.554 63.4385C44.4811 63.3968 44.3873 63.3552 44.2676 63.3135C43.7363 63.1052 43.1321 62.9854 42.4498 62.9489C42.7311 62.9645 42.9655 62.9697 43.1478 62.9541C43.1842 62.9541 43.2103 62.9541 43.2259 62.9489C43.1946 62.9541 43.153 62.9593 43.1061 62.9697C42.429 63.1208 41.7207 63.4593 40.9863 63.9958C39.9394 64.7614 39.1426 65.7197 38.6009 66.8708C38.2884 67.5322 38.1217 68.0947 38.0957 68.5739C37.9915 70.5479 38.4342 72.3864 39.4342 74.0843C40.0696 75.1677 40.8092 75.9958 41.6478 76.5687C41.3144 76.3395 40.653 76.1104 39.6634 75.8708C36.304 75.0635 32.7728 73.8916 29.0592 72.3552C25.3092 70.8031 21.804 69.0114 18.554 66.9802C13.7207 63.9593 9.90818 59.6104 7.12172 53.9437C4.42901 48.4697 3.27276 42.277 3.64255 35.3552C3.91339 30.3656 5.1113 25.6989 7.24672 21.3604C9.33526 17.1104 12.2623 13.2979 16.028 9.91766C19.9759 6.37599 24.528 3.80828 29.6842 2.22495C34.4603 0.761405 39.6582 0.178072 45.2832 0.480156C50.9238 0.78224 56.1217 1.82391 60.8717 3.59474C66.0436 5.52703 69.9446 7.72495 72.5801 10.1989L63.0748 20.3239L72.0644 9.73536L75.1373 12.3447L75.6269 12.8552C80.4863 17.9124 82.7676 23.152 82.4759 28.5739C82.3353 31.2093 81.5905 33.8604 80.2519 36.5322C79.3821 38.2666 78.2207 40.0739 76.7728 41.9593C74.5019 44.9437 72.028 47.2875 69.3561 48.9854C65.5696 51.3916 61.5644 52.4854 57.3301 52.2562C53.1269 52.0322 48.8717 50.3552 44.554 47.2302C43.6165 46.527 42.5957 45.6 41.4915 44.4437C41.3926 44.3395 41.304 44.2562 41.2363 44.1937L41.2259 44.1781C41.2467 44.1989 41.2728 44.2197 41.3092 44.2458L49.9759 33.3968L42.0436 44.7927C42.5384 45.1416 43.028 45.3864 43.5071 45.527C43.6165 45.5635 43.7051 45.5843 43.778 45.5947C43.7623 45.5947 43.7155 45.5895 43.653 45.5843C43.8092 45.5947 44.0384 45.5635 44.3405 45.4958C44.9498 45.3552 45.5384 45.1 46.1061 44.7354C47.2363 44.0062 48.1582 43.0218 48.8665 41.7822C49.528 40.6156 49.8926 39.4281 49.9551 38.2145C50.0384 36.7249 49.7259 35.2822 49.0228 33.8864C48.4498 32.7458 47.7207 31.8499 46.8405 31.1937C46.8092 31.1624 46.778 31.1468 46.7623 31.1364C46.7936 31.152 46.8353 31.1729 46.8978 31.1989C47.179 31.3187 47.5488 31.4281 48.0071 31.527C51.179 32.2041 54.5801 33.152 58.1998 34.3708C62.0801 35.6781 65.6686 37.2249 68.9811 39.0166C74.1426 41.8083 78.1894 46.1208 81.1269 51.9437C83.8613 57.376 85.0384 63.6156 84.6634 70.652C84.2936 77.5114 82.5123 83.6156 79.3248 88.9645C76.0592 94.4541 71.8301 98.6729 66.6478 101.621C58.4186 106.397 49.6894 108.532 40.4498 108.037C35.8978 107.793 31.5748 106.991 27.4759 105.626C23.179 104.199 19.5644 102.407 16.6217 100.251L24.8353 89.0531L17.028 100.537C11.7988 96.9802 7.98109 93.277 5.58005 89.4229L17.3717 82.0791L6.16339 90.2822L5.27276 89.0687L5.24672 89.0322ZM27.6842 72.6625L28.8821 74.2979L29.1582 74.7406L29.1686 74.7354C29.3092 74.8968 29.5019 75.0947 29.7363 75.3135C30.4603 75.9906 31.429 76.7406 32.6426 77.5635L32.8509 77.7041L33.0488 77.85C33.6426 78.2875 34.7051 78.7614 36.2415 79.2718C37.9759 79.8447 39.8769 80.1885 41.9446 80.3031C45.6686 80.501 49.3196 79.5635 52.903 77.4854C53.8405 76.9489 54.6946 76.0375 55.4655 74.7458C56.3144 73.3187 56.804 71.4593 56.9238 69.1625C57.0384 67.0427 56.8353 65.4697 56.3196 64.4385C56.0748 63.9593 55.8561 63.6104 55.653 63.3864C55.6373 63.3708 55.6217 63.3552 55.6113 63.3447C55.6113 63.35 55.6165 63.35 55.6217 63.3552C55.6634 63.3864 55.7051 63.4125 55.7571 63.4437C53.8457 62.4072 51.7103 61.4958 49.3405 60.6989C46.7207 59.8135 44.3457 59.1468 42.2051 58.6885C37.5696 57.6989 33.5696 55.9489 30.2155 53.4437C27.6009 51.4906 25.6061 49.1364 24.2155 46.3812C22.6998 43.3708 22.0332 40.152 22.2207 36.7249C22.3873 33.5739 23.2259 30.6781 24.7259 28.0427C26.2728 25.3239 28.3926 23.0999 31.1009 21.3604C35.1894 18.7354 39.8665 17.5635 45.1426 17.8499C50.0644 18.1156 54.3196 19.4958 57.9082 21.9958L58.2832 22.2562L58.6426 22.5427C59.6061 23.3135 60.5853 24.2197 61.5853 25.2718C61.7467 25.4333 61.8561 25.5479 61.9186 25.6104C61.6842 25.3812 61.3301 25.0895 60.8405 24.7302C61.0384 24.8708 61.2051 24.9802 61.3405 25.0635C61.3665 25.0791 61.3873 25.0895 61.3978 25.0947C61.3717 25.0843 61.3405 25.0687 61.2988 25.0479C60.6269 24.751 59.7988 24.5739 58.8248 24.5218C57.1269 24.4281 55.6686 24.7718 54.4446 25.5479C54.278 25.6572 54.1686 25.7354 54.1217 25.777C54.278 25.626 54.4863 25.3812 54.7415 25.0427C55.1165 24.5583 55.3457 24.2302 55.4238 24.0739C55.0332 24.8552 54.804 25.8552 54.7363 27.0843C54.6321 29.0583 54.9863 30.7666 55.7936 32.2145C55.8873 32.3864 55.9603 32.4958 56.0071 32.5583C55.9186 32.4437 55.778 32.2874 55.5905 32.0947L65.6113 22.4749L56.6269 33.0635L53.8248 30.6885L53.5748 30.4541C53.804 30.6677 54.0019 30.8343 54.1738 30.9489C54.1321 30.9177 54.0332 30.8656 53.8821 30.7822C53.2311 30.4385 52.3196 30.0531 51.1634 29.6208C49.0592 28.8343 46.6009 28.3656 43.7884 28.2145C39.6582 27.9958 36.5905 28.7822 34.5853 30.5895C33.4863 31.5739 32.679 32.5843 32.1738 33.6156C31.7103 34.5583 31.4446 35.6364 31.3821 36.8447C31.2676 38.9385 31.4915 40.5531 32.0436 41.6833C32.5071 42.6208 32.9134 43.1989 33.278 43.4229C35.2207 44.6364 37.3561 45.725 39.6842 46.6937C42.054 47.6729 44.2103 48.3968 46.153 48.8656C50.4603 49.8968 54.1842 51.4906 57.3301 53.6416C59.9082 55.402 61.9238 57.527 63.3821 60.0114C65.2103 63.1208 66.028 66.4697 65.8301 70.0635C65.6634 73.2145 64.9603 76.1052 63.7207 78.725C62.2519 81.8395 60.1373 84.402 57.3821 86.4177C53.0071 89.6156 47.5332 91.0427 40.9603 90.6885C36.8613 90.4645 32.8717 89.0531 28.9811 86.4385C25.8717 84.3499 23.3769 82.0322 21.5019 79.4854L32.679 71.2458L22.3457 80.527C21.3509 79.4177 20.5957 78.6729 20.0801 78.3031C20.2207 78.4072 20.4551 78.527 20.7832 78.6729C21.7363 79.0843 22.804 79.3239 23.9759 79.3916C24.9863 79.4437 25.9446 79.2927 26.8509 78.9437C27.3769 78.7354 27.804 78.4906 28.1426 78.1989C27.3561 78.8916 26.8613 79.376 26.6582 79.6572C26.8405 79.402 27.0228 79.0583 27.2051 78.6364C27.6269 77.6468 27.8665 76.5635 27.929 75.3916C27.9863 74.2927 27.8561 73.3343 27.5384 72.5114C27.4915 72.402 27.4603 72.3239 27.4394 72.2875C27.5019 72.3916 27.5905 72.5322 27.7155 72.6989L27.6842 72.6625Z" fill="white"/>
</svg>
