<svg width="138" height="166" viewBox="0 0 138 166" fill="none" xmlns="http://www.w3.org/2000/svg">
<path d="M49.0494 99.7971L103.659 100.677C107.112 100.735 109.883 100.917 111.966 101.224C115.357 101.719 118.831 102.953 122.393 104.927C131.492 109.834 135.924 119.505 135.69 133.943C135.586 140.511 134.445 146.099 132.279 150.703C130.773 153.896 128.799 156.625 126.351 158.891C123.622 161.412 120.476 163.219 116.909 164.313L111.94 148.099L117.325 164.183C113.466 165.474 108.503 166.068 102.43 165.969L32.2161 164.839C25.5858 164.729 19.9504 163.552 15.2994 161.308C12.0963 159.761 9.3671 157.735 7.1171 155.229C4.64314 152.485 2.87231 149.323 1.80981 145.755L18.0598 140.912L2.08585 146.604C0.721265 142.771 0.0858488 137.761 0.184807 131.578L1.77856 32.9951C1.95043 22.193 4.91397 14.0836 10.6692 8.66173C16.2942 3.35964 24.5338 0.791934 35.3931 0.969018L105.253 2.09923C108.706 2.15131 111.471 2.3336 113.555 2.64089C116.95 3.13569 120.424 4.37527 123.982 6.34402C133.081 11.2503 137.513 20.9221 137.284 35.3596C137.174 41.9274 136.039 47.5159 133.867 52.1201C132.367 55.318 130.388 58.0419 127.94 60.3076C125.216 62.8284 122.065 64.6357 118.503 65.7294L113.534 49.5159L118.914 65.5992C115.06 66.8909 110.096 67.4846 104.018 67.3857L49.5859 66.5107L49.8619 49.5524L66.815 49.8284L66.5286 67.7346L49.5702 67.4638L49.8463 50.5055L84.9504 51.0732C88.4036 51.1305 91.1744 51.3128 93.2577 51.6149C96.6483 52.1149 100.122 53.3492 103.685 55.3232C112.784 60.2294 117.216 69.8961 116.982 84.3336C116.878 90.9638 115.7 96.6044 113.45 101.25C111.904 104.453 109.878 107.183 107.378 109.438C104.628 111.907 101.471 113.677 97.8983 114.74L93.0546 98.4899L98.44 114.573C94.5806 115.865 89.6171 116.459 83.5442 116.36L48.7942 115.802L49.065 98.844L66.0181 99.1201L65.7317 117.026L48.7786 116.755L49.0494 99.7971ZM31.5494 133.433L32.3827 81.6149L84.0911 82.4534C85.5077 82.4742 86.664 82.443 87.5598 82.3544C87.815 82.3284 88.0077 82.3024 88.1327 82.2763C88.0338 82.2971 87.8775 82.344 87.6692 82.4117L87.94 82.3232L88.2108 82.2399C86.8983 82.6305 85.7213 83.2971 84.6848 84.2294C83.8879 84.943 83.2994 85.6982 82.914 86.4951C82.8463 86.6461 82.7942 86.7607 82.7681 86.844C82.7942 86.7711 82.8202 86.6513 82.8515 86.4846C82.9817 85.7971 83.0546 84.8961 83.0702 83.7867C83.0911 82.6357 83.0546 81.6617 82.9609 80.8701C82.9192 80.4846 82.8879 80.2659 82.8671 80.1982C83.0546 80.7659 83.3931 81.3909 83.8879 82.0576C84.8046 83.3024 85.9244 84.2763 87.2421 84.9846C87.1275 84.9221 87.0338 84.8753 86.9556 84.8388L86.9973 84.8492C87.3567 84.9846 87.7994 85.094 88.3254 85.1721C87.6952 85.0784 86.3879 85.0159 84.4036 84.9846L32.3411 84.1461L33.1796 32.3232L104.57 33.4794C105.987 33.5003 107.143 33.469 108.034 33.3805C108.289 33.3544 108.482 33.3284 108.612 33.3024C108.508 33.3232 108.357 33.3701 108.148 33.4378L108.351 33.3701L108.56 33.3076C107.195 33.7242 105.976 34.4274 104.919 35.4065C104.133 36.1305 103.555 36.8857 103.185 37.6774C103.122 37.8128 103.081 37.9117 103.06 37.9846C103.086 37.8961 103.112 37.7607 103.148 37.5836C103.279 36.8701 103.351 35.943 103.372 34.8128C103.388 33.6565 103.351 32.6826 103.263 31.8909C103.221 31.5107 103.185 31.2867 103.164 31.219C103.351 31.7919 103.695 32.4117 104.19 33.0836C105.107 34.3232 106.221 35.2971 107.544 36.0107C107.43 35.9482 107.336 35.8961 107.258 35.8596L107.294 35.8753C107.659 36.0107 108.101 36.1149 108.628 36.193C107.997 36.0992 106.69 36.0419 104.706 36.0055L34.8463 34.8805C33.1431 34.8544 31.9192 34.9274 31.1692 35.1096C31.2942 35.0784 31.4973 34.9951 31.7786 34.8596C32.5233 34.5003 33.2369 33.9899 33.9296 33.3388C34.6379 32.6721 35.1952 31.969 35.6119 31.219C35.7994 30.8857 35.9192 30.6149 35.9817 30.4117C35.8098 31.0003 35.7108 32.0419 35.6848 33.5419L34.0963 132.125C34.0754 133.532 34.1067 134.657 34.19 135.511C34.2108 135.719 34.2317 135.865 34.2473 135.948C34.2108 135.755 34.1379 135.511 34.0286 135.214L34.1796 135.636L34.3098 136.063C33.9192 134.755 33.2577 133.578 32.3202 132.542C31.6067 131.745 30.8515 131.157 30.0546 130.771C29.9088 130.698 29.789 130.651 29.7056 130.625C29.7838 130.646 29.8983 130.672 30.065 130.703C30.7577 130.834 31.6536 130.912 32.7629 130.927L102.976 132.063C104.393 132.084 105.549 132.052 106.445 131.964C106.7 131.938 106.893 131.912 107.018 131.886C106.919 131.907 106.763 131.953 106.555 132.021L106.971 131.886C105.601 132.308 104.388 133.005 103.325 133.99C102.544 134.714 101.966 135.469 101.596 136.261C101.529 136.396 101.487 136.495 101.466 136.568C101.492 136.479 101.523 136.344 101.555 136.167C101.685 135.448 101.763 134.526 101.779 133.391C101.799 132.24 101.763 131.266 101.669 130.474C101.628 130.094 101.596 129.87 101.575 129.802C101.763 130.375 102.101 130.995 102.596 131.667C103.513 132.907 104.633 133.88 105.95 134.594C105.836 134.526 105.742 134.479 105.664 134.443L105.706 134.459C106.065 134.594 106.508 134.698 107.034 134.776C106.404 134.683 105.096 134.62 103.112 134.589L48.5025 133.709L31.5494 133.433Z" fill="white"/>
</svg>
