<svg width="92" height="107" viewBox="0 0 92 107" fill="none" xmlns="http://www.w3.org/2000/svg">
<path d="M88.632 72.0988C90.5435 76.2863 91.5487 79.8697 91.6477 82.8488C91.7362 85.4738 91.2883 88.0103 90.3039 90.453C89.4341 92.604 88.1841 94.5884 86.5487 96.3905C84.2206 98.9634 81.1164 101.14 77.2362 102.922C73.3924 104.76 69.8195 105.734 66.507 105.844C62.0174 105.995 58.0435 104.849 54.5956 102.406C52.2362 100.734 50.3508 98.8019 48.9393 96.6144L48.7258 96.2863L48.5331 95.953C47.5852 94.2863 44.4341 87.6405 39.0904 76.0103L51.7102 70.2082L53.0695 84.0311L49.3508 84.3957L35.5799 84.8592L35.1164 70.979L48.9966 70.5155L49.3924 82.4634C49.4706 84.6874 49.4393 86.5051 49.3039 87.9165C49.0591 90.4061 48.3039 92.9478 47.0331 95.5415C45.9602 97.7967 44.3924 99.7655 42.3352 101.448C40.7258 102.765 38.8872 103.823 36.8143 104.62C34.007 105.698 30.6945 106.302 26.882 106.432C22.4237 106.578 18.5383 105.974 15.2258 104.609C12.8247 103.625 10.7414 102.26 8.97057 100.526C6.97578 98.578 5.50182 96.2863 4.55391 93.6509L17.6112 88.9269L4.67891 93.9842C3.63724 91.3228 3.0487 87.9686 2.91328 83.9165L0.944531 25.2238C0.871615 22.9999 0.902865 21.1822 1.03828 19.7707C1.27786 17.2759 2.03307 14.7394 3.30391 12.1457C4.38203 9.89048 5.94974 7.92173 8.00182 6.23944C9.6112 4.92173 11.4549 3.86444 13.5227 3.06757C16.3352 1.98944 19.6477 1.38527 23.4602 1.25507L46.3039 0.489442C55.6581 0.176942 64.6216 3.09882 73.1841 9.25507C77.8352 12.6196 81.6424 17.0832 84.6112 22.6509C87.5799 28.2238 89.1789 34.3749 89.4029 41.104C89.5956 46.8801 88.7779 52.2759 86.9549 57.2863C85.0695 62.4426 82.1737 67.0572 78.2674 71.1249L68.2518 61.5051L80.8924 55.7551C82.5227 59.3384 85.0643 64.6978 88.507 71.828L88.632 72.0988ZM63.4914 83.9061C59.9602 76.5884 57.3299 71.0363 55.6112 67.2551L51.7049 58.6769L58.2362 51.8801C59.4393 50.6301 60.3143 49.2551 60.856 47.7655C61.4549 46.1353 61.7154 44.2238 61.6424 42.0363C61.5591 39.5988 61.0487 37.4894 60.1008 35.7134C59.1477 33.9322 58.106 32.6301 56.9706 31.8072C53.5279 29.3332 50.2831 28.1509 47.231 28.2499L24.3924 29.0155C23.8664 29.0363 23.4497 29.0676 23.1424 29.1197C23.1112 29.1249 23.0852 29.1301 23.0643 29.1353C23.0695 29.1353 23.0747 29.1301 23.0904 29.1249C23.2049 29.0988 23.3352 29.0572 23.481 28.9999C24.1945 28.7238 24.9029 28.3019 25.6008 27.729C26.7466 26.7915 27.6268 25.6769 28.2414 24.3905C28.455 23.953 28.6008 23.3019 28.6841 22.4374C28.6633 22.6561 28.6737 23.2707 28.7049 24.2915L30.6737 82.9842C30.6945 83.6874 30.7362 84.229 30.7935 84.6144L30.7883 84.6197C30.7362 84.3957 30.6529 84.1457 30.5487 83.8697L30.6737 84.203C30.1841 82.8592 29.4289 81.6874 28.4029 80.6822C27.6008 79.8957 26.731 79.3072 25.7987 78.9269C25.4185 78.7707 25.1216 78.6769 24.9133 78.6509C25.1372 78.6769 25.481 78.6874 25.9497 78.6717C26.4758 78.6509 26.8872 78.6197 27.1945 78.5676C27.231 78.5624 27.257 78.5572 27.2779 78.5519C27.2727 78.5519 27.2622 78.5572 27.2466 78.5572C27.1372 78.5884 27.007 78.6301 26.856 78.6874C26.1424 78.9634 25.4393 79.3853 24.7414 79.9582C23.5956 80.8957 22.7154 82.0103 22.1008 83.2967C21.8872 83.7342 21.7362 84.3853 21.6529 85.2499C21.6737 85.0311 21.6685 84.4165 21.632 83.3957L20.7674 57.5624L47.9758 56.6509L48.4393 70.5311L47.0799 56.7082L60.1945 55.4217L64.3299 64.4113C69.3352 75.3019 72.1164 81.2342 72.6685 82.1978L60.6008 89.0728L72.2622 81.5363C71.7414 80.729 71.2049 80.1301 70.6529 79.7394C69.7258 79.0832 68.731 78.6144 67.6633 78.3332C66.9289 78.1457 66.2362 78.0624 65.5799 78.0832C65.0279 78.0988 64.6164 78.1509 64.3352 78.2394C64.5799 78.1613 65.0174 77.979 65.6424 77.6769C66.0435 77.4947 66.3352 77.3436 66.5174 77.2186C66.382 77.3124 66.1945 77.4842 65.9602 77.7447C65.382 78.3853 64.9081 79.1561 64.5435 80.0624C64.0643 81.2499 63.8456 82.4894 63.8872 83.7759C63.9081 84.3124 63.9602 84.8019 64.0539 85.2342C64.0695 85.3124 64.0904 85.3801 64.1008 85.4374C64.1008 85.4374 64.1008 85.4217 64.0904 85.4009C63.9602 84.9947 63.7154 84.4061 63.3664 83.6353L63.4914 83.9061ZM34.0227 38.3801L47.5591 37.9269C46.882 37.9478 46.2674 38.078 45.7102 38.3072C45.5539 38.3749 45.4185 38.4426 45.3091 38.5103L45.3195 38.4999C44.4497 39.203 43.8039 40.0832 43.3872 41.1301C43.1372 41.7551 43.0174 42.2655 43.0331 42.6561C43.0435 43.0363 43.1893 43.5207 43.4706 44.1092C43.9341 45.0884 44.6008 45.8905 45.4654 46.5155C45.5539 46.578 45.731 46.6561 45.9914 46.7447C46.5122 46.9165 47.0643 46.9946 47.6477 46.979L34.3247 47.4217L33.8612 33.5415L47.7414 33.078L48.3664 51.7967L34.4862 52.2603L34.0227 38.3801ZM21.0695 66.604L19.5122 20.1301L46.7206 19.2134C52.0747 19.0363 57.0852 20.6353 61.7518 24.0103C64.7102 26.1561 66.9758 28.8696 68.5435 32.1561C69.9237 35.0572 70.6737 38.2446 70.7935 41.729C70.9081 45.2238 70.3716 48.4634 69.1737 51.4478C67.8091 54.8592 65.6997 57.729 62.8404 60.0519C58.4289 63.6353 53.6477 65.5155 48.4862 65.6874L34.9497 66.1405L21.0695 66.604Z" fill="white"/>
</svg>
