<svg width="93" height="89" viewBox="0 0 93 89" fill="none" xmlns="http://www.w3.org/2000/svg">
<path d="M90.4395 9.20085C91.5801 11.3363 92.2832 13.4665 92.5488 15.5863C92.6947 16.7633 92.7728 18.2686 92.7728 20.1019V68.9769C92.7728 72.7217 92.127 75.9665 90.8405 78.7061C89.9186 80.6748 88.6895 82.3623 87.1582 83.7686C85.4759 85.3206 83.5384 86.4404 81.3457 87.1331C79.0957 87.8415 76.528 88.1956 73.6374 88.1956C70.8249 88.1956 68.3874 87.8936 66.3249 87.2894C63.9238 86.5811 61.8822 85.5758 60.1999 84.2686C57.9811 82.5394 56.3405 80.2946 55.2728 77.529L55.1061 77.0915L54.9759 76.6436C54.3665 74.5811 54.0645 71.9665 54.0645 68.7998V39.2998H65.6217L74.6217 46.555C73.2988 48.1956 71.2988 50.8988 68.6165 54.6748C65.7207 58.7425 63.8509 61.3311 63.0072 62.4352L61.4134 64.5133C60.1999 66.0915 58.3822 67.5915 55.9499 69.029C52.9967 70.7686 49.804 71.6436 46.3822 71.6436C43.028 71.6436 39.9186 70.8311 37.0645 69.2113C34.6895 67.8623 32.804 66.3154 31.4082 64.5758L31.2467 64.3675L30.3822 63.18L39.7311 56.3831L30.7051 63.6071C29.4134 61.9925 26.9863 58.7165 23.4134 53.7842C20.1009 49.2113 18.3822 46.8519 18.2572 46.7008L27.1374 39.2998H38.6999V68.9769C38.6999 70.8258 38.6217 72.3415 38.4707 73.5081C38.1842 75.6904 37.429 77.8571 36.2051 79.9977C35.2311 81.7477 33.8926 83.2633 32.179 84.5498C30.8197 85.5706 29.2832 86.3727 27.5749 86.9665C25.2051 87.7894 22.4447 88.1956 19.2988 88.1956C16.1842 88.1956 13.4395 87.779 11.0697 86.9352C9.37695 86.3363 7.85091 85.5186 6.50195 84.4873C4.83529 83.2113 3.50195 81.6748 2.50195 79.8727C1.31445 77.7946 0.580079 75.6383 0.298829 73.404C0.152996 72.2269 0.0800781 70.6904 0.0800781 68.7998V19.9248C0.0800781 18.0758 0.158203 16.5602 0.309245 15.3936C0.580078 13.3258 1.278 11.2321 2.4082 9.1123L2.49674 8.94043L2.5957 8.77376C5.69987 3.39356 11.3301 0.706055 19.4759 0.706055C22.3145 0.706055 24.8978 1.09147 27.2259 1.86751C30.3978 2.92481 32.8509 4.47168 34.5957 6.50293L25.8197 14.0238L33.9915 5.85189L35.0697 6.93001L55.5332 33.7894L46.3353 40.7946L37.1165 33.8258C47.1478 20.5498 53.8665 11.7633 57.2676 7.46647L66.3301 14.6383L56.5436 8.4821C59.8092 3.2946 65.4342 0.706055 73.4186 0.706055C76.5853 0.706055 79.3561 1.11751 81.7207 1.94043C83.4655 2.54981 85.0228 3.37793 86.3926 4.43001C88.1374 5.77376 89.5072 7.40397 90.502 9.32064L90.4395 9.20085ZM69.9811 19.9613C70.5645 21.0863 71.3405 22.0238 72.3145 22.7686C72.9134 23.2269 73.5124 23.5602 74.1165 23.7738C74.2467 23.8206 74.3613 23.8519 74.4551 23.8727C74.4707 23.8779 74.4811 23.8779 74.4863 23.8779C74.4707 23.8779 74.4551 23.8727 74.429 23.8727C74.179 23.8363 73.8405 23.8206 73.4186 23.8206C72.9863 23.8206 72.6374 23.8415 72.3665 23.8727C72.3197 23.8779 72.2936 23.8831 72.278 23.8883C72.3457 23.8727 72.429 23.8467 72.5228 23.8154C73.0072 23.654 73.502 23.3936 74.0072 23.0394C74.8405 22.4456 75.5436 21.7008 76.1113 20.7998L75.778 21.3258L75.3926 21.8154C72.1009 25.9769 65.4863 34.6227 55.5592 47.7633L46.377 59.9196L17.153 21.555L26.3457 14.555L18.1738 22.7269L17.3301 21.8831L17.0436 21.5446C17.8197 22.4508 18.6634 23.1488 19.5853 23.6331C19.7259 23.7113 19.8561 23.7686 19.9655 23.8154C19.9759 23.8206 19.9863 23.8258 19.9863 23.8258C19.9707 23.8206 19.9447 23.8102 19.9186 23.7998C19.9863 23.8258 20.0488 23.8415 20.1009 23.8571L20.0905 23.8519C19.9395 23.8311 19.7311 23.8206 19.4759 23.8206C19.0436 23.8206 18.6895 23.8363 18.429 23.8727C18.3978 23.8779 18.3717 23.8779 18.3509 23.8831H18.3561C18.4342 23.8623 18.5332 23.8363 18.6426 23.7998C19.1895 23.6175 19.7415 23.3258 20.2988 22.9196C21.2415 22.2425 22.0176 21.3779 22.6217 20.3311L12.6061 14.555L22.8092 19.9925C22.9967 19.6331 23.1374 19.0967 23.2311 18.3831C23.2103 18.5602 23.1999 19.0758 23.1999 19.9248V68.7998C23.1999 69.7321 23.2103 70.3102 23.2415 70.5394C23.1374 69.7113 22.9603 69.0811 22.7103 68.6488C22.153 67.6383 21.429 66.7946 20.5384 66.1175C19.9707 65.68 19.3926 65.3571 18.8092 65.154C18.6165 65.0863 18.4915 65.0446 18.429 65.0394C18.6374 65.0654 18.929 65.0811 19.2988 65.0811C19.7155 65.0811 20.0488 65.0654 20.2936 65.029C20.3197 65.029 20.3405 65.0238 20.3561 65.0238C20.3509 65.0238 20.3405 65.0238 20.3301 65.029C20.2415 65.0498 20.1322 65.0811 20.0124 65.1227C19.4447 65.3154 18.877 65.6279 18.3092 66.055C17.3926 66.7425 16.6686 67.5654 16.1322 68.5238C15.8509 69.0238 15.653 69.6904 15.5436 70.5186C15.5697 70.3415 15.5801 69.8258 15.5801 68.9769V7.37272L36.0176 31.8988C36.4811 32.4508 38.5228 35.2269 42.1374 40.2269C45.4915 44.8623 47.6999 47.8415 48.7572 49.1644L48.9238 49.3727L49.7832 50.555L40.4342 57.3519L49.4603 50.1331C49.1217 49.7061 48.7832 49.3623 48.4447 49.1019C48.3978 49.0654 48.3613 49.0394 48.3353 49.0238C48.3665 49.0446 48.4134 49.0706 48.4759 49.1071C47.7936 48.7165 47.0957 48.5238 46.3822 48.5238C45.6009 48.5238 44.877 48.7217 44.2103 49.1123C44.4447 48.9717 44.5853 48.8883 44.6322 48.8519C44.1113 49.2321 43.5905 49.7686 43.0592 50.4561L44.6426 48.3936C45.3249 47.5029 47.0332 45.1279 49.7728 41.2738C52.7259 37.1227 55.0124 34.0446 56.627 32.0446L77.1842 6.5498V68.7998C77.1842 69.4613 77.1999 69.9873 77.2415 70.3831C77.2467 70.4665 77.252 70.5238 77.2572 70.5446C77.2363 70.43 77.2051 70.2894 77.153 70.1175L66.0645 73.3779L76.8509 69.2321C76.377 67.9925 75.5592 66.9248 74.3926 66.0186C73.9603 65.68 73.5332 65.4144 73.1113 65.2165C72.9759 65.1592 72.8926 65.1227 72.8457 65.1071C72.7259 65.0706 72.6217 65.0446 72.5332 65.029H72.5228C72.5384 65.029 72.5645 65.0342 72.5957 65.0394C72.8561 65.0654 73.2051 65.0811 73.6374 65.0811C74.0072 65.0811 74.3092 65.0654 74.5384 65.0394C74.5645 65.0342 74.5853 65.029 74.6061 65.029C74.5436 65.0394 74.4707 65.0602 74.3822 65.0863C73.304 65.43 72.3405 65.9873 71.4967 66.7686C70.804 67.404 70.2728 68.1123 69.9082 68.8883C69.7467 69.2321 69.6478 69.5081 69.6113 69.7269C69.6374 69.5758 69.653 69.3258 69.653 68.9769V20.1019C69.653 19.2321 69.6374 18.68 69.6113 18.4508C69.6999 19.1592 69.8405 19.7061 70.0436 20.0811L69.9811 19.9613Z" fill="white"/>
</svg>
