<svg width="117" height="140" viewBox="0 0 117 140" fill="none" xmlns="http://www.w3.org/2000/svg">
<path d="M104.454 77.4942C109.465 87.1348 110.84 96.989 108.579 107.057C105.746 118.572 99.6 127.369 90.1417 133.453C80.6938 139.536 70.475 141.338 59.475 138.869L13.8084 128.598C5.6938 126.775 1.43859 123.515 1.03754 118.807C0.797961 116.697 1.13129 113.614 2.03754 109.557L23.725 13.1609C24.35 10.3848 24.8813 8.38483 25.3292 7.16087C25.7875 5.9265 26.673 4.54629 27.9959 3.01504C30.3136 0.254623 35.1834 -0.297459 42.6 1.36921L86.3709 11.2025C97.0219 13.5932 105.105 19.3015 110.621 28.3275C116.439 37.5359 118.163 47.4109 115.788 57.9525C114.064 65.5932 110.288 72.1088 104.454 77.4942ZM78.2459 98.39C78.8709 95.614 79.0428 93.3432 78.7667 91.5775C78.4855 89.8171 77.6834 88.4213 76.35 87.39C74.2355 85.963 71.1 84.7807 66.9334 83.8484C62.7667 82.9057 59.8188 81.3848 58.1 79.2859C56.3761 77.1921 56.0792 73.6296 57.2042 68.5984C58.3396 63.5567 60.1678 60.4734 62.6834 59.3484C65.1938 58.213 68.9386 58.1973 73.9125 59.3067C78.5375 60.3484 81.5844 59.7598 83.0584 57.5359C83.6938 56.3432 84.3344 54.3015 84.975 51.4109C85.6261 48.5098 85.1261 46.265 83.475 44.6817C81.8344 43.0984 79.1053 41.8796 75.2875 41.015L50.975 35.5567L36.1834 101.348L64.6625 107.744C71.9542 109.385 76.4803 106.265 78.2459 98.39Z" fill="#28499A"/>
</svg>
