<svg width="24" height="78" viewBox="0 0 24 78" fill="none" xmlns="http://www.w3.org/2000/svg">
<path d="M4.49519 9.11355C4.62019 7.50417 4.75561 6.29584 4.91186 5.48855C5.07852 4.68646 5.48477 3.77501 6.14102 2.75938C7.2504 0.941672 10.0577 0.191672 14.5577 0.50938C19.4848 0.873964 22.3181 2.37917 23.0577 5.03021C23.3181 6.25417 23.3598 8.09271 23.1827 10.551L18.9535 69.2385C18.8285 70.9365 18.6827 72.1708 18.516 72.9469C18.3598 73.7125 17.9639 74.5927 17.3285 75.5927C16.2035 77.426 13.391 78.1813 8.89102 77.8635C3.97436 77.499 1.1879 75.9625 0.536856 73.2385C0.187897 72.0875 0.0993559 70.275 0.266023 67.801L4.49519 9.11355Z" fill="#FF8461"/>
</svg>
