<svg width="97" height="134" viewBox="0 0 97 134" fill="none" xmlns="http://www.w3.org/2000/svg">
<path d="M9.00595 117.244C5.63095 113.733 3.81845 110.473 3.56845 107.473C3.31845 104.463 5.52678 100.265 10.1934 94.8897C12.9122 91.8376 15.9226 90.1762 19.2143 89.9105C22.5164 89.6345 27.3497 92.2022 33.7143 97.6189C35.532 99.4835 38.0476 101.202 41.2559 102.786C44.4747 104.358 47.381 105.03 49.9643 104.806C60.9226 103.921 66.0372 98.9939 65.3185 90.0355C65.0945 87.3272 63.407 85.1918 60.256 83.6189C57.0997 82.0355 53.256 81.0147 48.7143 80.5564C44.1726 80.0876 39.2247 79.1553 33.8809 77.7647C28.532 76.3637 23.5164 74.6085 18.8393 72.4939C14.1726 70.3689 10.1153 66.7543 6.67262 61.6397C3.2247 56.5303 1.20387 50.2126 0.589283 42.6814C-0.254467 32.3064 2.86532 22.947 9.96428 14.598C17.058 6.25429 27.2612 1.53554 40.5684 0.452202C47.6362 -0.131131 54.1622 0.254286 60.1518 1.59804C66.1362 2.94699 70.3237 4.48345 72.7143 6.2022L77.381 9.16054C81.308 12.2855 83.3705 15.0303 83.5685 17.3897C83.7612 19.7543 82.6153 23.1137 80.131 27.473C76.5997 33.6814 72.7195 36.9626 68.4851 37.3064C66.0112 37.5147 62.8497 36.5876 59.006 34.5147C58.6414 34.3064 57.9122 33.7803 56.8185 32.9314C55.7351 32.072 54.7612 31.3793 53.9018 30.848C51.3028 29.5147 48.0893 29.0095 44.256 29.3272C40.433 29.6345 37.3289 30.8064 34.9434 32.848C32.5528 34.8793 31.4903 37.5147 31.7559 40.7647C32.032 44.0043 33.7559 46.5043 36.9226 48.2647C40.0893 50.0147 43.933 51.0668 48.4643 51.4105C52.9903 51.7439 57.9695 52.4314 63.4018 53.473C68.8289 54.5147 73.8705 55.9105 78.5268 57.6605C83.1778 59.4105 87.2143 62.7855 90.631 67.7855C94.058 72.7855 96.0893 79.1189 96.7143 86.7855C97.3393 94.4418 96.3601 101.306 93.7768 107.39C91.1935 113.473 87.5528 118.306 82.8601 121.89C73.8185 128.921 63.881 132.879 53.0476 133.765C47.506 134.213 42.1987 133.952 37.1309 132.994C32.0737 132.036 27.933 130.692 24.7143 128.952C18.157 125.692 13.4955 122.39 10.7351 119.056L9.00595 117.244Z" fill="#28499A"/>
</svg>
