<svg width="94" height="139" viewBox="0 0 94 139" fill="none" xmlns="http://www.w3.org/2000/svg">
<path d="M33.4411 105.892L81.5244 111.726C85.3838 112.2 88.1494 112.986 89.8161 114.08C91.4932 115.179 92.5088 116.705 92.8578 118.663C93.2172 120.611 93.2015 123.142 92.8161 126.267C92.4411 129.392 91.8422 131.856 91.0244 133.663C90.2172 135.481 89.0557 136.668 87.5453 137.226C85.1807 138.111 82.0557 138.319 78.1703 137.851L14.5661 130.142C6.30048 129.142 1.73798 126.309 0.878609 121.642C0.420276 119.684 0.441109 116.653 0.941109 112.538L12.8578 14.2881C13.1755 11.5797 13.5036 9.5589 13.8369 8.22557C14.1703 6.89223 14.9203 5.40786 16.0869 3.76723C18.113 0.782858 22.8994 -0.253601 30.4411 0.663066C38.6911 1.66307 43.3161 4.42869 44.3161 8.95473C44.6599 11.0276 44.5869 14.1214 44.0869 18.2464L33.4411 105.892Z" fill="#28499A"/>
</svg>
