<svg width="125" height="136" viewBox="0 0 125 136" fill="none" xmlns="http://www.w3.org/2000/svg">
<path d="M11.9162 10.1562L110.416 0.614561C114.192 0.255186 117.01 0.437477 118.875 1.15623C120.734 1.88019 122.046 3.15623 122.812 4.98956C123.588 6.81248 124.125 9.25519 124.416 12.3229C124.718 15.3958 124.666 17.875 124.25 19.7604C123.833 21.651 122.947 23.0208 121.604 23.8646C119.588 25.1302 116.63 25.9479 112.729 26.3229L78.8954 29.6146L87.5204 118.719C87.7808 121.458 87.885 123.484 87.8329 124.802C87.7912 126.109 87.4058 127.656 86.6871 129.448C85.9787 131.229 84.5308 132.589 82.3537 133.531C80.1714 134.464 77.2496 135.109 73.5829 135.469C69.9267 135.818 66.9683 135.74 64.7079 135.24C62.4579 134.729 60.8017 133.667 59.7496 132.052C58.7079 130.443 58.0256 128.964 57.7079 127.615C57.4006 126.271 57.1142 124.234 56.8537 121.51L48.2496 32.5729L14.2496 35.8646C10.4683 36.2396 7.65582 36.0729 5.79124 35.3646C3.93186 34.6458 2.61415 33.375 1.83291 31.5521C1.05686 29.7187 0.520405 27.2708 0.228739 24.1979C-0.0733439 21.1146 -0.0108453 18.6354 0.416239 16.7604C0.832905 14.875 1.71832 13.5052 3.06207 12.6562C5.0777 11.3802 8.03082 10.5469 11.9162 10.1562Z" fill="#28499A"/>
</svg>
