<svg width="148" height="138" viewBox="0 0 148 138" fill="none" xmlns="http://www.w3.org/2000/svg">
<path d="M146.144 14.209C146.962 16.058 147.415 17.6986 147.498 19.1257C147.582 20.5424 147.524 22.6153 147.332 25.334L140.352 123.501C139.769 131.626 137.186 136.235 132.602 137.334C130.321 137.876 127.477 138.022 124.061 137.772C120.644 137.532 117.946 137.048 115.977 136.313C114.019 135.589 112.529 134.777 111.519 133.876C110.519 132.985 109.779 131.756 109.311 130.188C108.852 128.136 108.769 125.042 109.061 120.917L113.269 61.6465C110.087 65.0944 105.378 70.5996 99.144 78.1674C92.9045 85.7246 88.9461 90.4538 87.269 92.3549C85.6024 94.2455 84.4409 95.5528 83.7899 96.2715C83.1492 96.9955 81.6284 97.9538 79.2274 99.1465C76.8367 100.344 74.3159 100.85 71.6649 100.667C69.0086 100.475 66.6336 99.683 64.5399 98.2924C62.4565 96.8913 60.9826 95.5632 60.1232 94.3132L58.8315 92.2924C56.6909 89.1674 52.4826 82.5528 46.2065 72.4382C39.9253 62.3288 36.519 56.8965 35.9774 56.1465L31.7482 115.772C31.5503 118.48 31.3159 120.511 31.0399 121.855C30.7586 123.204 30.1024 124.678 29.0607 126.272C27.0607 129.313 22.3419 130.568 14.9149 130.042C7.73257 129.527 3.36278 127.626 1.8107 124.334C0.977364 122.6 0.519031 121.016 0.435697 119.584C0.36278 118.157 0.425281 116.032 0.623197 113.209L7.60236 15.0424C7.79507 12.3236 8.02945 10.2924 8.3107 8.95902C8.58674 7.61527 9.25862 6.09443 10.3315 4.39652C12.3315 1.45381 17.0399 0.245477 24.4565 0.771518C27.6492 0.995477 30.3628 1.5736 32.6024 2.50068C34.8524 3.43298 36.3003 4.32881 36.9565 5.18818L37.9357 6.35485L74.3315 61.9174C96.2586 36.808 110.884 20.2455 118.207 12.2299C120.441 9.18818 125.3 7.93818 132.79 8.47985C140.29 9.0111 144.738 10.9174 146.144 14.209Z" fill="#28499A"/>
</svg>
