<svg width="58" height="81" viewBox="0 0 58 81" fill="none" xmlns="http://www.w3.org/2000/svg">
<path d="M3.1819 66.25C1.5569 63.8334 0.817322 61.7292 0.973571 59.9375C1.14024 58.1459 2.8694 55.9167 6.16107 53.25C8.06211 51.7084 9.99961 51.0313 11.9736 51.2084C13.9423 51.3907 16.5257 53.3959 19.7236 57.2292C20.609 58.5105 21.9163 59.7813 23.6402 61.0417C25.359 62.2917 26.9944 62.9896 28.5361 63.125C35.0621 63.724 38.5673 61.3542 39.0569 56.0209C39.2079 54.3959 38.4371 52.9584 36.7444 51.7084C35.0465 50.4584 32.8902 49.4688 30.2652 48.7292C27.6402 47.9948 24.8277 46.948 21.8277 45.5834C18.8382 44.2084 16.0777 42.6667 13.5361 40.9584C10.9944 39.25 8.97357 36.7188 7.47357 33.3542C5.97357 29.9948 5.42149 26.0573 5.82774 21.5417C6.37982 15.3646 9.16628 10.1823 14.1819 6.00005C19.2079 1.80734 25.6871 0.072965 33.6194 0.791714C37.8382 1.16671 41.6402 2.06255 45.0152 3.47921C48.4007 4.88546 50.7132 6.20317 51.9527 7.43755L54.3902 9.66671C56.3902 11.9167 57.3277 13.75 57.2027 15.1667C57.0777 16.573 56.0621 18.4271 54.1611 20.7292C51.4527 24.0209 48.8277 25.5573 46.2861 25.3334C44.8277 25.198 43.0621 24.323 40.9944 22.7084C40.7965 22.5573 40.4319 22.1771 39.8902 21.5625C39.3486 20.9532 38.8382 20.448 38.3694 20.0417C36.9632 18.9896 35.1246 18.3542 32.8486 18.1459C30.5673 17.9375 28.6246 18.3125 27.0152 19.2709C25.4163 20.2292 24.5257 21.6771 24.3486 23.6042C24.1819 25.5365 24.9371 27.1823 26.6194 28.5417C28.3121 29.9063 30.4736 30.9167 33.0986 31.5834C35.7236 32.2396 38.5777 33.1459 41.6611 34.3125C44.7444 35.4792 47.5621 36.8125 50.1194 38.3125C52.6715 39.8125 54.7027 42.2084 56.2027 45.5C57.7132 48.7813 58.2652 52.7032 57.8486 57.2709C57.4319 61.8438 56.1507 65.7813 54.0152 69.0834C51.8902 72.3907 49.2652 74.8698 46.1402 76.5209C40.0986 79.7292 33.8486 81.0417 27.3902 80.4584C24.0829 80.1511 20.9944 79.4584 18.1194 78.375C15.2548 77.3021 12.9632 76.099 11.2444 74.75C7.70274 72.1563 5.29649 69.7396 4.03607 67.5L3.1819 66.25Z" fill="#FF8461"/>
</svg>
