<svg width="118" height="135" viewBox="0 0 118 135" fill="none" xmlns="http://www.w3.org/2000/svg">
<path d="M84.8567 5.85494C85.966 3.91223 87.6275 2.53723 89.8358 1.72994C92.0546 0.912232 94.8567 0.427855 98.2317 0.271606C101.617 0.120565 104.336 0.302855 106.378 0.813273C108.419 1.3289 109.987 1.97473 111.086 2.75077C112.18 3.53202 113.008 4.74557 113.565 6.39661C114.357 8.37057 114.841 11.4279 115.023 15.5633L117.378 69.2716C118.055 84.9279 113.82 99.3706 104.669 112.605C100.18 118.845 94.2838 123.996 86.9817 128.063C79.6744 132.136 71.4869 134.371 62.4192 134.772C53.3619 135.162 45.0494 133.621 37.4817 130.147C29.9087 126.662 23.6744 121.949 18.7733 116.001C8.63271 103.85 3.21604 89.8289 2.52333 73.9383L0.189997 20.4174C0.0649974 17.5737 0.0545814 15.4695 0.169164 14.1049C0.278539 12.7299 0.773331 11.1362 1.64833 9.31327C2.52333 7.49557 4.065 6.18307 6.27333 5.37577C8.49208 4.55807 11.5025 4.06327 15.2942 3.89661C19.0858 3.72994 22.1171 3.95911 24.3983 4.58411C26.69 5.19869 28.2942 6.37057 29.2108 8.10494C30.7369 10.7872 31.6067 14.4904 31.815 19.2091L34.1483 72.5633C34.466 79.7872 36.5494 86.5841 40.3983 92.9591C42.315 96.1987 45.091 98.7456 48.7317 100.605C52.3671 102.47 56.6275 103.287 61.5025 103.063C70.1379 102.688 76.4504 99.2091 80.44 92.6258C84.44 86.032 86.2525 78.532 85.8775 70.1258L83.5025 15.7091C83.3046 11.0841 83.7577 7.80286 84.8567 5.85494Z" fill="#28499A"/>
</svg>
