<svg width="90" height="106" viewBox="0 0 90 106" fill="none" xmlns="http://www.w3.org/2000/svg">
<path d="M80.33 40.9346C83.4602 44.6065 85.8352 48.5648 87.4602 52.8148C89.1216 57.1482 89.9654 61.6898 89.9914 66.4398C89.9185 71.8773 88.9602 76.8773 87.1269 81.4398C85.2571 86.0961 82.5175 90.2732 78.9081 93.9763C75.2779 97.7055 71.1894 100.539 66.6321 102.476C62.08 104.409 57.205 105.388 51.9966 105.419L24.1685 105.586C19.6581 105.612 15.7519 104.872 12.4446 103.362C10.0644 102.278 8.01748 100.82 6.29873 98.9971C4.40289 96.9763 3.02268 94.643 2.16852 91.9867L15.3873 87.7263L2.31956 92.4242C1.35081 89.7367 0.856018 86.3669 0.829977 82.3096L0.486225 23.5857C0.4706 21.268 0.553933 19.4034 0.736225 18.0076C1.05393 15.5857 1.87685 13.1117 3.20498 10.5805C4.34039 8.35651 5.96018 6.42943 8.06435 4.80443C9.71018 3.5336 11.5748 2.52839 13.6685 1.7888C16.5123 0.783594 19.8404 0.273179 23.6529 0.252345L50.3144 0.0908869C55.4081 0.0648455 60.1685 0.955471 64.6008 2.76797C69.0956 4.6013 73.1112 7.32526 76.6529 10.9346C80.1581 14.3982 82.8456 18.3461 84.7258 22.7732C86.606 27.2263 87.5644 31.9815 87.5956 37.0388C87.6425 44.5857 85.5175 51.4971 81.2362 57.7784L69.7623 49.9503L80.33 40.9346ZM59.1946 58.9607L52.3091 50.8878L58.2883 42.1221C59.3196 40.6117 59.83 38.9711 59.8196 37.2055C59.8091 35.8461 59.5852 34.6482 59.1477 33.6065C58.6998 32.5492 57.9237 31.4763 56.8144 30.3773C55.955 29.5023 55.0487 28.8669 54.0956 28.4763C53.08 28.0648 51.8769 27.8617 50.481 27.8669L23.8144 28.0284C23.2935 28.0284 22.8769 28.0544 22.5644 28.0961C22.5331 28.1013 22.5071 28.1013 22.4862 28.1065C22.4914 28.1065 22.5019 28.1065 22.5123 28.1013C22.6269 28.0753 22.7571 28.0336 22.9081 27.9815C23.6269 27.7263 24.3456 27.3253 25.0591 26.7732C26.231 25.8669 27.1425 24.7784 27.7935 23.5076C27.8144 23.4659 27.8508 23.3669 27.9029 23.2211C28.0748 22.7367 28.205 22.2003 28.2831 21.5961C28.2623 21.7523 28.2519 22.3565 28.2623 23.4242L28.606 82.1482C28.6112 82.8513 28.6373 83.393 28.6841 83.7836H28.6789C28.6321 83.5596 28.5539 83.3096 28.455 83.0284L28.5331 83.2471L28.606 83.4659C28.1789 82.1482 27.4914 80.9815 26.5279 79.9659C25.7519 79.1378 24.9029 78.5128 23.9706 78.0909C23.58 77.9086 23.2623 77.7992 23.0279 77.7628C23.231 77.794 23.5591 77.8096 24.0019 77.8096L51.83 77.643C53.3248 77.6378 54.6373 77.393 55.7675 76.9086C56.8977 76.4294 57.9758 75.6638 59.0071 74.6013C60.0644 73.518 60.8456 72.3409 61.356 71.0753C61.9029 69.7159 62.1894 68.2263 62.2154 66.6065C62.205 65.2211 61.9758 63.9294 61.5175 62.7419C61.0331 61.4659 60.2571 60.2055 59.1946 58.9607ZM43.481 65.6586C43.481 65.5284 43.4758 65.4242 43.4706 65.3409C43.4706 65.3253 43.4706 65.3148 43.4706 65.3096C43.4706 65.3253 43.4706 65.3461 43.4758 65.3721C43.5383 65.7628 43.6633 66.2107 43.8664 66.7159C44.3144 67.8409 44.9706 68.8617 45.8352 69.7836C46.7623 70.7784 47.8352 71.5492 49.0487 72.0961L54.7935 59.4555L49.7102 72.3773C49.9446 72.4711 50.1529 72.5388 50.3404 72.5857C50.3716 72.5909 50.4029 72.6013 50.4237 72.6013C50.4133 72.6013 50.3925 72.5961 50.3664 72.5961C50.0331 72.5492 49.5539 72.5284 48.9446 72.5336C43.231 72.5648 38.4758 71.1221 34.6789 68.2107C29.8144 64.4711 27.356 58.7992 27.3144 51.2055C27.2935 48.2159 27.6633 45.5232 28.4237 43.1221C29.6216 39.3201 31.705 36.2784 34.6737 34.0023C38.4446 31.1169 43.3977 29.6534 49.5383 29.6221H49.5331C49.4341 29.6273 49.3248 29.643 49.1946 29.6638C48.6112 29.7628 48.0019 29.9555 47.3612 30.2419C46.2206 30.7471 45.1841 31.4659 44.2571 32.393C43.106 33.5388 42.2466 34.8669 41.6789 36.3878L54.6841 41.2576L41.2675 37.6794C41.1477 38.1117 41.0852 38.4346 41.0696 38.6482C41.0852 38.3982 41.0956 38.0232 41.0904 37.5284C41.1008 38.7159 41.4029 39.9398 42.0019 41.1951C42.9133 43.0961 44.2727 44.5909 46.0852 45.669C46.8873 46.1534 47.6425 46.4607 48.356 46.6013C48.4133 46.6117 48.4602 46.6169 48.5019 46.6221H48.4914C48.3769 46.6169 48.231 46.6117 48.0487 46.6117L33.2362 46.7003L33.1581 32.8096L47.0435 32.7315L47.2831 72.8305L33.3925 72.9138L33.3091 59.0232L50.6633 58.9242C50.1581 58.9242 49.5644 59.0544 48.8821 59.3044C47.5904 59.7732 46.4602 60.544 45.4914 61.6065C44.6216 62.5544 44.0123 63.5909 43.6789 64.7055C43.5435 65.143 43.481 65.4607 43.481 65.6586ZM71.2571 65.4971C71.2935 71.5232 69.5331 76.4763 65.9758 80.3617C63.9029 82.6273 61.3873 84.3044 58.4394 85.3826C56.0904 86.2419 53.5539 86.6846 50.8248 86.7003L19.5852 86.8826L19.1841 19.0076L47.8873 18.8357C52.8039 18.8096 56.955 19.8044 60.3404 21.8305C63.3196 23.6117 65.5591 26.0701 67.0591 29.2003C68.2466 31.6898 68.8508 34.4086 68.8664 37.3617C68.8873 40.3669 68.6321 42.8565 68.106 44.8305L67.9289 45.4867L67.6946 46.1221C66.8456 48.3826 65.5696 50.3669 63.856 52.0701C62.3664 53.5544 60.6269 54.7419 58.6425 55.6221C56.0279 56.7836 53.0487 57.3773 49.6998 57.393C49.3821 57.3982 49.1164 57.4086 48.9029 57.4294L48.8821 57.4242C49.7414 57.2263 50.6373 56.768 51.5696 56.0544C53.2362 54.7732 54.356 53.2471 54.9133 51.4711C55.0071 51.169 55.0696 50.9086 55.0956 50.7003C55.0904 50.7523 55.0852 50.8617 55.0904 51.0388C55.0904 51.2315 55.0956 51.3617 55.1008 51.4294C55.08 51.2419 55.0175 51.0023 54.9289 50.7159C54.3716 48.9659 53.2623 47.4555 51.6008 46.1846C50.7258 45.5076 49.8352 45.0544 48.9341 44.8305C48.7675 44.7888 48.6321 44.7576 48.5279 44.7471C48.5748 44.7523 48.6581 44.7576 48.7831 44.7576C53.1008 44.7315 56.8039 45.3201 59.8769 46.5284L60.2102 46.6638L60.5383 46.8096C62.6737 47.7784 64.5279 49.1117 66.1164 50.8044C67.6321 52.4242 68.8144 54.294 69.6581 56.4034C70.705 59.018 71.2362 62.0492 71.2571 65.4971Z" fill="white"/>
</svg>
