<svg width="58" height="65" viewBox="0 0 58 65" fill="none" xmlns="http://www.w3.org/2000/svg">
<path d="M42.3633 2.87272C42.931 1.84668 43.7695 1.15918 44.8841 0.810221C45.9935 0.450847 47.3841 0.268555 49.0508 0.268555C50.7279 0.268555 52.082 0.414388 53.1133 0.706055C54.1393 0.997721 54.9049 1.35189 55.4049 1.76855C55.9049 2.17481 56.2695 2.78418 56.5091 3.60189C56.8529 4.54981 57.0299 6.04981 57.0299 8.10189V56.9769C57.0299 58.3831 56.9883 59.4092 56.9049 60.0602C56.8216 60.7008 56.5404 61.4665 56.0716 62.3519C55.2487 63.9352 52.957 64.7269 49.1966 64.7269C46.9049 64.7269 45.3112 64.555 44.4258 64.2061C43.5508 63.8467 42.8216 63.2842 42.2383 62.5186C29.0299 44.9092 20.3424 33.404 16.1758 27.9977V56.9769C16.1758 58.3831 16.1237 59.4092 16.0299 60.0602C15.9466 60.7008 15.6758 61.4665 15.2174 62.3519C14.3841 63.9352 12.0924 64.7269 8.34245 64.7269C4.70182 64.7269 2.47266 63.9352 1.65495 62.3519C1.18099 61.4665 0.894532 60.6748 0.800781 59.9769C0.717448 59.2686 0.675781 58.2425 0.675781 56.8936V7.74772C0.675781 5.52897 0.951823 3.90397 1.50911 2.87272C2.0612 1.84668 2.89453 1.15918 4.00911 0.810221C5.13411 0.450847 6.57682 0.268555 8.34245 0.268555C10.1029 0.268555 11.4987 0.430013 12.5299 0.747721C13.556 1.07064 14.2695 1.43522 14.6758 1.85189C14.9102 2.03418 15.582 2.79981 16.6966 4.14355C29.082 20.9925 37.3633 32.1175 41.5299 37.5186V7.74772C41.5299 5.52897 41.806 3.90397 42.3633 2.87272Z" fill="#FF8461"/>
</svg>
