<svg width="131" height="168" viewBox="0 0 131 168" fill="none" xmlns="http://www.w3.org/2000/svg">
<path d="M13.7456 145.968C7.59979 139.551 4.24041 132.837 3.66749 125.832C3.27687 121.046 4.40187 116.15 7.0477 111.145C8.76124 107.9 11.2144 104.442 14.4019 100.775C20.1935 94.2281 27.006 90.6343 34.8394 89.9989C39.7925 89.5927 44.9383 90.8114 50.2769 93.6499C53.7769 95.5093 57.5842 98.1864 61.6988 101.686L62.3238 102.212L62.8967 102.801C63.3394 103.259 64.2873 103.843 65.7352 104.556C66.1935 104.78 66.5217 104.916 66.73 104.968C66.4488 104.9 66.0685 104.884 65.5894 104.926C66.8238 104.822 67.7352 104.666 68.3185 104.457C68.0685 104.546 67.7144 104.811 67.2613 105.249C66.4696 106.009 65.9123 106.9 65.5946 107.905C65.5008 108.197 65.4435 108.452 65.4227 108.671V108.686C65.4227 108.619 65.4175 108.53 65.4123 108.431C65.5738 110.468 66.2873 112.291 67.5529 113.895C68.2665 114.806 68.9696 115.431 69.6467 115.775C68.355 115.124 66.4696 114.676 63.9956 114.426C58.5685 113.879 52.7613 112.785 46.5685 111.16C40.3237 109.515 34.4331 107.447 28.8967 104.952C21.2821 101.515 14.855 95.9052 9.61541 88.1187C4.52687 80.551 1.55291 71.5302 0.698744 61.0458C0.0841614 53.5562 0.927911 46.3791 3.21958 39.5041C5.46958 32.7541 9.07895 26.4572 14.0373 20.6135C24.1571 8.69682 38.204 2.00932 56.1883 0.540573C64.98 -0.178177 73.2092 0.332239 80.881 2.06141C89.0738 3.91557 95.2925 6.34786 99.5373 9.3687L89.704 23.1812L98.8342 8.89474L104.256 12.3583L104.938 12.8947C112.709 19.0666 116.891 25.7697 117.485 33.0145C117.959 38.8635 116.084 45.4885 111.85 52.8843C109.115 57.7072 106.006 61.5927 102.522 64.5406C97.8133 68.5197 92.5946 70.7437 86.8602 71.2072C81.0685 71.6812 74.7821 70.1031 68.0008 66.4729C66.6467 65.7229 65.0633 64.6239 63.2456 63.1708C62.7665 62.7906 62.4175 62.5302 62.1988 62.3999L70.9019 47.8479L63.1779 62.9416C63.48 63.0979 63.7144 63.1916 63.8863 63.2177C63.6154 63.176 63.1988 63.176 62.6363 63.2229C62.3029 63.2489 62.105 63.2749 62.0425 63.301C62.3342 63.1916 62.631 63.0041 62.9383 62.7437C63.8602 61.952 64.579 60.926 65.0842 59.6656C65.5529 58.5093 65.7404 57.4104 65.6571 56.3687C65.5425 54.9885 65.0633 53.6864 64.2196 52.452C63.5738 51.5093 62.8758 50.8322 62.131 50.4208C63.1363 50.9729 64.6675 51.3322 66.7352 51.4833C71.9123 51.8739 77.5321 52.6552 83.5894 53.8166C89.9644 55.0406 95.9331 56.702 101.496 58.801C109.464 61.8062 116.168 67.2749 121.605 75.1968C126.746 82.676 129.746 91.7437 130.615 102.4C131.464 112.837 130.053 122.384 126.371 131.03C122.615 139.858 117.209 146.968 110.152 152.363C98.5269 161.4 85.6206 166.499 71.4175 167.655C64.3654 168.228 57.5633 167.9 51.0113 166.671C44.204 165.39 38.4071 163.447 33.6206 160.848L41.7144 145.947L34.1623 161.129C25.4644 156.801 18.9748 152.051 14.6883 146.879L27.7404 136.056L15.5373 147.827L13.7873 146.009L13.7456 145.968ZM38.204 122.473L40.3915 124.744L40.7977 125.233C41.2248 125.749 41.9956 126.4 43.105 127.186C44.7196 128.332 46.7769 129.525 49.2717 130.765L49.5425 130.9L49.8133 131.046C51.4748 131.952 53.9644 132.718 57.2769 133.337C60.8446 134.009 64.6415 134.181 68.6623 133.853C76.1415 133.244 83.1102 130.431 89.5529 125.421C91.8758 123.645 93.7456 121.093 95.1675 117.754C96.6623 114.238 97.2092 110.035 96.8133 105.16C96.4331 100.499 95.3758 96.9104 93.6519 94.3947C92.2248 92.3166 90.8446 91.0302 89.5165 90.5249C85.7717 89.1135 81.6675 87.9781 77.1988 87.1239C72.4123 86.202 68.0738 85.5979 64.1831 85.3062C57.1779 84.7749 51.0113 83.0354 45.6779 80.0718C41.7665 77.8999 38.6258 75.0979 36.2612 71.65C33.6987 67.9208 32.23 63.7437 31.855 59.1291C31.506 54.8479 32.0946 50.8114 33.6206 47.0145C35.1883 43.1135 37.6258 39.7541 40.9331 36.9364C46.0946 32.5354 52.4123 30.0302 59.8758 29.4208C66.9123 28.8479 73.1623 29.9572 78.6258 32.7489L79.1206 33.0041L79.5998 33.2906C81.131 34.2072 82.73 35.3322 84.4071 36.6708C84.7717 36.9624 85.0477 37.176 85.23 37.3062C85.0113 37.1447 84.605 36.8999 84.006 36.5718C84.9019 37.051 85.579 37.3583 86.0373 37.4937C85.605 37.3635 84.9592 37.3374 84.105 37.4052C82.6154 37.5302 81.454 37.9364 80.631 38.6343C81.0321 38.2958 81.6258 37.4312 82.4123 36.0406C83.1258 34.7958 83.5946 33.8427 83.8238 33.1812L83.829 33.1656C83.8029 33.2749 83.7769 33.3999 83.7508 33.5458C83.6363 34.2177 83.6154 34.9625 83.6831 35.7749C83.7873 37.0927 84.0894 38.3062 84.579 39.4156C84.8238 39.9677 85.079 40.4208 85.3446 40.7749C85.1831 40.5614 84.6883 40.1239 83.855 39.4677L94.3967 26.1812L85.2665 40.4729L80.2196 37.2437L79.8706 36.9989C79.9904 37.0822 80.0894 37.1499 80.1727 37.1968C80.1727 37.1968 80.1467 37.1864 80.0998 37.1604C79.8238 37.0249 79.4383 36.8687 78.9592 36.6916C77.5477 36.176 75.6935 35.6604 73.4071 35.1447C69.1154 34.176 64.2925 33.9052 58.9435 34.3427C50.2977 35.051 43.9435 37.7906 39.8862 42.5666C37.7612 45.077 36.2612 47.6291 35.3915 50.2385C34.5633 52.7229 34.2665 55.4052 34.5008 58.2906C34.8758 62.8895 35.9592 66.5197 37.7508 69.1864C39.3967 71.6291 41.0894 73.2437 42.8342 74.0302C46.6571 75.7541 50.7769 77.1968 55.1988 78.3583C59.6779 79.5406 63.7456 80.3114 67.4071 80.6812C74.0217 81.3531 79.8394 82.9416 84.8498 85.4572C88.6831 87.3791 91.8029 89.8687 94.2092 92.9312C97.1571 96.676 98.8238 100.926 99.2144 105.676C99.5738 110.124 99.1467 114.27 97.9331 118.119C96.5165 122.598 94.1363 126.452 90.7873 129.676C85.3237 134.936 77.8446 137.952 68.3498 138.728C62.6519 139.192 56.7977 137.952 50.7925 134.999C45.8133 132.556 41.7352 129.697 38.5529 126.421L50.7248 114.608L39.7456 127.535C37.4956 125.624 35.6987 124.306 34.3602 123.598C34.2144 123.52 34.1102 123.468 34.0373 123.436C34.1102 123.468 34.2144 123.504 34.3654 123.546C35.3081 123.811 36.3862 123.9 37.5946 123.801C38.381 123.733 39.0842 123.53 39.7144 123.181C39.881 123.087 40.006 123.004 40.0998 122.926C40.0633 122.962 40.0269 122.994 39.9904 123.03C38.5165 124.728 37.5321 126.046 37.0373 126.978L37.0165 127.015C37.079 126.858 37.1415 126.671 37.204 126.447C37.48 125.431 37.5685 124.306 37.4696 123.077C37.3967 122.15 37.2196 121.436 36.9435 120.936C37.1362 121.285 37.5685 121.811 38.2404 122.515L38.204 122.473Z" fill="white"/>
</svg>
