<svg width="39" height="89" viewBox="0 0 39 89" fill="none" xmlns="http://www.w3.org/2000/svg">
<path d="M0.0136719 19.9245C0.0136719 18.0755 0.0917972 16.5599 0.242839 15.3932C0.513672 13.3255 1.21159 11.2318 2.3418 9.11198C3.30013 7.26823 4.6543 5.66927 6.41472 4.32552C7.78972 3.27864 9.34701 2.45052 11.0918 1.84635C13.4616 1.02344 16.2376 0.617188 19.4095 0.617188C23.1074 0.617188 26.3105 1.22135 29.0241 2.42969C30.972 3.29948 32.6543 4.45573 34.0814 5.90885C35.6855 7.53906 36.8678 9.4401 37.6283 11.6016L37.7272 11.8828L37.8105 12.1693C38.4147 14.2318 38.722 16.8464 38.722 20.013V68.9766C38.722 70.9089 38.6387 72.4557 38.4824 73.6224C38.2064 75.6328 37.5085 77.6901 36.3887 79.7891C35.4355 81.6328 34.0762 83.2318 32.321 84.5755C30.946 85.6224 29.3835 86.4505 27.6387 87.0547C25.2689 87.8776 22.498 88.2839 19.321 88.2839C15.571 88.2839 12.321 87.6484 9.57617 86.3776C7.60221 85.4609 5.9043 84.2422 4.48242 82.7161C2.91471 81.0234 1.7793 79.0755 1.07617 76.862L12.1022 73.3776L1.2793 77.4401C0.435547 75.1901 0.0136719 72.3411 0.0136719 68.888V19.9245ZM23.1335 19.9245V68.888C23.1335 69.4661 23.1491 69.9036 23.1855 70.2005C23.1647 70.0234 23.0762 69.7266 22.9251 69.3203L23.0293 69.6068L23.1231 69.8984C22.7793 68.7995 22.2064 67.8255 21.4147 66.9714C20.7741 66.2839 20.0658 65.7578 19.2949 65.4036C18.9668 65.2526 18.7064 65.1589 18.5085 65.1224C18.6803 65.1536 18.9512 65.1693 19.321 65.1693C19.7585 65.1693 20.1074 65.1484 20.3626 65.1172C20.3887 65.112 20.4147 65.112 20.4303 65.1068C20.4251 65.1068 20.4199 65.1068 20.4043 65.112C20.3105 65.1328 20.2012 65.1641 20.0762 65.2109C19.4772 65.4141 18.8783 65.7474 18.2793 66.2057C17.3001 66.9557 16.5397 67.8568 15.9928 68.9089C15.972 68.9453 15.9408 69.0234 15.8939 69.1484C15.748 69.5495 15.6439 69.9974 15.5762 70.4974C15.5918 70.3672 15.6022 69.862 15.6022 68.9766V20.013C15.6022 19.3568 15.5814 18.8255 15.5449 18.4349C15.5345 18.3464 15.5293 18.2891 15.5241 18.2682C15.5449 18.3828 15.5814 18.5234 15.6283 18.6953L26.722 15.4349L15.8158 19.263C16.1908 20.3411 16.7845 21.2891 17.5866 22.1068C18.2116 22.7422 18.8887 23.2214 19.6126 23.5443C19.9043 23.6797 20.1335 23.7578 20.2897 23.7839C20.097 23.7474 19.8053 23.7318 19.4095 23.7318C18.972 23.7318 18.6283 23.7526 18.3678 23.7839C18.3418 23.7891 18.321 23.7891 18.3053 23.7943C18.3053 23.7943 18.3158 23.7943 18.3262 23.7891C18.4199 23.7682 18.5293 23.737 18.6543 23.6901C19.2585 23.487 19.8522 23.1536 20.4512 22.6953C21.4303 21.9453 22.196 21.0443 22.7428 19.9922C22.9303 19.6328 23.071 19.0964 23.1647 18.3828C23.1439 18.5599 23.1335 19.0755 23.1335 19.9245Z" fill="white"/>
</svg>
