<svg width="52" height="65" viewBox="0 0 52 65" fill="none" xmlns="http://www.w3.org/2000/svg">
<path d="M16.4129 49.1434H43.5379C44.8817 49.1434 45.8973 49.1955 46.5796 49.2892C47.2567 49.3726 48.0379 49.6434 48.9129 50.1017C50.4963 50.9246 51.2879 53.2163 51.2879 56.9767C51.2879 61.0913 50.2046 63.4976 48.0379 64.2059C47.0379 64.5549 45.5067 64.7267 43.4546 64.7267H8.57959C4.46501 64.7267 2.05876 63.6121 1.35042 61.3726C1.00146 60.4455 0.82959 58.9507 0.82959 56.8934V7.93506C0.82959 4.93506 1.38167 2.89339 2.49626 1.81006C3.62126 0.726725 5.73584 0.185059 8.85042 0.185059H43.5379C44.8817 0.185059 45.8973 0.226725 46.5796 0.310059C47.2567 0.393392 48.0379 0.674643 48.9129 1.14339C50.4963 1.96631 51.2879 4.25798 51.2879 8.01839C51.2879 12.133 50.2046 14.534 48.0379 15.2267C47.0379 15.5913 45.5067 15.7684 43.4546 15.7684H16.4129V24.6642H33.8504C35.1942 24.6642 36.2098 24.7059 36.8921 24.7892C37.5692 24.8726 38.3504 25.1538 39.2254 25.6226C40.8088 26.4455 41.6004 28.7371 41.6004 32.4976C41.6004 36.6121 40.4858 39.0184 38.2671 39.7267C37.2671 40.0757 35.7358 40.2476 33.6838 40.2476H16.4129V49.1434Z" fill="#FF8461"/>
</svg>
