<svg width="218" height="124" viewBox="0 0 218 124" fill="none" xmlns="http://www.w3.org/2000/svg">
<path d="M23.9584 123.63C27.7188 115.469 29.6094 106.49 29.4844 97.5573C55.3125 87.9792 78.5 71.7031 96.0157 50.9063C96.6146 56.6511 93.724 62.5 91.1615 67.724C97.8802 62.349 103.578 55.8073 107.906 48.4636C126.021 64.4636 148.839 70.6354 173.219 73.125C178 87.0573 183.594 104.125 196.063 112.385C200.542 105.417 209.646 98.4271 217.979 99.5209C217.333 99.2969 217.109 92.2813 217.037 91.6094C215.516 78.2969 213.849 65.2865 208.948 52.6198C201.807 34.1354 184.042 20.724 166.354 12.1667C148.115 3.35939 127.563 -0.47394 107.26 0.671893C77.6042 2.33856 49.7605 15.375 27.3698 34.1094C12.8386 46.2761 5.67191 61.2031 3.06253 79.4167C1.24483 92.0834 0.395867 104.87 0.546909 117.635C9.67712 114.125 15.1771 119.401 23.9584 123.63Z" fill="#160512"/>
</svg>
