<svg width="209" height="119" viewBox="0 0 209 119" fill="none" xmlns="http://www.w3.org/2000/svg">
<path d="M1.4479 38.3907C-3.78127 64.0678 12.901 89.2032 38.5885 94.3855C58.7187 98.4532 78.4323 89.1199 88.5989 72.5261C88.6823 72.448 88.8073 72.448 88.8906 72.3647C92.7083 67.7188 99.4687 67.5938 104.411 69.0053C109.724 70.5365 113.625 73.8126 114.036 77.1719C114.078 77.5469 114.286 77.7969 114.453 78.0886C117.443 97.1667 131.927 113.344 151.927 117.365C177.62 122.594 202.766 105.917 207.953 80.2449C213.182 54.5678 196.5 29.4324 170.812 24.2501C145.12 19.0209 119.974 35.698 114.786 61.3699C114.245 64.1094 113.953 66.8438 113.911 69.5417C111.755 67.6355 108.891 66.0574 105.531 65.1042C101.505 63.9428 96.5677 63.6928 92.2083 65.2709C93.2031 62.698 94.0781 60.0417 94.6146 57.2657C99.8437 31.5886 83.1614 6.45319 57.4739 1.2709C31.7812 -3.95827 6.6354 12.7188 1.4479 38.3907ZM118.812 62.2032C123.583 38.724 146.573 23.5001 170.062 28.2709C193.552 33.0417 208.786 56.0209 204.01 79.4949C199.24 102.974 176.25 118.193 152.76 113.427C129.271 108.656 114.036 85.6772 118.812 62.2032ZM5.42706 39.1824C10.2031 15.7032 33.1927 0.484441 56.6823 5.25007C80.1719 10.0209 95.4062 33.0001 90.6302 56.4792C85.8594 79.9532 62.8646 95.1772 39.375 90.4063C15.8854 85.6772 0.656232 62.698 5.42706 39.1824Z" fill="black"/>
</svg>
