<svg width="127" height="108" viewBox="0 0 127 108" fill="none" xmlns="http://www.w3.org/2000/svg">
<path d="M48.3852 85.6406C47.1821 88.2551 42.4946 89.6666 35.3123 92.0729C29.0883 94.1458 19.6665 97.0468 16.7654 100.698C13.6508 104.641 18.255 107.208 25.9321 107.088C38.6769 106.88 67.3956 105.427 81.63 103.807C106.031 102.443 127.323 84.026 125.995 63.8645C124 33.6302 121.099 22.0989 119.104 3.55723C118.604 -1.00527 108.396 4.26557 106.323 10.3593C101.88 23.427 104.828 27.5729 101.963 34.0833C99.1404 40.4739 92.9165 39.6874 86.6092 36.5312C61.2081 13.3906 49.4633 -2.41673 38.6769 0.697859C30.1665 4.51036 45.1925 22.5989 63.1613 42.3385C35.6873 29.2343 12.3227 20.7708 9.29146 27.7395C5.72376 35.9531 25.5623 50.3854 49.3435 60.0104C25.1873 61.9583 2.11438 60.052 0.411256 69.052C-1.04187 77.1406 51.8331 78.302 48.3852 85.6406Z" fill="#F9A991"/>
</svg>
