<svg width="34" height="22" viewBox="0 0 34 22" fill="none" xmlns="http://www.w3.org/2000/svg">
<path d="M4.65625 21.9166C4.03646 21.9166 3.39062 21.7655 2.79167 21.4686C0.703124 20.4218 -0.166668 17.8853 0.874999 15.7968C1.94792 13.6301 3.48958 11.5416 5.55208 9.44781C7.96875 6.98427 10.5573 5.09364 13.2448 3.82802C18.4427 1.36448 24.0677 1.11448 29.0417 0.864479C31.3542 0.739479 33.3438 2.55719 33.4688 4.89573C33.5677 7.23427 31.7813 9.20302 29.4375 9.32281C25.0625 9.52594 20.5313 9.7499 16.875 11.4634C15.0833 12.3124 13.3177 13.6301 11.599 15.3697C10.1823 16.8124 9.16146 18.1822 8.48958 19.5259C7.71875 21.0468 6.22396 21.9166 4.65625 21.9166Z" fill="#160512"/>
</svg>
