<svg width="34" height="48" viewBox="0 0 34 48" fill="none" xmlns="http://www.w3.org/2000/svg">
<path d="M15.7136 2.86985C17.1823 4.83339 17.3333 7.74485 16.0156 9.8386C18.4011 9.56256 20.8906 10.7344 22.1823 12.7501C23.4792 14.7657 23.5261 17.5001 22.3333 19.5678C23.9479 20.0157 25.4948 20.6094 27.0104 21.2813C28.0313 21.7292 29.0781 22.3282 29.599 23.323C30.5417 25.0886 29.4219 27.2292 28.3021 28.8959C30.4219 29.5157 32.6823 30.7136 33.1823 32.8542C33.6302 34.8907 32.2604 36.8594 30.9688 38.5001C29.1979 40.7136 27.4323 42.9532 25.6667 45.1667C24.9219 46.1146 24.1511 47.0834 23.0573 47.5313C21.9583 47.9792 20.4688 47.7553 19.9427 46.7084C19.5208 45.9376 19.7708 44.9688 19.9948 44.099C20.5938 41.9323 21.1875 39.7709 21.7865 37.6042C20.0938 39.3959 19.099 39.8699 17.7292 40.9896C16.3594 42.1094 14.1979 42.7553 12.9011 41.5365C11.8333 40.5157 11.9583 38.7501 12.5052 37.4063C13.0781 36.0626 14 34.8178 14.2969 33.3751C13.25 34.5938 12.0833 35.6615 10.7656 36.5834C10.2656 36.9584 9.71876 37.2813 9.09897 37.3074C8.00001 37.3282 7.13022 36.2865 6.83334 35.2396C6.3073 33.323 6.97918 31.3334 7.70314 29.4688C8.79688 26.5834 9.89064 23.698 10.9896 20.7865C9.44272 22.823 7.87501 24.8907 6.35939 26.9324C5.53647 28.0001 4.54168 29.1928 3.19793 29.2917C1.45834 29.4428 0.0885515 27.6042 0.0416769 25.8594C-0.0364485 24.1199 0.510427 21.8282 1.01043 20.1355C2.62501 14.5417 3.8698 10.7344 5.64064 5.18235C7.10418 0.505265 12.4063 -1.60932 15.7136 2.86985Z" fill="#FEA17E"/>
</svg>
