<svg width="222" height="108" viewBox="0 0 222 108" fill="none" xmlns="http://www.w3.org/2000/svg">
<path d="M201.484 100.229C197.792 95.4583 194.927 89.901 190.323 86C181.563 78.6198 168.99 78.7812 157.495 78.3698C143.505 77.8281 129.646 75.8802 115.787 73.8906C103.125 72.0625 90.3855 70.2396 78.3907 65.8021C71.2969 63.1875 64.5313 59.6614 57.1876 57.8385C49.8386 56.0104 41.6251 56.0521 35.2709 60.1614C32.573 61.901 30.3334 64.3489 28.1771 66.7135C23.8178 71.4844 19.4219 76.2552 15.0626 81.0208C12.9063 83.3854 10.0001 86 6.92714 85.1302C3.97923 84.3021 2.7761 80.8177 2.19798 77.7864C-0.00514794 66.6719 -0.541606 55.2656 0.869852 44.0677C1.82298 36.7239 3.81256 28.9687 9.33339 23.9896C15.9324 18.0208 26.2657 17.6875 34.9011 19.8437C36.8074 14.8229 42.1199 11.8802 47.3074 10.7187C52.5365 9.55727 58.0157 9.68227 63.2032 8.52082C67.5209 7.56769 71.5469 5.8229 75.7344 4.53644C80.5105 3.08852 85.4896 2.33852 90.4271 1.84373C117.984 -1.10418 146.287 2.96352 171.979 13.4583C182.479 17.7708 192.646 23.2031 201.193 30.6302C209.787 38.0521 216.714 47.6771 219.787 58.5833C224.313 74.5521 220.37 91.7239 214.391 107.198C208.375 107.359 205.135 105.036 201.484 100.229Z" fill="#F9A991"/>
</svg>
