<svg width="39" height="31" viewBox="0 0 39 31" fill="none" xmlns="http://www.w3.org/2000/svg">
<path d="M28.6462 26.672C28.0212 24.8856 26.9431 23.021 25.4067 21.0314C23.5421 18.6251 21.5889 16.7137 19.5577 15.4741C15.365 12.8595 9.88582 11.9897 4.61499 11.1564C1.70874 10.7449 -0.197513 8.04701 0.213946 5.18764C0.630612 2.28139 3.32853 0.333468 6.19311 0.786594C12.2504 1.74493 19.0994 2.82305 25.115 6.59389C28.2296 8.54701 31.1358 11.2397 33.7504 14.6824C35.99 17.5887 37.5681 20.3647 38.5629 23.271C39.516 26.0053 38.0629 28.9949 35.3233 29.9897C34.7452 30.1981 34.1619 30.2814 33.5837 30.2814C31.4223 30.2397 29.391 28.9116 28.6462 26.672Z" fill="black"/>
</svg>
