<svg width="132" height="140" viewBox="0 0 132 140" fill="none" xmlns="http://www.w3.org/2000/svg">
<path d="M118.883 1.2046C126.45 3.06918 130.68 6.02752 131.57 10.0796C131.987 11.9286 131.726 14.8921 130.799 18.9754L104.195 126.871C103.487 129.705 101.997 132.184 99.7369 134.309C97.4712 136.434 94.9504 137.804 92.1744 138.413L90.4244 138.809C87.5337 139.449 84.6119 139.278 81.6535 138.288C78.7056 137.304 76.3098 135.673 74.466 133.392L5.11185 46.5796C2.57019 43.2619 1.09102 40.6786 0.674353 38.8296C-0.211064 34.7775 2.3931 30.3088 8.48685 25.4338C11.8931 22.6317 14.6066 21.0067 16.6327 20.5588C18.6639 20.1161 20.2473 20.0119 21.3827 20.2463C22.5233 20.4702 23.6848 21.0536 24.8827 21.9963C26.2264 23.1786 27.5181 24.5119 28.7577 25.9963C29.9921 27.4859 33.2785 31.8036 38.6119 38.9546C43.9452 46.1109 49.6431 53.6994 55.716 61.7254C61.7837 69.7411 67.5181 77.3192 72.9244 84.4546C78.3254 91.5796 81.3619 95.5692 82.0285 96.4129L100.049 12.6213C100.508 10.2046 100.935 8.28793 101.341 6.87127C102.758 3.28793 104.971 1.16293 107.987 0.496266C110.997 -0.170401 114.633 0.069182 118.883 1.2046Z" fill="#28499A"/>
</svg>
