<svg width="159" height="167" viewBox="0 0 159 167" fill="none" xmlns="http://www.w3.org/2000/svg">
<path d="M29.0794 4.08298L127.621 0.765269C134.069 0.551728 139.408 1.4111 143.632 3.3486C146.626 4.7236 149.21 6.5986 151.371 8.97881C153.538 11.3538 155.168 14.0986 156.257 17.208C157.48 20.708 158.173 24.859 158.335 29.6559C158.496 34.5049 158.069 38.708 157.048 42.2705C156.225 45.1559 154.965 47.7444 153.277 50.0413C151.303 52.7184 148.861 54.8434 145.949 56.4215C141.512 58.833 136.012 60.1455 129.444 60.3694L95.595 61.5049L95.0273 44.5569L111.975 43.9892L114.97 133.135C115.09 136.619 115.043 139.395 114.829 141.463C114.496 144.713 113.501 148.088 111.835 151.593C110.345 154.718 108.262 157.395 105.574 159.625C103.262 161.541 100.6 163.031 97.5898 164.093C93.7253 165.458 89.0898 166.229 83.6888 166.411C78.2357 166.593 73.5482 166.125 69.6211 164.994C66.5742 164.114 63.8398 162.791 61.4232 161.01C58.668 158.984 56.4544 156.484 54.7878 153.51C52.8711 150.093 51.6419 146.734 51.095 143.422C50.7565 141.343 50.5273 138.578 50.4075 135.13L47.418 46.1611L64.3659 45.5882L64.9336 62.5361L30.9075 63.6819C24.4596 63.8955 19.1211 63.0361 14.8919 61.0986C11.8971 59.7236 9.319 57.8486 7.15234 55.4736C4.98567 53.0934 3.36067 50.3486 2.27213 47.2392C1.04817 43.7392 0.355462 39.5934 0.194004 34.7965C0.0273378 29.9476 0.45963 25.7392 1.47525 22.1819C2.29817 19.2913 3.55859 16.7028 5.2513 14.4111C7.22525 11.734 9.66796 9.60381 12.5742 8.02569C17.0117 5.61423 22.5117 4.30173 29.0794 4.08298ZM30.22 37.9788C29.2617 38.0101 28.5169 38.083 27.9857 38.1924L27.97 38.1871C28.2044 38.109 28.4648 37.9892 28.7513 37.833C30.2669 37.0101 31.5325 35.9111 32.543 34.5361C33.2773 33.5465 33.7878 32.5361 34.0846 31.4996C34.1211 31.3746 34.1419 31.2809 34.1523 31.2184C34.1419 31.2861 34.1315 31.3955 34.1159 31.5361C34.069 32.0882 34.0586 32.7965 34.0898 33.6559C34.1159 34.5205 34.1784 35.2392 34.2617 35.8121C34.2878 35.9736 34.3138 36.1038 34.3346 36.1976C34.3294 36.1715 34.3138 36.1194 34.2825 36.0413C33.8503 34.8017 33.1628 33.6663 32.2253 32.6351C31.2878 31.6038 30.2253 30.8174 29.0325 30.2705C28.3503 29.958 27.845 29.7809 27.5169 29.7392C28.0221 29.8017 28.7721 29.8174 29.7669 29.7861L80.7409 28.0726L84.3034 133.989C84.3711 135.974 84.4544 137.276 84.5586 137.906C84.4857 137.442 84.3867 137.052 84.2617 136.734C84.2513 136.708 84.2461 136.687 84.2357 136.672C84.2357 136.672 84.2409 136.677 84.2461 136.687C84.2721 136.75 84.3138 136.828 84.3711 136.927C83.6471 135.635 82.694 134.557 81.5169 133.687C80.6732 133.073 79.8346 132.64 78.9961 132.401V132.395C79.168 132.422 79.3815 132.448 79.6419 132.474C80.4284 132.541 81.3971 132.557 82.5482 132.515C84.47 132.453 85.72 132.317 86.2982 132.114C85.5065 132.39 84.72 132.859 83.9336 133.51C82.7721 134.474 81.8607 135.645 81.2044 137.031C81.2565 136.916 81.3034 136.817 81.3346 136.739L81.3294 136.76C81.22 137.099 81.1419 137.515 81.0898 138.015C81.1471 137.474 81.1419 136.224 81.0742 134.276L77.5065 28.1819L128.309 26.4736C129.267 26.4371 130.012 26.3694 130.538 26.2549L130.553 26.2601C130.319 26.3434 130.059 26.458 129.772 26.6142C128.257 27.4371 126.991 28.5361 125.98 29.9111C125.251 30.9007 124.736 31.9111 124.444 32.9476C124.408 33.0726 124.382 33.1663 124.371 33.2288C124.382 33.1611 124.397 33.0517 124.408 32.9111C124.454 32.359 124.465 31.6507 124.439 30.7913C124.408 29.9267 124.35 29.208 124.262 28.6351C124.236 28.4736 124.215 28.3434 124.189 28.2496C124.194 28.2757 124.215 28.3278 124.241 28.4111C124.678 29.6507 125.361 30.7861 126.298 31.8121C127.236 32.8434 128.303 33.6299 129.496 34.1767C130.173 34.4892 130.678 34.6663 131.012 34.708C130.507 34.6455 129.751 34.6299 128.762 34.6611L30.22 37.9788Z" fill="white"/>
</svg>
