<svg width="166" height="174" viewBox="0 0 166 174" fill="none" xmlns="http://www.w3.org/2000/svg">
<path d="M139.935 1.66834C145.779 3.10584 150.628 5.16834 154.482 7.86105C160.232 11.8767 163.805 17.0642 165.2 23.4183C166.148 27.7413 165.883 33.1788 164.404 39.736L137.726 147.939C136.185 154.038 133.086 159.288 128.419 163.694C123.867 167.986 118.669 170.778 112.815 172.059L111.081 172.444C105.112 173.752 99.164 173.413 93.2317 171.418C87.1535 169.377 82.1535 165.934 78.2421 161.095L8.82542 74.21C4.59625 68.7048 2.00771 63.7881 1.0598 59.4652C-0.336039 53.111 0.736879 46.9027 4.27334 40.8454C6.64313 36.7881 10.1796 32.8819 14.8879 29.1319C20.2317 24.6996 25.2577 21.9704 29.9765 20.934C34.3567 19.9704 38.2942 19.8506 41.7994 20.5694C45.6535 21.3558 49.2421 23.0954 52.5754 25.7881L52.7785 25.9548L52.9817 26.1319C55.0442 27.9079 56.9973 29.9079 58.841 32.1215C60.2681 33.8402 63.7421 38.3923 69.2525 45.7777L86.3306 68.4808L103.503 91.1788C108.789 98.1683 111.706 102.007 112.258 102.689L99.0233 113.387L82.3827 109.804L100.43 26.0329L117.065 29.6163L100.331 26.5329C100.878 23.5642 101.44 21.0902 102.013 19.111L102.221 18.3871L102.497 17.684C104.101 13.5694 106.351 10.1163 109.253 7.32459C112.664 4.04334 116.685 1.8923 121.32 0.871463C127.018 -0.378537 133.331 -0.08687 140.242 1.74646L139.935 1.66834ZM131.508 34.6475C130.456 34.3663 129.57 34.2048 128.862 34.1579C128.685 34.1475 128.544 34.1423 128.44 34.1527C128.471 34.1475 128.534 34.1371 128.622 34.1163C130.247 33.7621 131.659 33.0017 132.862 31.8454C133.555 31.1788 134.003 30.5798 134.211 30.0538L118.351 23.8663L134.695 28.6215C134.44 29.5017 134.143 30.861 133.805 32.7048L133.758 32.9548L108.164 151.767L85.7838 124.09C85.0025 123.116 81.8619 118.996 76.3567 111.715L59.1275 88.9444L41.9765 66.1371C36.815 59.2256 33.716 55.1423 32.664 53.8819C32.0338 53.1163 31.3983 52.4652 30.7681 51.9183L41.8723 39.0225L31.1744 52.2569C32.1431 53.0433 33.4088 53.5902 34.9713 53.9131C35.8983 54.1006 36.7317 54.1736 37.466 54.1267C37.5494 54.1215 37.6015 54.1163 37.6275 54.111C37.539 54.1215 37.4244 54.1475 37.2785 54.1788C37.8619 54.0486 38.3671 53.8923 38.7994 53.7048L38.8358 53.6996C38.216 54.0746 37.3046 54.7569 36.1067 55.7465C35.2317 56.4444 34.5338 57.0694 34.0181 57.6267C33.8567 57.7933 33.7317 57.9392 33.6431 58.059C33.6223 58.0798 33.6119 58.0954 33.6067 58.1058C33.6223 58.0798 33.6431 58.0538 33.664 58.0121C33.966 57.4965 34.1952 56.8454 34.3567 56.0538C34.6119 54.7777 34.5963 53.4808 34.3046 52.1631C34.1796 51.6006 34.0338 51.1058 33.8567 50.6944L33.8775 50.7048C34.2369 51.335 34.7473 52.085 35.4192 52.9652L104.711 139.694C104.471 139.398 104.258 139.215 104.081 139.153L104.096 139.174C103.982 139.168 103.872 139.174 103.779 139.194L105.518 138.814C105.331 138.856 105.159 138.918 105.003 139.002C104.966 139.023 104.94 139.043 104.919 139.054C104.956 139.028 104.997 138.991 105.049 138.939C104.914 139.069 104.789 139.356 104.68 139.793L131.2 32.236C131.492 30.9444 131.669 29.934 131.732 29.2152L131.747 29.1944C131.758 29.6475 131.831 30.1527 131.95 30.7204C132.242 32.0381 132.768 33.2204 133.539 34.2725C134.013 34.9235 134.492 35.4183 134.987 35.7621C135.023 35.7881 135.049 35.809 135.075 35.8194C135.065 35.8142 135.049 35.809 135.029 35.7933C134.893 35.7256 134.716 35.6423 134.503 35.559C133.799 35.2673 132.904 34.9913 131.82 34.7256L131.508 34.6475Z" fill="white"/>
</svg>
