<svg width="182" height="172" viewBox="0 0 182 172" fill="none" xmlns="http://www.w3.org/2000/svg">
<path d="M178.654 24.3182C180.326 28.063 181.253 31.6932 181.441 35.2088C181.555 37.339 181.488 40.1099 181.248 43.5265L174.269 141.693C173.8 148.277 172.311 153.823 169.79 158.329C168.061 161.422 165.884 164.016 163.253 166.115C160.389 168.402 157.16 169.974 153.561 170.834C149.576 171.787 145.003 172.084 139.847 171.714C134.805 171.36 130.54 170.527 127.05 169.224C123.076 167.745 119.795 165.839 117.196 163.5C113.852 160.5 111.483 156.709 110.087 152.125L109.884 151.469L109.738 150.797C108.941 147.157 108.748 142.464 109.16 136.714L113.368 77.4588L130.285 78.6567L142.696 90.214C139.722 93.4067 135.227 98.6515 129.222 105.948C122.868 113.657 118.79 118.532 116.988 120.573L113.498 124.516C111.384 126.891 108.154 129.162 103.8 131.329C98.6388 133.896 93.1961 134.98 87.4669 134.573C81.8367 134.172 76.7326 132.448 72.1544 129.402C68.2482 126.803 65.2534 123.99 63.1596 120.954L62.9357 120.631L61.4565 118.256L75.8419 109.277L61.8836 118.907C59.5763 115.568 55.2169 108.73 48.8003 98.3911C42.7274 88.6151 39.5347 83.5057 39.2222 83.0682L52.9826 73.1671L69.8992 74.3651L65.6649 133.98C65.4201 137.422 65.0867 140.178 64.6649 142.24C63.9513 145.766 62.4409 149.25 60.1388 152.688C54.5815 161.204 44.7742 164.959 30.7117 163.959C16.8836 162.974 7.78986 157.818 3.4409 148.48C1.6909 144.844 0.716942 141.188 0.524232 137.5C0.40965 135.37 0.477358 132.537 0.727358 129.006L7.70652 30.8338C7.95132 27.3911 8.27944 24.6359 8.70132 22.5734C9.38361 19.214 10.8107 15.813 12.9722 12.3651L13.1232 12.1255L13.2794 11.8911C18.9253 3.54214 28.7169 -0.13494 42.6597 0.854643C47.6701 1.20881 52.1492 2.2036 56.0867 3.83381C61.2274 5.96402 65.0503 8.72443 67.5659 12.1151L53.9409 22.2088L66.7482 11.0994L68.4826 13.0994L105.514 69.6203L91.3315 78.9119L78.5607 67.7557C100.576 42.5526 115.29 25.8963 122.701 17.7921L135.217 29.2296L121.545 19.2036C127.467 11.1255 137.285 7.5786 150.998 8.55256C165.342 9.57339 174.587 14.8859 178.738 24.5005L178.654 24.3182ZM147.597 37.938C148.238 39.4224 149.128 40.6671 150.274 41.688C150.904 42.2401 151.498 42.6411 152.055 42.8807L152.05 42.8859C151.889 42.839 151.686 42.7869 151.441 42.7401C150.675 42.5838 149.727 42.464 148.597 42.3807C146.691 42.2453 145.42 42.2609 144.774 42.4276C145.17 42.3286 145.634 42.1151 146.17 41.7869C147.212 41.1567 148.118 40.3182 148.894 39.2609L148.352 40.0005L147.733 40.6724C140.493 48.589 125.951 65.0578 104.102 90.0682L89.3992 106.902L40.743 32.6411L54.9253 23.3494L42.1128 34.4588L40.7013 32.8286L40.3159 32.3078C41.269 33.5942 42.2951 34.5786 43.3888 35.2661C43.493 35.3286 43.5607 35.3703 43.5919 35.3859C43.4774 35.3234 43.3159 35.2557 43.1076 35.1671C42.5607 34.9432 41.6076 34.7765 40.2534 34.6828C38.368 34.5474 37.1388 34.5578 36.5607 34.7036C37.0607 34.5734 37.6284 34.313 38.2586 33.9224C39.4826 33.1671 40.5242 32.1515 41.3836 30.8807L27.3315 21.3859L41.6909 30.4067C41.6232 30.5161 41.5659 30.6099 41.5294 30.6828L41.5451 30.6463C41.6961 30.2921 41.8315 29.8546 41.9357 29.3338C41.8107 29.9588 41.6753 31.2609 41.5347 33.2401L34.5555 131.412C34.4044 133.537 34.3472 134.964 34.3888 135.688C34.3576 135.125 34.2794 134.615 34.1492 134.172C34.1232 134.068 34.0919 133.985 34.0659 133.917C34.0659 133.917 34.1024 133.995 34.1805 134.152C33.5659 132.839 32.7482 131.73 31.7222 130.823C31.1284 130.303 30.5711 129.928 30.0347 129.693C29.9982 129.678 29.9669 129.662 29.9461 129.657C29.9513 129.657 29.9722 129.662 29.9982 129.672C30.1336 129.714 30.3107 129.756 30.5242 129.803C31.2169 129.948 32.0815 130.058 33.1128 130.131C34.9305 130.261 36.1024 130.256 36.6232 130.115C36.0919 130.256 35.5034 130.537 34.8576 130.954C33.6701 131.719 32.7013 132.672 31.9617 133.813C31.9878 133.766 32.0086 133.735 32.019 133.719C31.9878 133.777 31.9513 133.844 31.9149 133.933C31.7117 134.37 31.5503 134.886 31.4305 135.48C31.5607 134.855 31.6909 133.553 31.8315 131.573L39.3888 25.2453L66.7482 63.2609C67.5138 64.3234 71.1336 70.0682 77.6128 80.5005C83.743 90.3755 87.8055 96.7609 89.8003 99.6515L90.019 99.9692L91.5034 102.349L77.118 111.323L91.0763 101.698C90.7378 101.209 90.4357 100.844 90.1701 100.605C90.3107 100.73 90.5659 100.917 90.9409 101.167C90.5503 100.907 90.1909 100.766 89.868 100.74C89.4461 100.714 89.0503 100.787 88.6857 100.969C89.3732 100.625 89.8524 100.37 90.1336 100.193C89.5399 100.568 88.8628 101.183 88.1024 102.037L91.5763 98.1151C93.118 96.3651 96.9409 91.7869 103.045 84.3807C109.488 76.5578 114.43 70.8026 117.873 67.1046L150.602 31.9432L142.988 139.115C142.878 140.641 142.837 141.902 142.863 142.902C142.868 143.24 142.884 143.516 142.904 143.724C142.91 143.761 142.915 143.777 142.915 143.782C142.904 143.719 142.889 143.646 142.868 143.558L126.305 147.178L142.524 142.224C142.087 140.792 141.196 139.474 139.863 138.277C139.399 137.86 138.967 137.542 138.571 137.323L138.545 137.308C138.639 137.349 138.759 137.396 138.904 137.448C139.342 137.615 140.457 137.761 142.253 137.886C143.936 138.006 145.071 137.995 145.67 137.849C144.363 138.162 143.175 138.75 142.102 139.605C141.264 140.277 140.623 141 140.186 141.787C140.097 141.938 140.035 142.063 139.998 142.162C140.024 142.105 140.05 142.006 140.087 141.86C140.248 141.209 140.363 140.355 140.441 139.292L147.42 41.1203C147.561 39.1099 147.613 37.7453 147.576 37.0161C147.602 37.5161 147.665 37.9432 147.759 38.2974C147.769 38.339 147.779 38.3599 147.779 38.3651C147.753 38.3026 147.722 38.2192 147.675 38.1151L147.597 37.938Z" fill="white"/>
</svg>
