<svg width="52" height="130" viewBox="0 0 52 130" fill="none" xmlns="http://www.w3.org/2000/svg">
<path d="M1.75105 18.9671C1.26667 16.2901 0.990628 14.2692 0.917712 12.9046C0.850004 11.5296 1.12605 9.8838 1.75105 7.96714C2.80834 4.5088 7.07917 2.10255 14.5635 0.73797C22.7302 -0.73078 27.9594 0.560886 30.251 4.61297C31.2094 6.48797 32.0531 9.46714 32.7927 13.5505L50.3552 110.946C50.8552 113.754 51.126 115.816 51.1677 117.134C51.2198 118.457 50.9438 120.071 50.3344 121.988C49.2615 125.436 45.001 127.832 37.5427 129.175C29.3448 130.649 24.1521 129.29 21.9594 125.092C20.9281 123.358 20.0479 120.446 19.3135 116.363L1.75105 18.9671Z" fill="#28499A"/>
</svg>
