<svg width="164" height="174" viewBox="0 0 164 174" fill="none" xmlns="http://www.w3.org/2000/svg">
<path d="M130.664 24.8963L161.232 130.901C163.273 137.636 163.898 143.323 163.102 147.948C162.013 154.318 158.763 159.657 153.357 163.959C149.633 166.922 144.893 169.276 139.128 171.021C132.247 173.099 126.346 173.719 121.424 172.875C115.539 171.865 110.674 169.401 106.825 165.49C103.747 162.36 101.57 158.948 100.294 155.25C99.7786 153.756 99.1015 151.636 98.2682 148.886L92.3255 128.131L108.69 123.448L105.81 140.224L57.2213 131.886L60.1015 115.115L73.9661 124.985L61.5963 142.365C59.638 145.026 58.0911 147.011 56.9505 148.318C54.7213 150.865 51.8307 153.068 48.2838 154.912C43.2422 157.537 37.6953 158.334 31.6484 157.297C26.7265 156.448 21.3724 153.901 15.5755 149.646C10.7942 146.235 7.12236 142.516 4.56507 138.49C0.841111 132.636 -0.471389 126.5 0.627569 120.079C1.42444 115.454 3.95049 110.24 8.20569 104.448L72.2474 14.7088C75.8828 9.57334 80.6901 5.78688 86.6692 3.34938C92.5859 0.943134 98.6015 0.260843 104.721 1.31293C111.19 2.4223 116.7 5.07855 121.247 9.28168C125.591 13.2973 128.711 18.4327 130.602 24.6879L130.664 24.8963ZM98.0182 34.5421C97.914 34.1931 97.8255 33.9536 97.7422 33.8181C97.8203 33.9483 97.9557 34.1046 98.1432 34.2765C98.388 34.5056 98.6536 34.6827 98.9297 34.8129C99.0026 34.8494 99.0651 34.8754 99.112 34.8911C99.0859 34.8806 99.039 34.8702 98.9661 34.8598C99.1172 34.8858 99.2786 34.8911 99.4453 34.8702C99.5026 34.8598 99.5495 34.8546 99.5911 34.8442C99.5755 34.8494 99.5495 34.8546 99.5078 34.8754C99.664 34.8129 99.8099 34.6775 99.9557 34.4796L35.638 124.599C34.7786 125.766 34.164 126.698 33.7942 127.391L33.763 127.422C33.9349 126.974 34.0755 126.443 34.1797 125.834C34.388 124.605 34.3567 123.391 34.0703 122.204C33.8828 121.412 33.6224 120.756 33.2838 120.224C33.2526 120.178 33.2265 120.136 33.2005 120.099L33.2057 120.105C33.2838 120.198 33.388 120.313 33.5286 120.448C34.0234 120.933 34.7578 121.521 35.7265 122.214C36.8307 123.021 37.7265 123.605 38.4192 123.964C38.4974 124.006 38.5651 124.037 38.6172 124.063C38.6119 124.058 38.5859 124.047 38.5494 124.037C38.2317 123.922 37.8515 123.823 37.4036 123.745C36.9192 123.662 36.3463 123.662 35.6953 123.74C34.6224 123.865 33.5755 124.193 32.5651 124.719L32.5755 124.735C32.1692 125.032 31.7526 125.428 31.3255 125.912C31.8307 125.334 32.6797 124.235 33.8619 122.625L52.4349 96.5317L122.107 108.48L130.852 139.026C131.555 141.355 132.091 143.053 132.461 144.12C132.065 142.985 131.612 142.151 131.096 141.631C130.331 140.849 129.492 140.24 128.57 139.803C128.044 139.553 127.586 139.396 127.18 139.329C126.732 139.25 126.341 139.214 126.003 139.219C125.961 139.219 125.94 139.219 125.93 139.219C125.987 139.214 126.06 139.209 126.148 139.193C126.919 139.089 127.961 138.834 129.273 138.438C130.289 138.131 131.117 137.823 131.768 137.516C131.956 137.422 132.112 137.344 132.227 137.271C132.242 137.261 132.253 137.256 132.253 137.256C132.227 137.276 132.195 137.297 132.154 137.329C131.695 137.693 131.258 138.204 130.841 138.855C130.19 139.865 129.763 140.98 129.555 142.193C129.45 142.808 129.404 143.349 129.419 143.834L129.398 143.792C129.279 143.011 128.992 141.86 128.529 140.334L97.9557 34.3286L98.0182 34.5421ZM106.742 79.1463L91.0442 101.193L77.1849 91.3181L80.0599 74.5473L103.388 78.5473L100.513 95.3233L84.1797 100.105L76.5494 74.0577L92.8828 69.2765L106.742 79.1463ZM99.3567 30.8442L124.513 116.704L47.6067 103.516L79.0182 59.4015L99.3567 30.8442Z" fill="white"/>
</svg>
