<svg width="66" height="66" viewBox="0 0 66 66" fill="none" xmlns="http://www.w3.org/2000/svg">
<path d="M39.8031 4.74756L63.5739 53.8934C64.5739 55.8934 65.0739 57.3934 65.0739 58.3934C65.0739 60.508 63.3708 62.409 59.9697 64.1017C57.9697 65.1017 56.3968 65.6017 55.2614 65.6017C54.1208 65.6017 53.1833 65.3361 52.4489 64.8101C51.7093 64.284 51.1781 63.7267 50.8447 63.1434C50.5218 62.5601 50.0739 61.6799 49.4906 60.4976L44.9072 50.9976H20.5114L15.9489 60.4976C15.3499 61.6799 14.8916 62.534 14.5739 63.0601C14.251 63.5913 13.7249 64.133 12.9906 64.6851C12.251 65.2371 11.3083 65.5184 10.1572 65.5184C9.0166 65.5184 7.4541 65.0184 5.46973 64.0184C2.05306 62.383 0.344727 60.508 0.344727 58.3934C0.344727 57.3934 0.844727 55.8934 1.84473 53.8934L25.6364 4.66423C26.2718 3.32047 27.251 2.23714 28.5739 1.41423C29.8916 0.596517 31.2874 0.185059 32.7614 0.185059C35.9281 0.185059 38.2718 1.70589 39.8031 4.74756ZM32.6781 25.8934L26.8656 37.9559H38.5739L32.6781 25.8934Z" fill="#FF8461"/>
</svg>
