<svg width="65" height="81" viewBox="0 0 65 81" fill="none" xmlns="http://www.w3.org/2000/svg">
<path d="M22.3306 61.0815L54.8514 59.1023C56.4764 59.0085 57.6952 58.9877 58.5181 59.0398C59.3358 59.0815 60.2889 59.3627 61.3723 59.8731C63.3306 60.7221 64.4452 63.4044 64.7264 67.9148C65.0181 72.8471 63.8983 75.821 61.3723 76.8315C60.19 77.321 58.3619 77.6387 55.8931 77.7898L14.0806 80.3315C9.14832 80.6387 6.18478 79.4773 5.18478 76.8523C4.68478 75.769 4.35665 73.9929 4.20561 71.519L0.62228 12.7898C0.413946 9.20645 0.93478 6.72208 2.18478 5.33145C3.43478 3.94603 5.92436 3.13874 9.66395 2.91478L51.2681 0.373117C52.8931 0.279367 54.1119 0.258533 54.9348 0.310617C55.7525 0.352283 56.7056 0.633533 57.7889 1.14395C59.7473 2.00853 60.8619 4.68562 61.1431 9.18562C61.4348 14.1179 60.315 17.0919 57.7889 18.1023C56.6067 18.5919 54.7785 18.9096 52.3098 19.0606L19.8931 21.0398L20.5389 31.7064L41.4556 30.4356C43.0806 30.3419 44.2942 30.321 45.1014 30.3731C45.9192 30.4148 46.8775 30.696 47.9764 31.2064C49.9348 32.071 51.0494 34.7481 51.3306 39.2481C51.6223 44.196 50.4608 47.1752 47.8514 48.1856C46.6692 48.6752 44.8514 48.9929 42.3931 49.144L21.6848 50.4148L22.3306 61.0815Z" fill="#FF8461"/>
</svg>
