<svg width="66" height="80" viewBox="0 0 66 80" fill="none" xmlns="http://www.w3.org/2000/svg">
<path d="M58.0864 34.4465C62.6802 38.9881 65.2531 44.3215 65.7948 50.4465C66.2792 57.4881 64.3885 63.5871 60.1281 68.7381C55.8781 73.8944 50.4198 76.7694 43.7531 77.3631L16.0239 79.8215C11.1177 80.2694 8.11769 79.1913 7.02393 76.5923C6.49269 75.4413 6.11769 73.634 5.89893 71.1756L0.690601 12.6756C0.555183 10.9829 0.5031 9.74856 0.544767 8.96731C0.576018 8.19127 0.826018 7.24856 1.29477 6.13397C2.11768 4.16522 4.76352 2.97772 9.2531 2.57147L35.8156 0.217307C42.2844 -0.366026 47.8989 1.39439 52.6489 5.48814C57.6177 9.65481 60.3885 14.9361 60.9614 21.3215C61.3625 25.9777 60.4042 30.3527 58.0864 34.4465ZM47.0239 51.0506C46.8833 49.3579 46.5708 48.0402 46.0864 47.0923C45.6125 46.134 44.9041 45.4881 43.9614 45.1548C42.5135 44.7121 40.5239 44.6027 37.9823 44.8215C35.451 45.0454 33.5083 44.7277 32.1489 43.8631C30.8 43.0038 29.9875 41.0454 29.7114 37.9881C29.4458 34.9361 29.9198 32.8579 31.1281 31.759C32.3364 30.6496 34.451 29.9621 37.4823 29.6965C40.3 29.4465 41.925 28.5611 42.3573 27.0298C42.4927 26.2538 42.4823 24.9881 42.3156 23.2381C42.1594 21.4777 41.4719 20.2954 40.2531 19.6965C39.0291 19.0871 37.2583 18.8788 34.9406 19.0715L20.1906 20.384L23.7531 60.3423L41.0239 58.8215C45.451 58.4204 47.451 55.8319 47.0239 51.0506Z" fill="#FF8461"/>
</svg>
