<svg width="51" height="66" viewBox="0 0 51 66" fill="none" xmlns="http://www.w3.org/2000/svg">
<path d="M49.4041 53.8101C50.2896 55.9246 50.7375 57.4507 50.7375 58.3934C50.7375 60.6174 48.9146 62.4924 45.2791 64.0184C43.3885 64.8361 41.8729 65.2476 40.7375 65.2476C39.5968 65.2476 38.6593 64.9663 37.925 64.4142C37.1854 63.8621 36.6437 63.2892 36.3 62.7059C35.701 61.5809 33.4093 56.2684 29.425 46.7684L26.6958 46.9351H15.5916V56.8934C15.5916 58.2424 15.55 59.258 15.4666 59.9351C15.3833 60.6017 15.1021 61.383 14.6333 62.2684C13.8104 63.8517 11.5187 64.6434 7.7583 64.6434C3.64372 64.6434 1.23747 63.5549 0.529134 61.3726C0.180175 60.3882 0.00830078 58.8674 0.00830078 56.8101V7.93506C0.00830078 6.57568 0.0499674 5.56006 0.133301 4.89339C0.227051 4.21631 0.513509 3.43506 0.987467 2.56006C1.80518 0.976725 4.09163 0.185059 7.84163 0.185059H26.8625C32.0291 0.185059 37.05 2.06006 41.925 5.81006C44.2687 7.63298 46.2062 10.0965 47.7375 13.2059C49.2635 16.3205 50.0291 19.784 50.0291 23.6017C50.0291 30.2424 47.826 35.7007 43.425 39.9767C44.7166 43.0913 46.7062 47.7007 49.4041 53.8101ZM15.5916 31.3517H26.8625C28.5708 31.3517 30.2687 30.7059 31.9666 29.4142C33.675 28.1226 34.5291 26.1851 34.5291 23.6017C34.5291 21.0184 33.675 19.0705 31.9666 17.7476C30.2687 16.4299 28.5135 15.7684 26.6958 15.7684H15.5916V31.3517Z" fill="#FF8461"/>
</svg>
