<svg width="79" height="81" viewBox="0 0 79 81" fill="none" xmlns="http://www.w3.org/2000/svg">
<path d="M49.4686 6.5386L76.5728 66.2678C77.7082 68.7001 78.2655 70.5126 78.2395 71.7053C78.1822 74.2469 76.0832 76.4865 71.9478 78.4136C69.5155 79.5646 67.6145 80.1219 66.2395 80.0803C64.8645 80.049 63.7395 79.7053 62.8645 79.0386C61.9999 78.3824 61.3853 77.7053 61.0103 76.9969C60.6353 76.2886 60.1145 75.2209 59.4478 73.7886L54.2186 62.2261L24.927 61.4969L19.1561 72.7886C18.4061 74.1949 17.828 75.2053 17.427 75.8303C17.0364 76.4449 16.3905 77.0751 15.4895 77.7261C14.5989 78.3771 13.4582 78.6844 12.0728 78.6428C10.6978 78.6115 8.82802 77.9657 6.46865 76.7053C2.42698 74.6376 0.432189 72.3303 0.489481 69.7886C0.515522 68.5959 1.16136 66.8094 2.42698 64.4344L32.4478 6.01777C33.2655 4.40839 34.4739 3.13235 36.0728 2.18444C37.6822 1.24173 39.3697 0.788602 41.1353 0.830269C44.953 0.929227 47.7291 2.83027 49.4686 6.5386ZM40.2603 31.7261L32.9478 46.0178L46.9895 46.3719L40.2603 31.7261Z" fill="#FF8461"/>
</svg>
