<svg width="128" height="173" viewBox="0 0 128 173" fill="none" xmlns="http://www.w3.org/2000/svg">
<path d="M52.5038 106.002L100.556 111.83C107.103 112.627 112.322 114.309 116.217 116.887C118.973 118.71 121.243 120.97 123.025 123.658C124.806 126.351 125.993 129.325 126.592 132.58C127.269 136.236 127.311 140.486 126.723 145.325C126.139 150.168 125.077 154.283 123.551 157.673C122.306 160.434 120.676 162.835 118.67 164.871C116.269 167.304 113.473 169.09 110.28 170.231C105.504 172.048 99.7799 172.559 93.108 171.746L29.5038 164.033C22.8997 163.231 17.3945 161.465 12.9882 158.736C9.95695 156.856 7.44654 154.548 5.45695 151.814C3.27987 148.809 1.84237 145.47 1.15487 141.798L17.884 138.663L1.34237 142.679C0.378827 138.71 0.274661 133.642 1.01945 127.476L12.9413 29.2464C13.358 25.8037 13.8267 23.0589 14.3528 21.012C15.2017 17.6787 16.8007 14.3402 19.1445 10.9964C24.9934 2.42349 35.108 -0.982765 49.4934 0.762027C56.0142 1.54849 61.4674 3.26203 65.8476 5.88703C68.8528 7.68911 71.358 9.89744 73.3736 12.5224C75.6184 15.4391 77.1392 18.6995 77.9361 22.3037L78.0299 22.736L78.1028 23.1683C78.7174 26.8558 78.6757 31.5693 77.9778 37.3141L67.3476 124.944L50.4517 122.897L52.5038 106.002ZM31.509 137.741L44.1913 33.2152C44.3736 31.6943 44.4778 30.4339 44.5038 29.4287C44.5142 29.0902 44.509 28.8141 44.4986 28.6006C44.4986 28.5693 44.4986 28.5485 44.4986 28.5433C44.5038 28.6058 44.5142 28.6787 44.5299 28.7724L61.3163 25.9704L44.6965 29.637C44.9882 30.9704 45.5559 32.1839 46.3945 33.2724C47.0038 34.0641 47.6549 34.6683 48.3424 35.0797C48.457 35.1474 48.5351 35.1891 48.5872 35.2099C48.4882 35.1735 48.3476 35.1214 48.1601 35.0693C47.4517 34.861 46.5299 34.6891 45.3945 34.5485C44.2434 34.4131 43.2695 34.3454 42.4726 34.3506C42.0872 34.3558 41.858 34.3662 41.7903 34.3818C42.3788 34.2516 43.0351 33.9756 43.759 33.5537C45.0924 32.7672 46.1809 31.7568 47.0299 30.512C46.9517 30.6214 46.8945 30.7099 46.8528 30.7829L46.8684 30.7412C47.0403 30.3974 47.1965 29.9652 47.3267 29.4495C47.1705 30.0693 46.9674 31.3662 46.7278 33.3454L34.8111 131.575C34.6392 132.976 34.5559 134.106 34.5507 134.965C34.5507 135.179 34.5559 135.325 34.5611 135.408C34.5455 135.215 34.4986 134.96 34.4205 134.653L34.5299 135.09L34.6132 135.533C34.358 134.179 33.8215 132.939 32.9934 131.804C32.3632 130.934 31.6705 130.267 30.9153 129.798C30.7799 129.715 30.6705 129.653 30.5872 129.616C30.6601 129.647 30.7747 129.689 30.9361 129.736C31.6132 129.939 32.5038 130.106 33.608 130.241L97.207 137.96C98.0767 138.064 98.759 138.101 99.2486 138.064L99.233 138.075C99.0195 138.121 98.884 138.153 98.8372 138.173C97.1445 138.778 95.6809 139.71 94.4361 140.965C93.5872 141.83 92.9465 142.736 92.5195 143.684C92.483 143.767 92.457 143.825 92.4465 143.851C92.4778 143.757 92.5142 143.627 92.5559 143.46C92.6965 142.871 92.8267 142.127 92.9361 141.226C93.0455 140.325 93.0976 139.575 93.1028 138.97C93.1028 138.798 93.0976 138.663 93.0924 138.564C93.0924 138.59 93.1028 138.653 93.1184 138.746C93.358 140.043 93.8632 141.272 94.634 142.439C95.4049 143.601 96.3372 144.548 97.4361 145.278C98.082 145.7 98.5559 145.955 98.8684 146.043C98.332 145.892 97.5247 145.752 96.457 145.621L48.4049 139.793L31.509 137.741Z" fill="white"/>
</svg>
