<svg width="118" height="136" viewBox="0 0 118 136" fill="none" xmlns="http://www.w3.org/2000/svg">
<path d="M113.596 101.509C115.982 105.468 117.31 108.395 117.576 110.28C118.242 114.738 115.164 119.03 108.346 123.155C104.805 125.337 101.888 126.593 99.5965 126.926C97.3152 127.259 95.3673 126.983 93.7423 126.093C92.1173 125.192 90.8569 124.212 89.9715 123.155C88.4819 121.087 82.3465 111.134 71.5548 93.301L66.159 94.426L43.9715 97.6968L46.8882 117.613C47.2892 120.311 47.5027 122.353 47.534 123.738C47.56 125.113 47.2267 126.754 46.534 128.655C45.3673 132.046 41.0236 134.296 33.5132 135.405C25.2892 136.613 20.159 135.15 18.1173 131.009C17.1173 129.124 16.31 126.124 15.7007 122.009L1.32566 24.301C0.924614 21.5926 0.71628 19.5614 0.700655 18.1968C0.674614 16.8218 1.00274 15.1864 1.67982 13.2801C2.84649 9.86347 7.19024 7.60826 14.7007 6.50931L52.7423 0.905139C63.0757 -0.620902 73.6642 1.65514 84.5132 7.73847C89.7475 10.6864 94.3465 15.0458 98.3048 20.8218C102.274 26.5874 104.826 33.2906 105.951 40.926C107.909 54.1916 105.102 65.7541 97.534 75.6135C101.034 81.4624 106.388 90.0926 113.596 101.509ZM39.3882 66.551L61.9298 63.2385C65.3309 62.7385 68.5444 60.9468 71.5757 57.8635C74.6017 54.7801 75.7319 50.6656 74.9715 45.5093C74.2215 40.3426 71.9402 36.6916 68.1382 34.551C64.3309 32.3999 60.6069 31.5874 56.9715 32.1135L34.784 35.3843L39.3882 66.551Z" fill="#28499A"/>
</svg>
