<svg width="86" height="89" viewBox="0 0 86 89" fill="none" xmlns="http://www.w3.org/2000/svg">
<path d="M18.2205 0.528809H67.1841C70.882 0.528809 73.9862 1.15381 76.4914 2.40902C78.3403 3.33089 79.9185 4.56006 81.2258 6.10173C82.5383 7.64339 83.5018 9.3986 84.1164 11.3674C84.7622 13.4299 85.0851 15.8153 85.0851 18.5132C85.0851 21.2528 84.7518 23.6538 84.0851 25.7163C83.5122 27.4976 82.6685 29.0913 81.5591 30.4976C80.2466 32.159 78.6424 33.4611 76.757 34.4038C74.0747 35.7424 70.856 36.4142 67.0955 36.4142H50.2778V24.8569H61.8351V69.1538C61.8351 71.0288 61.757 72.5444 61.5955 73.7111C61.3299 75.6746 60.6685 77.6694 59.6164 79.7059C58.6164 81.6434 57.2466 83.284 55.5122 84.6278C54.0382 85.7684 52.3664 86.633 50.4966 87.2215C48.2518 87.9299 45.6216 88.284 42.6164 88.284C39.5747 88.284 36.9341 87.9194 34.6893 87.1955C32.8351 86.5913 31.1737 85.7163 29.7101 84.5601C28.0226 83.2267 26.6841 81.6069 25.6997 79.7059C24.6372 77.6486 23.9758 75.6174 23.7101 73.5965C23.5591 72.4246 23.481 70.9142 23.481 69.0653V24.8569H35.0435V36.4142H18.132C14.4341 36.4142 11.3299 35.7892 8.82471 34.534C6.98096 33.6121 5.40283 32.383 4.09033 30.8413C2.77783 29.2996 1.81429 27.5444 1.19971 25.5757C0.553874 23.5132 0.230957 21.1278 0.230957 18.4299C0.230957 15.6903 0.56429 13.2892 1.23096 11.2215C1.80387 9.44547 2.64762 7.85173 3.757 6.44548C5.07471 4.78402 6.67367 3.48193 8.55908 2.53923C11.2414 1.20068 14.4653 0.528809 18.2205 0.528809ZM18.2205 23.6434C17.9289 23.6434 17.7362 23.6538 17.6528 23.6694C18.007 23.6069 18.4237 23.4559 18.8976 23.2163C20.0799 22.6278 21.0799 21.8153 21.8924 20.784C22.507 20.0132 22.9549 19.1903 23.231 18.3205C23.3143 18.0705 23.3612 17.8778 23.3768 17.7528C23.3612 17.9038 23.3507 18.1278 23.3507 18.4299C23.3507 18.7319 23.3612 18.9663 23.382 19.1278C23.3664 19.0392 23.3299 18.8882 23.2674 18.6799C22.9445 17.6486 22.4185 16.7059 21.6945 15.8569C20.9705 15.0028 20.1268 14.3413 19.1632 13.8569C18.5435 13.5444 17.9914 13.3517 17.5122 13.2736C17.5955 13.2892 17.8039 13.2944 18.132 13.2944H46.6008V69.0653C46.6008 69.9142 46.6112 70.4299 46.6372 70.6069C46.5487 69.9403 46.4133 69.4351 46.231 69.0809C45.6893 68.0288 44.9497 67.1382 44.0226 66.4038C43.3247 65.8517 42.5903 65.4507 41.8195 65.2007C41.6945 65.1642 41.5851 65.133 41.4914 65.1121C41.481 65.1121 41.4757 65.1069 41.4757 65.1069C41.4966 65.1121 41.5226 65.1174 41.5487 65.1174C41.8143 65.1538 42.1685 65.1694 42.6164 65.1694C43.0643 65.1694 43.4289 65.1486 43.7049 65.1174C43.757 65.1121 43.7882 65.1069 43.7987 65.1069C43.7257 65.1174 43.6424 65.1434 43.5382 65.1746C42.7882 65.4142 42.0643 65.7996 41.3664 66.3413C40.408 67.0809 39.6476 67.9976 39.0851 69.0809C38.9132 69.4142 38.783 69.9142 38.6893 70.5861C38.7101 70.4559 38.7153 69.9819 38.7153 69.1538V13.2944H67.0955C67.3924 13.2944 67.5799 13.2892 67.6633 13.2736C67.3091 13.3361 66.8924 13.4871 66.4185 13.7267C65.2362 14.3153 64.2362 15.1278 63.4237 16.159C62.8091 16.9299 62.3664 17.7528 62.0851 18.6226C62.0018 18.8726 61.9549 19.0653 61.9393 19.1903C61.9549 19.0392 61.9653 18.8153 61.9653 18.5132C61.9653 18.2111 61.9549 17.9767 61.9393 17.8101C61.9497 17.9038 61.9862 18.0549 62.0539 18.2632C62.3716 19.2944 62.8976 20.2371 63.6216 21.0861C64.3455 21.9351 65.1893 22.6017 66.1528 23.0861C66.7726 23.3986 67.3247 23.5913 67.8091 23.6642C67.7205 23.6538 67.5122 23.6434 67.1841 23.6434H18.2205Z" fill="white"/>
</svg>
