<svg width="86" height="164" viewBox="0 0 86 164" fill="none" xmlns="http://www.w3.org/2000/svg">
<path d="M1.99572 39.0037C1.38114 35.5922 1.02176 32.8318 0.917595 30.7224C0.750929 27.2849 1.2926 23.6235 2.5426 19.7381C5.6103 9.8266 14.2718 3.58181 28.5322 1.0141C34.9957 -0.152569 40.7093 -0.126526 45.6676 1.09222C49.0686 1.93076 52.1207 3.30056 54.8186 5.21201C57.8238 7.34222 60.2353 10.0089 62.0582 13.2172L62.277 13.6026L62.4749 13.9985C64.1468 17.337 65.4957 21.8579 66.5218 27.5506L84.0843 124.931C84.7249 128.493 85.0895 131.316 85.178 133.4C85.3238 136.748 84.7718 140.347 83.5322 144.202C80.4697 154.113 71.803 160.353 57.5426 162.926C50.9957 164.103 45.2145 164.04 40.1988 162.728C36.7509 161.827 33.6676 160.363 30.9645 158.332C27.9957 156.108 25.6416 153.342 23.902 150.035L38.9593 142.108L24.3395 150.816C22.2509 147.306 20.652 142.498 19.553 136.384L1.99572 39.0037ZM35.4905 32.9672L53.0478 130.347C53.2978 131.733 53.5478 132.842 53.7978 133.66C53.8603 133.863 53.9072 134.004 53.9384 134.082C53.8655 133.9 53.7457 133.676 53.5843 133.4L53.8134 133.785L54.0218 134.186C53.3863 132.967 52.5061 131.941 51.3811 131.103C50.5218 130.457 49.6624 130.025 48.803 129.795C48.6468 129.754 48.5218 129.733 48.4384 129.722C48.5113 129.728 48.6363 129.733 48.803 129.733C49.5113 129.728 50.4072 129.623 51.5061 129.426C52.6416 129.222 53.5947 128.998 54.3551 128.754C54.7249 128.634 54.9384 128.561 54.9957 128.525C54.4749 128.821 53.928 129.28 53.3655 129.9C52.3186 131.04 51.5738 132.332 51.1311 133.764C51.178 133.623 51.2145 133.504 51.2405 133.405V133.42C51.1676 133.816 51.1468 134.295 51.1728 134.858C51.1468 134.311 50.9541 133.014 50.5843 130.972L33.027 33.5922C32.7561 32.0818 32.4801 30.8474 32.2093 29.8787C32.1207 29.5506 32.0374 29.2901 31.9645 29.0922C31.9488 29.0558 31.9436 29.0401 31.9436 29.0349C31.9645 29.0922 32.0009 29.1599 32.0426 29.2433L47.2561 21.6235L32.4541 30.0245C33.1311 31.2068 34.027 32.2016 35.1468 32.9933C35.9645 33.5714 36.7666 33.9568 37.5478 34.1495C37.6728 34.1808 37.7613 34.1964 37.8134 34.2016C37.7093 34.1912 37.5634 34.186 37.3707 34.1912C36.6259 34.2016 35.6936 34.3058 34.5738 34.5089C33.4332 34.7172 32.4801 34.9412 31.7197 35.186C31.3499 35.3006 31.1363 35.3735 31.0791 35.4099C31.6051 35.1131 32.1468 34.6599 32.7145 34.0401C33.7561 32.8943 34.5009 31.6079 34.9436 30.1704C34.902 30.2954 34.8707 30.3995 34.8499 30.4776L34.8603 30.436C34.9228 30.0558 34.9384 29.5974 34.9124 29.0662C34.9436 29.7068 35.1363 31.0037 35.4905 32.9672Z" fill="white"/>
</svg>
