<svg width="152" height="169" viewBox="0 0 152 169" fill="none" xmlns="http://www.w3.org/2000/svg">
<path d="M87.0496 14.4801C90.2111 8.89152 94.8673 4.97485 101.018 2.73527C104.883 1.32381 109.378 0.506098 114.503 0.282141C119.513 0.06339 123.831 0.407142 127.461 1.30297C131.591 2.32381 135.086 3.84985 137.94 5.87589C142.065 8.80818 144.987 12.8498 146.711 18.0009L130.565 23.3863L146.352 17.0269C147.878 20.8134 148.774 25.7561 149.039 31.8446L151.383 85.5374C152.232 105.001 146.992 122.918 135.654 139.282C129.591 147.751 121.794 154.636 112.258 159.933C102.612 165.298 91.9194 168.235 80.1746 168.746C68.3725 169.261 57.4454 167.214 47.3829 162.605C37.4246 158.048 29.1694 151.772 22.6173 143.782C10.0704 128.772 3.36209 111.407 2.50272 91.6884L0.164174 38.1676C0.00792371 34.5894 0.0235488 31.7457 0.200631 29.6415C0.497507 26.2092 1.52876 22.6519 3.28917 18.9696C4.76834 15.8811 6.81522 13.2248 9.4298 11.0009C11.7527 9.02693 14.4298 7.48527 17.4506 6.3811C21.3152 4.97485 26.0183 4.15193 31.56 3.90714C37.0965 3.66756 41.8569 4.07902 45.8256 5.14152C49.0392 6.0061 51.909 7.36547 54.4298 9.23006C57.3413 11.3759 59.6277 14.053 61.2944 17.2509L46.2006 25.1103L60.935 16.5894C63.8673 21.6623 65.4975 27.9592 65.8256 35.4801L68.159 88.8186C68.3465 93.1571 69.6121 97.2717 71.9611 101.157C72.2527 101.652 72.7579 102.079 73.4767 102.444C74.4558 102.944 75.8829 103.157 77.7527 103.074C79.4246 103.001 80.6798 102.735 81.5131 102.277C82.0131 101.996 82.4767 101.511 82.8986 100.813C85.1069 97.1676 86.1017 92.8499 85.8829 87.8655L83.5079 33.4592C83.1642 25.5842 84.3413 19.2561 87.0496 14.4801ZM116.675 31.2405C117.034 30.6051 117.3 29.9957 117.471 29.4123C117.508 29.2873 117.539 29.1728 117.56 29.079V29.0946C117.471 29.7249 117.456 30.6832 117.513 31.9748L119.888 86.3811C120.409 98.2301 117.784 108.918 112.013 118.444C108.451 124.334 103.758 128.881 97.9402 132.084C92.4506 135.11 86.2163 136.772 79.2371 137.079C71.3881 137.423 64.31 135.985 58.0027 132.761C51.435 129.412 46.3725 124.74 42.8204 118.746C37.4819 109.907 34.5913 100.423 34.1538 90.303L31.8204 36.9644C31.7631 35.6624 31.6433 34.6103 31.4506 33.7978C31.4038 33.5946 31.3569 33.4436 31.3204 33.3446C31.3465 33.4071 31.3933 33.5061 31.4715 33.6363L31.284 33.3082L31.1069 32.9748C31.8673 34.4332 32.9038 35.6467 34.2163 36.6155C35.1486 37.303 36.0756 37.7665 37.0027 38.0165C36.409 37.8603 35.0913 37.8238 33.0444 37.9123C30.9975 38.0009 29.685 38.1519 29.1069 38.3655C29.909 38.0686 30.7006 37.5946 31.4819 36.9332C32.5496 36.0217 33.3881 34.9332 33.9923 33.6623C33.9402 33.7821 33.8933 33.8759 33.8621 33.9592L33.8725 33.9176C33.9871 33.5478 34.0704 33.0946 34.1173 32.5634C34.06 33.204 34.0808 34.5738 34.1694 36.6832L36.5079 90.1988C37.034 102.251 41.1746 112.912 48.9298 122.188C52.159 126.126 56.3673 129.282 61.56 131.662C66.6433 133.99 72.3569 135.017 78.6902 134.74C85.0808 134.459 90.7579 132.944 95.7215 130.183C100.8 127.36 104.784 123.933 107.675 119.902C114.659 109.813 117.893 98.8551 117.378 87.0269L115.034 33.329C114.971 31.9071 114.867 30.7509 114.727 29.8603C114.685 29.6103 114.649 29.4176 114.617 29.2873C114.643 29.3915 114.695 29.5426 114.779 29.7457L114.586 29.2665L114.419 28.7717C115.044 30.6519 116.32 32.2717 118.237 33.6311C118.748 33.9957 119.211 34.2613 119.633 34.4332L119.659 34.4488C119.565 34.4176 119.44 34.3811 119.289 34.3446C118.836 34.2301 117.732 34.2144 115.987 34.2926C114.357 34.3603 113.253 34.5009 112.675 34.7144C114.383 34.0894 115.716 32.9332 116.675 31.2405Z" fill="white"/>
</svg>
