<svg width="151" height="174" viewBox="0 0 151 174" fill="none" xmlns="http://www.w3.org/2000/svg">
<path d="M136.564 86.64C143.485 99.9577 145.355 113.671 142.183 127.786C140.209 135.817 137.079 142.906 132.798 149.036C128.449 155.275 122.965 160.52 116.355 164.775C109.709 169.051 102.704 171.838 95.3449 173.135C87.9907 174.437 80.4542 174.218 72.7355 172.484L27.0688 162.213C20.5792 160.755 15.2772 158.447 11.1678 155.291C8.33966 153.114 6.06883 150.567 4.3657 147.645C2.49591 144.442 1.40737 140.973 1.08966 137.249L18.048 135.812L1.14695 137.817C0.667783 133.76 1.09487 128.76 2.43341 122.812L24.1001 26.4473C24.8917 22.9161 25.6522 20.1713 26.3813 18.2181C27.5532 15.0775 29.4595 11.9786 32.1001 8.91085C38.7772 0.968138 49.1886 -1.41207 63.324 1.77022L107.079 11.6088C114.616 13.3015 121.324 16.2286 127.215 20.39C133.168 24.5931 138.137 29.9525 142.11 36.4629C146.137 42.8171 148.772 49.5671 150.027 56.7129C151.282 63.8848 151.074 71.2129 149.392 78.6973C146.897 89.7859 141.433 99.2234 133.001 106.999L121.465 94.489L136.564 86.64ZM106.36 102.333L100.366 90.7963L109.923 81.9786C113.152 78.9994 115.241 75.4161 116.183 71.2286C116.866 68.1765 116.975 65.2963 116.501 62.5931C116.022 59.8692 114.876 57.0723 113.064 54.2077C111.532 51.6973 109.704 49.6921 107.574 48.1869C105.387 46.64 102.73 45.515 99.6157 44.8171L55.8605 34.9786C54.7303 34.7233 53.7667 34.5619 52.9699 34.489C52.5845 34.4525 52.3605 34.4421 52.2876 34.4473C52.8865 34.3796 53.5688 34.1713 54.3292 33.8223C55.7355 33.1765 56.923 32.2754 57.8865 31.1244C57.7928 31.239 57.7147 31.3327 57.6522 31.4161L57.6574 31.4056C57.8709 31.0671 58.0792 30.6296 58.2772 30.1036C58.0845 30.614 57.7615 31.8848 57.3084 33.9108L35.6417 130.281C35.3292 131.671 35.1261 132.812 35.0272 133.708C35.0011 133.963 34.9855 134.156 34.9855 134.291C34.9855 134.187 34.9751 134.025 34.949 133.807L34.9803 134.088L35.0063 134.369C34.8865 132.999 34.4803 131.713 33.772 130.499C33.2303 129.572 32.6105 128.838 31.9074 128.296C31.7772 128.197 31.673 128.124 31.5949 128.083C31.6626 128.119 31.772 128.171 31.9282 128.234C32.5792 128.505 33.449 128.76 34.5376 129.005L80.199 139.27C83.4803 140.01 86.5532 140.124 89.4282 139.619C92.2928 139.114 95.1313 137.958 97.9386 136.15C100.782 134.317 103.1 132.119 104.887 129.557C106.751 126.885 108.116 123.807 108.975 120.317C110.329 114.291 109.459 108.296 106.36 102.333ZM78.6313 111.671C78.7615 111.078 78.8449 110.624 78.8657 110.301C78.8553 110.479 78.8813 110.77 78.9438 111.187C79.1365 112.416 79.5636 113.609 80.2251 114.755C80.9542 116.005 81.8709 117.057 82.9855 117.911L93.3345 104.395L83.699 118.426C83.8084 118.505 83.8761 118.546 83.9126 118.562C83.7772 118.499 83.5949 118.416 83.3553 118.328C82.5428 118.02 81.4855 117.718 80.1886 117.426C72.2251 115.635 66.1417 112.192 61.949 107.098C56.7042 100.723 55.2563 92.3119 57.6053 81.864C59.9751 71.3223 64.9803 64.3171 72.6261 60.8431C78.6001 58.1244 85.9334 57.7442 94.6261 59.7025C94.8032 59.739 94.949 59.7702 95.0688 59.7858L95.0636 59.7911C94.6053 59.765 94.0532 59.8119 93.4178 59.9317C92.1261 60.1817 90.8709 60.6869 89.6574 61.4421C88.1261 62.3952 86.8553 63.6244 85.8605 65.1348L100.048 74.5306L85.0115 66.5619C84.8709 66.8275 84.7615 67.0515 84.6886 67.239C84.699 67.2077 84.7251 67.1296 84.7667 67.0046C84.949 66.4317 85.147 65.6504 85.3709 64.6661C85.1365 65.6973 85.173 66.89 85.4751 68.2494C85.9699 70.4681 87.0376 72.364 88.6782 73.9421C89.2772 74.5202 89.798 74.9108 90.2407 75.1088C89.9074 74.9577 89.3397 74.7911 88.5376 74.614L64.2303 69.1452L67.9595 52.5411L84.5688 56.2754L69.772 122.083L53.1678 118.348L56.897 101.744L85.3761 108.15L85.4074 108.166C85.1417 108.145 84.8345 108.161 84.4855 108.203C83.2199 108.359 82.0115 108.833 80.8657 109.624C79.8709 110.307 79.1261 111.083 78.6261 111.953C78.548 112.093 78.4959 112.192 78.4699 112.255C78.522 112.119 78.574 111.926 78.6313 111.671ZM111.84 119.14C109.98 127.416 106.084 133.593 100.152 137.671C96.7407 140.015 92.923 141.453 88.7042 141.979C85.2615 142.411 81.6626 142.203 77.9074 141.359L32.8292 131.223L55.0897 32.2025L96.0063 41.4056C102.918 42.9577 108.34 45.6296 112.272 49.4108C115.564 52.5775 117.704 56.3848 118.699 60.8431C119.501 64.4421 119.459 68.2077 118.579 72.1296C117.595 76.5098 116.428 79.9629 115.084 82.5046L114.694 83.239L114.235 83.9317C112.501 86.5515 110.303 88.6869 107.637 90.3431C105.293 91.8015 102.709 92.8067 99.8917 93.3536C96.0324 94.0984 91.7928 93.9525 87.1574 92.9109C85.9126 92.6296 84.9959 92.489 84.397 92.4942C84.9699 92.489 85.7407 92.2702 86.7095 91.8275C88.7199 90.9161 90.1782 89.6869 91.0897 88.1452C91.1522 88.0359 91.199 87.9473 91.2303 87.8796C91.2251 87.8952 91.2095 87.9317 91.1834 87.9994C91.0636 88.3327 90.9386 88.7754 90.8136 89.3275C90.6886 89.9004 90.6053 90.3744 90.5688 90.7494C90.5584 90.8275 90.5584 90.8796 90.5532 90.9109C90.5584 90.8484 90.5532 90.7598 90.5428 90.6452C90.397 88.89 89.6261 87.1661 88.2303 85.4681C87.6053 84.7025 86.9803 84.1661 86.3709 83.8484C86.5532 83.9421 86.9803 84.0671 87.6522 84.2181C93.9542 85.6348 99.0584 87.6817 102.965 90.3692L103.329 90.6192L103.678 90.8848C106.142 92.7702 108.142 95.0411 109.678 97.6869C111.152 100.234 112.121 103.005 112.584 105.994C113.183 109.885 112.933 114.265 111.84 119.14Z" fill="white"/>
</svg>
