<svg width="63" height="79" viewBox="0 0 63 79" fill="none" xmlns="http://www.w3.org/2000/svg">
<path d="M55.7517 36.9447C59.9444 41.851 62.0642 47.3718 62.1059 53.5072C62.0069 60.5645 59.6267 66.4864 54.9601 71.2781C50.2934 76.0698 44.6111 78.4864 37.9184 78.5281L10.0851 78.6948C5.15277 78.726 2.25694 77.4031 1.39756 74.7364C0.949649 73.5437 0.720481 71.7104 0.710065 69.2364L0.376731 10.5072C0.361106 8.81454 0.402773 7.58017 0.501731 6.79891C0.595481 6.02287 0.928814 5.101 1.50173 4.02808C2.47048 2.12704 5.21527 1.1635 9.7309 1.13225L36.3976 0.986415C42.8819 0.944748 48.3246 3.16871 52.7309 7.65308C57.3403 12.2104 59.6684 17.6947 59.7101 24.1114C59.7361 28.7781 58.4184 33.0593 55.7517 36.9447ZM43.3767 52.5906C43.3611 50.8979 43.1528 49.5593 42.7517 48.5697C42.3611 47.5697 41.7101 46.8614 40.7934 46.4447C39.3871 45.8927 37.4184 45.6218 34.8767 45.6322C32.3351 45.6479 30.4236 45.1687 29.1476 44.1947C27.8663 43.2104 27.2153 41.1843 27.1892 38.1114C27.1736 35.0437 27.8142 33.0177 29.1059 32.0281C30.408 31.0281 32.5747 30.5229 35.6059 30.5072C38.4392 30.4968 40.1319 29.7364 40.6892 28.2364C40.8819 27.476 40.9705 26.2104 40.9601 24.4447C40.9601 22.6843 40.3767 21.4552 39.2101 20.7572C38.0434 20.0489 36.2934 19.7052 33.9601 19.7156L19.1476 19.8197L19.3976 59.9239L36.7517 59.8197C41.1944 59.7937 43.4028 57.3822 43.3767 52.5906Z" fill="#FF8461"/>
</svg>
