<svg width="104" height="133" viewBox="0 0 104 133" fill="none" xmlns="http://www.w3.org/2000/svg">
<path d="M31.7734 99.7452L86.3775 100.62C89.0963 100.662 91.1327 100.787 92.4817 100.995C93.8411 101.193 95.4036 101.776 97.1692 102.745C100.336 104.453 101.857 109.094 101.732 116.662C101.591 124.943 99.3255 129.756 94.94 131.099C92.9088 131.776 89.8255 132.084 85.69 132.016L15.5025 130.891C7.22128 130.75 2.40878 128.427 1.06503 123.912C0.367118 121.995 0.0546166 118.969 0.127534 114.828L1.7317 16.266C1.82545 10.2399 3.01295 6.1566 5.2942 4.01598C7.58587 1.86494 11.8619 0.838895 18.1275 0.932644L87.9817 2.05764C90.7005 2.09931 92.7369 2.2191 94.0859 2.41181C95.4296 2.60973 96.9869 3.19306 98.7525 4.16181C101.919 5.88577 103.44 10.5264 103.315 18.0785C103.19 26.3597 100.924 31.1722 96.5234 32.516C94.4921 33.1983 91.4088 33.5056 87.2734 33.4326L32.8567 32.5576L32.565 50.4743L67.6692 51.0368C70.3775 51.0785 72.4088 51.2035 73.7734 51.4118C75.1327 51.6097 76.6952 52.1931 78.4609 53.1618C81.6275 54.8701 83.1484 59.5056 83.0234 67.0576C82.8984 75.3233 80.5702 80.1358 76.0442 81.4951C74.013 82.1618 70.94 82.4691 66.815 82.4118L32.065 81.8493L31.7734 99.7452Z" fill="#28499A"/>
</svg>
