<svg width="94" height="135" viewBox="0 0 94 135" fill="none" xmlns="http://www.w3.org/2000/svg">
<path d="M32.8203 105.477L81.1536 108.352C85.039 108.591 87.8515 109.206 89.5911 110.206C91.3255 111.196 92.4245 112.654 92.8828 114.581C93.3515 116.513 93.4922 119.05 93.2995 122.185C93.1172 125.326 92.6797 127.821 91.987 129.664C91.289 131.524 90.2057 132.774 88.737 133.414C86.414 134.456 83.3047 134.862 79.4036 134.644L15.4453 130.81C7.13799 130.321 2.40883 127.784 1.25779 123.185C0.658827 121.258 0.486953 118.216 0.736953 114.06L6.65362 15.2894C6.80466 12.555 7.00779 10.5185 7.25779 9.18521C7.5182 7.84146 8.18487 6.305 9.25779 4.58104C11.0911 1.47167 15.7995 0.143542 23.3828 0.601875C31.6745 1.09146 36.4661 3.57583 37.7578 8.06021C38.2265 10.1019 38.3411 13.2008 38.0911 17.3519L32.8203 105.477Z" fill="#28499A"/>
</svg>
