<svg width="132" height="133" viewBox="0 0 132 133" fill="none" xmlns="http://www.w3.org/2000/svg">
<path d="M81.3661 9.40898L128.387 109.221C130.356 113.279 131.33 116.315 131.304 118.326C131.262 122.591 127.788 126.409 120.887 129.784C116.814 131.753 113.621 132.727 111.304 132.701C108.996 132.685 107.106 132.138 105.637 131.055C104.179 129.971 103.127 128.836 102.491 127.638C101.85 126.445 100.939 124.659 99.7619 122.284L90.7203 102.951L41.4078 102.43L31.9494 121.555C30.7515 123.919 29.8244 125.633 29.1578 126.701C28.4911 127.758 27.4078 128.841 25.9078 129.951C24.4078 131.06 22.4963 131.602 20.1786 131.576C17.8713 131.56 14.7203 130.524 10.7203 128.471C3.85568 125.055 0.449434 121.216 0.4911 116.951C0.517142 114.94 1.55881 111.925 3.6161 107.909L52.7203 8.92981C54.0536 6.21106 56.0588 4.03398 58.7411 2.40898C61.4338 0.77356 64.2671 -0.0337318 67.2411 -0.00769043C73.6421 0.0652269 78.3505 3.20064 81.3661 9.40898ZM66.5119 51.9715L54.5119 76.2215L78.1786 76.4715L66.5119 51.9715Z" fill="#28499A"/>
</svg>
