<svg width="64" height="79" viewBox="0 0 64 79" fill="none" xmlns="http://www.w3.org/2000/svg">
<path d="M61.9858 63.8591C63.1369 66.3591 63.7358 68.1716 63.7775 69.2966C63.8608 71.9789 61.7463 74.3122 57.4442 76.2966C55.2202 77.3539 53.4233 77.9112 52.0483 77.9633C50.6733 78.0049 49.5327 77.7081 48.6317 77.0674C47.7254 76.432 47.0535 75.7653 46.6108 75.0674C45.8608 73.7653 42.8921 67.4789 37.715 56.2133L34.4442 56.5466L21.1108 56.9841L21.5067 68.9216C21.5588 70.5466 21.5483 71.7706 21.465 72.5883C21.3921 73.4112 21.09 74.3539 20.5483 75.4216C19.6317 77.3539 16.9233 78.3956 12.4233 78.5466C7.49105 78.7133 4.55876 77.5049 3.63167 74.9216C3.15772 73.7445 2.88167 71.9164 2.79834 69.4424L0.819174 10.7549C0.761882 9.12993 0.76709 7.91639 0.840008 7.10909C0.923341 6.29139 1.23584 5.33826 1.77751 4.25493C2.69417 2.32784 5.40772 1.28618 9.92334 1.12993L32.7567 0.359095C38.965 0.150762 45.0744 2.20805 51.09 6.52576C53.965 8.62472 56.3817 11.5153 58.34 15.1924C60.3088 18.8747 61.3713 22.9997 61.5275 27.5674C61.7879 35.5414 59.3608 42.1872 54.2358 47.5049C55.9129 51.2028 58.4963 56.6508 61.9858 63.8591ZM20.4858 38.2549L34.0275 37.7966C36.0796 37.7289 38.1004 36.8903 40.09 35.2758C42.0744 33.6664 43.0119 31.3122 42.9025 28.2133C42.8035 25.1039 41.7046 22.7914 39.6108 21.2758C37.5119 19.7497 35.366 19.0258 33.1733 19.1091L19.84 19.5466L20.4858 38.2549Z" fill="#FF8461"/>
</svg>
