<svg width="75" height="89" viewBox="0 0 75 89" fill="none" xmlns="http://www.w3.org/2000/svg">
<path d="M72.0866 61.362C73.5605 64.8984 74.2949 67.9036 74.2949 70.388C74.2949 72.5755 73.8522 74.6693 72.9616 76.6745C72.1803 78.4453 71.0814 80.0547 69.6751 81.513C67.6647 83.5859 65.0241 85.3099 61.748 86.6797C58.498 88.1016 55.498 88.8151 52.7428 88.8151C48.998 88.8151 45.7272 87.7474 42.9303 85.6224C41.0137 84.1641 39.498 82.5078 38.3835 80.6484L38.2168 80.3724L38.0658 80.0859C37.321 78.6745 34.8887 73.0547 30.7637 63.237L41.4251 58.763L42.1699 70.2943L39.0658 70.4974H27.597V58.9349H39.1595V68.888C39.1595 70.737 39.0814 72.2526 38.9303 73.4245C38.6595 75.487 37.9564 77.5807 36.8262 79.7005C35.873 81.5495 34.5137 83.1432 32.7585 84.487C31.3835 85.5339 29.821 86.362 28.0762 86.9661C25.7064 87.7891 22.9355 88.1953 19.7585 88.1953C16.0449 88.1953 12.8314 87.5859 10.1178 86.362C8.14909 85.4714 6.45117 84.2786 5.02409 82.7891C3.42513 81.112 2.26367 79.1641 1.54492 76.9453L12.5397 73.3776L1.63867 77.2266C0.847005 74.9818 0.451172 72.1745 0.451172 68.7995V19.9245C0.451172 18.0755 0.529297 16.5599 0.680339 15.3932C0.951172 13.3255 1.64909 11.2318 2.7793 9.11198C3.73763 7.26823 5.0918 5.66927 6.85222 4.32552C8.22722 3.27864 9.78451 2.45052 11.5293 1.84635C13.8991 1.02344 16.6751 0.617188 19.847 0.617188H38.8678C46.6647 0.617188 54.0345 3.29427 60.9876 8.65885C64.7637 11.5807 67.8053 15.4036 70.1178 20.1172C72.4355 24.8359 73.5918 29.9974 73.5918 35.6016C73.5918 40.4141 72.7585 44.8776 71.1022 48.9922C69.3939 53.2318 66.8574 56.987 63.4876 60.263L55.4251 51.9818L66.1022 47.5495C67.3626 50.5807 69.321 55.1068 71.9876 61.1328L72.0866 61.362ZM50.8418 70.4818C48.1074 64.2943 46.0762 59.6068 44.7533 56.4141L41.7428 49.1693L47.3626 43.6953C48.3991 42.6849 49.1647 41.5703 49.6595 40.3464C50.2012 39.0026 50.472 37.4245 50.472 35.6016C50.472 33.5703 50.1022 31.8047 49.3626 30.2995C48.623 28.7891 47.7949 27.6797 46.873 26.9661C44.0762 24.8099 41.4095 23.7318 38.8678 23.7318H19.847C19.4095 23.7318 19.0658 23.7526 18.8053 23.7839C18.7793 23.7891 18.7585 23.7891 18.7428 23.7943C18.7428 23.7943 18.7533 23.7943 18.7637 23.7891C18.8574 23.7682 18.9668 23.737 19.0918 23.6901C19.696 23.487 20.2897 23.1536 20.8887 22.6953C21.8678 21.9453 22.6335 21.0443 23.1803 19.9922C23.3678 19.6328 23.5085 19.0964 23.6022 18.3828C23.5814 18.5599 23.571 19.0755 23.571 19.9245V68.7995C23.571 69.3828 23.5866 69.8411 23.623 70.1641C23.5814 69.9766 23.5241 69.7682 23.4408 69.5339L23.5345 69.8151C23.1699 68.6849 22.571 67.6849 21.748 66.8203C21.097 66.1432 20.3939 65.6328 19.6283 65.2891C19.3158 65.1484 19.071 65.0599 18.8991 65.0339C19.0814 65.0651 19.3678 65.0807 19.7585 65.0807C20.196 65.0807 20.5449 65.0599 20.8001 65.0286C20.8262 65.0234 20.8522 65.0234 20.8678 65.0182C20.8626 65.0182 20.8574 65.0234 20.8418 65.0234C20.748 65.0443 20.6387 65.0755 20.5137 65.1224C19.9147 65.3307 19.3158 65.6589 18.7168 66.1172C17.7376 66.8672 16.9772 67.7682 16.4303 68.8203C16.2376 69.1797 16.097 69.7161 16.0033 70.4297C16.0293 70.2526 16.0397 69.737 16.0397 68.888V47.3776H38.696V58.9349L37.9512 47.4036L48.8939 46.6953L52.0814 54.2891C55.946 63.487 58.0918 68.4974 58.5241 69.3151L48.2949 74.7005L58.2064 68.7526C57.7949 68.0703 57.3626 67.5547 56.9147 67.2161C56.1647 66.6432 55.347 66.2266 54.4668 65.9661C53.8626 65.7839 53.2897 65.6953 52.7428 65.6953C52.2845 65.6953 51.9355 65.7266 51.7012 65.7943C51.9095 65.737 52.2793 65.5911 52.8053 65.362C53.1439 65.2214 53.3939 65.1016 53.5501 65.0026C53.4303 65.0755 53.2689 65.2161 53.071 65.4245C52.571 65.9401 52.1543 66.5703 51.8262 67.3099C51.3939 68.2891 51.1751 69.3151 51.1751 70.388C51.1751 70.8359 51.2116 71.237 51.2741 71.6016C51.2845 71.6693 51.3001 71.7266 51.3105 71.7734C51.3105 71.7734 51.3053 71.763 51.3001 71.7422C51.2012 71.3984 51.0189 70.9036 50.7428 70.2526L50.8418 70.4818ZM27.597 31.7891H38.8678C38.3105 31.7891 37.7949 31.8776 37.3262 32.0599C37.1908 32.1068 37.0762 32.1589 36.9824 32.2109L36.9928 32.2057C36.248 32.7682 35.6908 33.4766 35.3105 34.3411C35.0866 34.8516 34.972 35.2734 34.972 35.6016C34.972 35.9141 35.0814 36.3203 35.3001 36.8203C35.6595 37.6432 36.1908 38.3307 36.8939 38.8776C36.9668 38.9349 37.1074 39.0026 37.321 39.0807C37.748 39.2422 38.2064 39.3203 38.696 39.3203H27.597V27.763H39.1595V43.3516H27.597V31.7891ZM16.0397 54.9089V16.2005H38.696C43.1543 16.2005 47.2741 17.6745 51.0658 20.612C53.4668 22.4766 55.2793 24.7995 56.4876 27.5755C57.5553 30.0286 58.0918 32.7005 58.0918 35.6016C58.0918 38.5078 57.5553 41.1901 56.4772 43.638C55.248 46.4401 53.4095 48.7682 50.9668 50.6224C47.196 53.4818 43.1647 54.9089 38.8678 54.9089H16.0397Z" fill="white"/>
</svg>
