<svg width="89" height="90" viewBox="0 0 89 90" fill="none" xmlns="http://www.w3.org/2000/svg">
<path d="M61.9704 11.7214L85.7516 60.862C87.5173 64.3932 88.4027 67.5703 88.4027 70.388C88.4027 72.4766 87.9912 74.4974 87.1683 76.4401C86.46 78.1172 85.4652 79.6693 84.1891 81.0964C82.3558 83.1536 79.9287 84.9349 76.9027 86.4505C73.2829 88.263 69.986 89.1641 67.0225 89.1641C63.3923 89.1641 60.1995 88.1745 57.4495 86.1953C55.3037 84.6484 53.6527 82.8255 52.4912 80.7109C52.0954 79.9922 51.5693 78.9766 50.9183 77.6693L46.262 68.0026L56.6735 62.987V74.5495H32.2829V62.987L42.6943 68.0026L38.1162 77.513C37.335 79.0859 36.6943 80.2734 36.1995 81.0807C35.1214 82.8464 33.637 84.4505 31.7464 85.888C28.9443 88.013 25.6735 89.0807 21.9339 89.0807C18.9704 89.0807 15.6735 88.1745 12.0537 86.362C9.09538 84.9349 6.68392 83.1953 4.82455 81.1432C3.53288 79.7109 2.52246 78.1536 1.7985 76.4609C0.970377 74.513 0.553711 72.487 0.553711 70.388C0.553711 67.5703 1.45996 64.3464 3.27246 60.7266L26.9808 11.638C28.585 8.28385 31.0016 5.60156 34.2308 3.59115C37.4235 1.60677 40.8506 0.617188 44.5225 0.617188C48.3923 0.617188 51.8714 1.61719 54.96 3.6276C57.8923 5.53385 60.2048 8.1849 61.9079 11.5859L61.9704 11.7214ZM41.2308 21.9245C41.262 21.987 41.3298 22.0859 41.4443 22.2161C41.6943 22.5078 41.9964 22.7734 42.361 23.013C43.1006 23.4922 43.8245 23.7318 44.5225 23.7318C45.2568 23.7318 45.8975 23.5651 46.4443 23.2214C47.0329 22.8568 47.486 22.3464 47.7985 21.6953L23.9495 71.0651C23.6943 71.5703 23.5329 71.9401 23.4548 72.1693C23.6006 71.7318 23.6735 71.138 23.6735 70.388C23.6735 69.3411 23.4704 68.3411 23.0641 67.3932C22.7725 66.7005 22.4027 66.1068 21.9548 65.6172C21.7829 65.4245 21.6475 65.2943 21.5485 65.2318C21.6995 65.3307 21.9808 65.4818 22.3923 65.6849C22.8506 65.9141 23.1839 66.0599 23.3975 66.1276C23.0433 66.0182 22.5537 65.9609 21.9339 65.9609C21.387 65.9609 20.8089 66.0495 20.2048 66.2266C19.3298 66.4922 18.512 66.9089 17.7568 67.4818C17.335 67.7995 16.9079 68.3151 16.4756 69.0234C16.6266 68.7786 16.8975 68.263 17.2881 67.487L25.0173 51.4297H63.9391L71.5954 67.3307C72.111 68.3672 72.4964 69.1172 72.7464 69.5703C72.2308 68.6328 71.637 67.9193 70.96 67.4349C70.2204 66.9036 69.4287 66.5182 68.5902 66.2839C68.0381 66.1276 67.512 66.0495 67.0225 66.0495C66.4027 66.0495 65.9131 66.1068 65.5589 66.2161C65.7725 66.1484 66.1058 66.0026 66.5641 65.7734C66.8923 65.6068 67.137 65.4714 67.2985 65.3568C67.2204 65.4089 67.1006 65.5286 66.9391 65.7057C66.5173 66.1797 66.1631 66.7526 65.8766 67.4245C65.4808 68.362 65.2829 69.3516 65.2829 70.388C65.2829 71.138 65.3558 71.7318 65.5016 72.1693C65.4235 71.9401 65.2412 71.5286 64.9391 70.9297L41.1631 21.7891L41.2308 21.9245ZM54.8506 42.9089L49.0381 54.9714L38.6214 49.9557V38.3932H50.335V49.9557L39.9495 55.0339L34.0485 42.9661L44.4339 37.888L54.8506 42.9089ZM44.3558 11.4193L68.8558 61.513H20.2204L34.0225 32.8724L44.3558 11.4193Z" fill="white"/>
</svg>
