<svg width="125" height="133" viewBox="0 0 125 133" fill="none" xmlns="http://www.w3.org/2000/svg">
<path d="M12.6576 4.03618L111.199 0.723675C114.975 0.598675 117.762 0.952842 119.553 1.78618C121.356 2.60909 122.585 3.94763 123.241 5.80701C123.908 7.67159 124.288 10.1403 124.387 13.2237C124.481 16.2966 124.267 18.7601 123.741 20.6195C123.21 22.4685 122.251 23.7758 120.866 24.5362C118.783 25.6612 115.788 26.2862 111.887 26.4112L78.0326 27.557L81.0118 116.703C81.1056 119.427 81.0847 121.442 80.9493 122.745C80.8243 124.052 80.3451 125.578 79.5118 127.328C78.6889 129.067 77.1681 130.328 74.9493 131.12C72.7253 131.901 69.7826 132.349 66.116 132.474C62.4493 132.588 59.5118 132.328 57.3035 131.703C55.1056 131.067 53.5326 129.906 52.5743 128.224C51.6264 126.531 51.0431 125.01 50.8243 123.661C50.616 122.302 50.4597 120.26 50.366 117.536L47.3868 28.5778L13.366 29.7237C9.5743 29.8487 6.77222 29.5049 4.97013 28.682C3.16284 27.8643 1.93368 26.5153 1.28263 24.6403C0.631593 22.7653 0.256593 20.2966 0.157635 17.2237C0.04826 14.156 0.256593 11.6976 0.782635 9.84868C1.31388 8.00493 2.27222 6.69763 3.67847 5.93201C5.7618 4.79659 8.75139 4.16118 12.6576 4.03618Z" fill="#28499A"/>
</svg>
