<svg width="57" height="81" viewBox="0 0 57 81" fill="none" xmlns="http://www.w3.org/2000/svg">
<path d="M2.4863 66.8756C0.777962 64.5162 -0.02933 62.4381 0.0696287 60.6465C0.163379 58.8444 1.7988 56.5527 4.96546 53.7715C6.82484 52.1621 8.7415 51.4121 10.7155 51.5215C12.6998 51.636 15.3613 53.5371 18.6946 57.2298C19.5957 58.4798 20.9342 59.7037 22.7155 60.8965C24.4915 62.0944 26.1582 62.7298 27.7155 62.8131C34.2571 63.1777 37.6738 60.6829 37.9655 55.334C38.0488 53.709 37.2207 52.3079 35.4863 51.1256C33.7467 49.9329 31.554 49.0162 28.903 48.3756C26.2467 47.7246 23.403 46.7715 20.3613 45.5215C17.33 44.261 14.5123 42.8235 11.903 41.2089C9.304 39.5839 7.19463 37.1204 5.56963 33.8131C3.95505 30.511 3.27796 26.5996 3.52796 22.0839C3.8613 15.8912 6.44984 10.6152 11.2988 6.25061C16.1582 1.87561 22.5696 -0.0931355 30.528 0.333947C34.7467 0.557906 38.5748 1.31311 42.0071 2.60478C45.4498 3.88603 47.804 5.12041 49.0696 6.31311L51.5905 8.45895C53.6738 10.6412 54.6738 12.4329 54.5905 13.8339C54.5175 15.2402 53.5748 17.1256 51.7571 19.5006C49.1738 22.9069 46.6113 24.5371 44.0696 24.3964C42.5957 24.3131 40.804 23.511 38.6946 21.9798C38.4863 21.8287 38.0957 21.4537 37.528 20.8548C36.9707 20.261 36.4498 19.7714 35.9655 19.3964C34.5488 18.3964 32.6946 17.8339 30.403 17.7089C28.1113 17.5839 26.1738 18.0319 24.5905 19.0423C23.0175 20.0579 22.179 21.5371 22.0696 23.4798C21.9707 25.4121 22.7884 27.0214 24.528 28.3131C26.2623 29.6048 28.4498 30.5371 31.0905 31.1048C33.7415 31.6777 36.6321 32.4902 39.7571 33.5423C42.8925 34.5996 45.7623 35.8287 48.3613 37.2298C50.9707 38.636 53.0905 40.9537 54.7155 44.1881C56.3509 47.4121 57.0488 51.3131 56.7988 55.8965C56.5488 60.4798 55.4082 64.4694 53.3821 67.8548C51.3665 71.2454 48.8405 73.8131 45.7988 75.5631C39.8665 78.9798 33.6634 80.511 27.1946 80.1673C23.8717 80.0006 20.7623 79.4277 17.8613 78.459C14.955 77.485 12.6165 76.3548 10.8405 75.0631C7.21546 72.5944 4.72588 70.2662 3.38213 68.084L2.4863 66.8756Z" fill="#FF8461"/>
</svg>
