<svg width="93" height="109" viewBox="0 0 93 109" fill="none" xmlns="http://www.w3.org/2000/svg">
<path d="M35.4918 61.2118L68.0179 59.2274C70.2418 59.092 72.0595 59.0712 73.4762 59.1702C75.971 59.342 78.5335 60.0295 81.1585 61.2274C83.4397 62.2379 85.4554 63.7535 87.1949 65.7587C88.5543 67.3316 89.6585 69.1441 90.5126 71.191C91.6689 73.9722 92.3616 77.2691 92.596 81.0764C92.8668 85.5295 92.3668 89.4254 91.096 92.7743C90.1741 95.2014 88.872 97.3212 87.1897 99.1389C85.2887 101.186 83.0387 102.722 80.4345 103.743L75.3564 90.8212L80.7679 103.608C78.1324 104.722 74.7939 105.405 70.747 105.649L28.9241 108.201C24.4241 108.477 20.4814 107.951 17.096 106.628C14.6585 105.675 12.5335 104.337 10.721 102.608C8.71056 100.696 7.21056 98.441 6.21056 95.8368L19.1741 90.8576L6.49181 96.5139C5.31473 93.8785 4.60119 90.4931 4.34598 86.3524L0.767854 27.6337C0.309521 20.1389 2.02306 14.2587 5.90848 9.98265C9.70015 5.81077 15.3356 3.49827 22.8251 3.04515L64.4397 0.503483C66.6585 0.368066 68.4762 0.35244 69.8929 0.446191C72.3876 0.618066 74.9501 1.30557 77.5751 2.50869C79.8564 3.51911 81.872 5.02953 83.6116 7.03994C84.971 8.61286 86.0751 10.4201 86.9293 12.4722C88.0856 15.2535 88.7835 18.5451 89.0126 22.3524C89.2835 26.8056 88.7835 30.7066 87.5126 34.0504C86.596 36.4774 85.2887 38.6024 83.6064 40.4201C81.7106 42.467 79.4554 43.9983 76.8512 45.0243L71.7731 32.0972L77.1845 44.8889C74.5491 46.0035 71.2106 46.6806 67.1637 46.9306L34.7418 48.9097L33.8929 35.0451L47.7574 34.2014L48.4085 44.8681L34.5439 45.7118L33.7001 31.8524L54.6116 30.5764C56.8304 30.441 58.6481 30.4201 60.0647 30.5191C62.5647 30.691 65.122 31.3733 67.747 32.5764C70.0335 33.5868 72.0439 35.0972 73.7835 37.1076C75.1429 38.6806 76.2522 40.4931 77.1012 42.5399C78.2626 45.3212 78.9554 48.6181 79.1897 52.4254C79.4606 56.9254 78.9345 60.8681 77.6116 64.2535C76.6585 66.6858 75.3199 68.8108 73.5908 70.6285C71.6793 72.6337 69.4241 74.1389 66.8199 75.1389L61.8408 62.1754L67.2522 74.967C64.6168 76.0764 61.2783 76.7587 57.2314 77.0035L36.5335 78.2691L35.6845 64.4045L49.5491 63.5608L50.2001 74.2274L36.3356 75.0712L35.4918 61.2118ZM23.3199 89.7795L20.9762 51.3889L55.5387 49.2795C56.2418 49.2379 56.7835 49.1806 57.1689 49.1129L57.1741 49.1181C56.9501 49.1806 56.7054 49.2691 56.4293 49.3837L56.6429 49.2952L56.8564 49.2118C55.5699 49.7066 54.4397 50.4618 53.4762 51.4722C52.6949 52.2952 52.1168 53.1806 51.747 54.1285C51.5856 54.5347 51.497 54.8577 51.471 55.092C51.4918 54.8889 51.4918 54.5608 51.4606 54.1129C51.4293 53.592 51.3824 53.1754 51.3251 52.8681C51.3199 52.8368 51.3147 52.8108 51.3095 52.7899C51.3095 52.7952 51.3147 52.8056 51.3147 52.8212C51.346 52.9306 51.3929 53.0608 51.4554 53.2066C51.7522 53.9097 52.1897 54.6024 52.7835 55.2899C53.7522 56.4097 54.8876 57.2587 56.1949 57.8368C56.6376 58.0347 57.2887 58.1702 58.1585 58.2274C57.9397 58.2118 57.3199 58.2379 56.3043 58.3004L21.5283 60.4202L19.1845 22.0295L65.471 19.2066C66.1741 19.1597 66.7158 19.1076 67.1012 19.0399H67.1064C66.8824 19.1024 66.6376 19.191 66.3616 19.3056L66.5231 19.2379L66.6897 19.1754C65.3616 19.6962 64.2106 20.4826 63.2314 21.5347C62.4658 22.3629 61.9085 23.2483 61.5491 24.191C61.4033 24.5764 61.3199 24.8733 61.2939 25.0816C61.3199 24.8576 61.3147 24.5139 61.2887 24.0451C61.2574 23.5243 61.2106 23.1076 61.1533 22.8004C61.1429 22.7691 61.1376 22.7431 61.1376 22.7222C61.1376 22.7274 61.1376 22.7326 61.1429 22.7483C61.1741 22.8629 61.221 22.9879 61.2835 23.1389C61.5751 23.842 62.0179 24.5347 62.6064 25.217C63.5804 26.3368 64.7158 27.1858 66.0179 27.7639C66.4606 27.967 67.1168 28.0972 67.9814 28.1597C67.7679 28.1441 67.1481 28.1649 66.1272 28.2274L24.5179 30.7691C24.0647 30.7951 23.6845 30.8368 23.3772 30.8837C23.2939 30.8993 23.2314 30.9097 23.1845 30.9254C23.1949 30.9201 23.2262 30.9097 23.2731 30.8993C23.6012 30.7899 23.9658 30.6233 24.3616 30.3889C25.122 29.9462 25.8199 29.3733 26.4658 28.6649C27.5283 27.4931 28.1897 26.2899 28.4501 25.066C28.4658 24.9931 28.4762 24.9306 28.4814 24.8837C28.4762 24.8993 28.4762 24.9358 28.471 24.9879C28.4606 25.2326 28.4658 25.5556 28.4918 25.941L32.0751 84.6597C32.1168 85.3524 32.1689 85.8785 32.2314 86.2326C32.1949 86.0191 32.0699 85.6702 31.8564 85.1962L32.0074 85.5295L32.1376 85.8733C31.6429 84.5816 30.8876 83.4566 29.872 82.4879C29.0543 81.7118 28.1689 81.1337 27.2158 80.7587C26.8095 80.6024 26.4918 80.5087 26.2522 80.4827C26.4606 80.5087 26.7835 80.5035 27.2314 80.4774L69.0543 77.9254C69.7574 77.8837 70.2991 77.8264 70.6845 77.7587V77.7639C70.4658 77.8264 70.2158 77.9149 69.9449 78.0295L70.1064 77.9618L70.2731 77.8941C68.9449 78.4149 67.7939 79.2066 66.8147 80.2587C66.0491 81.0816 65.4866 81.967 65.1324 82.9097C64.9866 83.2952 64.9033 83.592 64.8772 83.8056C64.9033 83.5816 64.8981 83.2327 64.872 82.7691C64.8408 82.2431 64.7939 81.8264 64.7366 81.5243C64.7262 81.4879 64.721 81.4618 64.7158 81.4462C64.721 81.4462 64.721 81.4566 64.7262 81.4722C64.7574 81.5816 64.8043 81.7118 64.8668 81.8577C65.1585 82.566 65.6012 83.2587 66.1897 83.941C67.1585 85.0608 68.2991 85.9097 69.6012 86.4879C70.0439 86.691 70.7001 86.8212 71.5647 86.8785C71.3512 86.8629 70.7314 86.8889 69.7106 86.9514L37.1845 88.9358L23.3199 89.7795Z" fill="white"/>
</svg>
