<svg width="85" height="109" viewBox="0 0 85 109" fill="none" xmlns="http://www.w3.org/2000/svg">
<path d="M4.6607 88.0106C1.20237 82.87 -0.297629 77.7658 0.155496 72.6981C0.478412 69.1148 1.90029 65.6981 4.4107 62.4429C5.92633 60.4794 7.92112 58.4898 10.3899 56.4794C12.6503 54.6721 15.0097 53.3387 17.4784 52.4794C20.3378 51.4846 23.2492 51.12 26.2232 51.3908C29.9107 51.7189 33.468 53.2189 36.9055 55.8856C38.9836 57.5002 41.1451 59.6512 43.3847 62.3335L43.8117 62.8491L44.192 63.4012C44.1295 63.3127 44.0722 63.2346 44.0201 63.1773C44.0149 63.1669 44.0097 63.1616 44.0045 63.1564C44.0149 63.1669 44.0305 63.1825 44.0461 63.1981C44.218 63.3648 44.4628 63.5627 44.7805 63.7971C44.8326 63.8335 44.8586 63.8491 44.869 63.8596C44.7961 63.8179 44.7024 63.771 44.5878 63.7189C44.067 63.5002 43.468 63.3544 42.7857 63.2971C43.067 63.3231 43.2961 63.3335 43.4836 63.3283C43.5201 63.3231 43.5409 63.3231 43.5565 63.3231C43.5305 63.3283 43.4888 63.3335 43.442 63.3387C42.7545 63.4637 42.0357 63.7762 41.2805 64.2866C40.2076 65.0158 39.3795 65.9429 38.7961 67.0731C38.4628 67.7189 38.2701 68.2814 38.2284 68.7554C38.0513 70.7241 38.4315 72.5783 39.369 74.3127C39.9628 75.4169 40.6711 76.271 41.4888 76.8752C41.1659 76.6356 40.5149 76.3804 39.5305 76.1044C36.2024 75.1773 32.7128 73.8804 29.0617 72.2085C25.369 70.521 21.9315 68.5991 18.7597 66.4533C14.0357 63.2554 10.3847 58.7762 7.80654 53.0106C5.31695 47.4481 4.37945 41.2137 5.00445 34.3075C5.45237 29.3283 6.82216 24.7137 9.11383 20.4533C11.3586 16.2866 14.4211 12.5783 18.3013 9.33873C22.3795 5.93769 27.0201 3.54186 32.2284 2.14602C37.0565 0.854356 42.2753 0.463732 47.8847 0.96894C53.5097 1.47415 58.6659 2.70332 63.3534 4.64602C68.4472 6.76582 72.2701 9.10436 74.8117 11.6721L64.9472 21.4481L74.3065 11.1877L77.2857 13.9064L77.7597 14.4377C82.4263 19.6721 84.5201 24.9898 84.0305 30.396C83.7961 33.021 82.9576 35.646 81.5201 38.2658C80.5878 39.9689 79.3638 41.7346 77.8482 43.5679C75.468 46.4637 72.9107 48.7137 70.1763 50.3179C66.3065 52.5835 62.2649 53.5262 58.0461 53.146C53.8534 52.771 49.6555 50.9377 45.4576 47.6616C44.5461 46.9273 43.5617 45.9637 42.4992 44.7658C42.4003 44.6564 42.3222 44.5679 42.2545 44.5054L42.244 44.4898C42.2649 44.5106 42.2909 44.5366 42.3222 44.5627L51.3795 34.0314L43.0357 45.1356C43.5201 45.5002 43.9992 45.7606 44.4732 45.9221C44.5826 45.9585 44.6711 45.9846 44.744 46.0002C44.7232 45.995 44.6815 45.9898 44.6138 45.9846C44.7701 46.0002 44.9992 45.9794 45.3065 45.9169C45.9211 45.8023 46.5201 45.5679 47.1034 45.2241C48.2597 44.5419 49.2128 43.5887 49.9628 42.37C50.6659 41.2346 51.0722 40.0575 51.1815 38.8492C51.317 37.3596 51.0617 35.9064 50.4107 34.4898C49.8742 33.3283 49.1815 32.4064 48.3274 31.7137C48.2909 31.6877 48.2649 31.6669 48.2492 31.6564C48.2753 31.6773 48.3222 31.6981 48.3795 31.7241C48.6555 31.8544 49.0201 31.9794 49.4784 32.0939C52.6242 32.8856 55.9836 33.9533 59.5617 35.3075C63.3899 36.7502 66.9263 38.4273 70.1659 40.3387C75.2232 43.3179 79.1138 47.771 81.8326 53.6981C84.369 59.2294 85.3222 65.5054 84.6867 72.5262C84.0722 79.3648 82.0722 85.4012 78.692 90.6304C75.2284 95.995 70.8482 100.057 65.5617 102.818C57.1659 107.292 48.3638 109.11 39.1503 108.281C34.6086 107.87 30.317 106.912 26.2701 105.401C22.0305 103.818 18.4784 101.896 15.619 99.6304L24.2336 88.7398L16.0149 99.9325C10.9159 96.1929 7.23883 92.3492 4.97841 88.4117L17.0253 81.5002L5.5305 89.2919L4.68675 88.0471L4.6607 88.0106ZM27.6763 72.4637L28.8117 74.1408L29.0722 74.5939L29.0826 74.5887C29.218 74.7606 29.4003 74.9585 29.6347 75.1929C30.3274 75.8908 31.2701 76.6721 32.4524 77.5419L32.6555 77.6929L32.8482 77.8439C33.4263 78.3023 34.4732 78.8127 35.9836 79.3804C37.6972 80.0158 39.5826 80.4325 41.6451 80.6148C45.3638 80.9533 49.0461 80.146 52.7024 78.1981C53.6607 77.6981 54.5461 76.8179 55.3638 75.5575C56.2649 74.1616 56.817 72.3179 57.0253 70.0262C57.218 67.9169 57.0722 66.3335 56.5878 65.2866C56.3638 64.7971 56.1555 64.4429 55.9628 64.2137C55.9472 64.1929 55.9315 64.1773 55.9211 64.1669C55.9263 64.1721 55.9263 64.1721 55.9367 64.1773C55.9732 64.2085 56.0149 64.2398 56.067 64.271C54.192 63.1669 52.093 62.1773 49.7545 61.2919C47.1659 60.3179 44.8117 59.5627 42.6972 59.0262C38.0982 57.87 34.1659 55.9741 30.9055 53.3491C28.3638 51.3023 26.4524 48.8804 25.1659 46.0731C23.7597 43.0106 23.2128 39.771 23.5201 36.3492C23.8013 33.2085 24.744 30.3439 26.3378 27.7658C27.9836 25.1096 30.1867 22.9585 32.9524 21.3231C37.1295 18.8491 41.8534 17.8491 47.1138 18.3231C52.0201 18.7658 56.2232 20.3023 59.7232 22.9273L60.0878 23.2033L60.4367 23.5054C61.369 24.3075 62.317 25.2502 63.2753 26.3335C63.4315 26.5054 63.5357 26.62 63.5982 26.6825C63.369 26.4533 63.0253 26.146 62.5513 25.7658C62.744 25.9169 62.9055 26.0314 63.0357 26.12C63.0617 26.1356 63.0826 26.146 63.093 26.1564C63.0722 26.1408 63.0357 26.1252 62.994 26.1044C62.3378 25.7762 61.5201 25.5731 60.5409 25.4846C58.8534 25.3335 57.3795 25.62 56.1295 26.3544C55.9576 26.4585 55.8482 26.5314 55.8013 26.5731C55.9628 26.4221 56.1763 26.1877 56.4472 25.8596C56.8378 25.3856 57.0774 25.0679 57.1607 24.9116C56.744 25.6825 56.4784 26.6721 56.369 27.896C56.1867 29.8648 56.4784 31.5887 57.2388 33.0679C57.3222 33.2346 57.3899 33.3544 57.4367 33.4169C57.3482 33.2971 57.218 33.1356 57.0357 32.9325L67.4003 23.6877L58.0357 33.9429L55.3222 31.4689L55.0774 31.2241C55.3013 31.4481 55.494 31.62 55.6607 31.7398C55.619 31.7085 55.5253 31.6512 55.3742 31.5627C54.7336 31.1981 53.843 30.7762 52.7024 30.3023C50.6295 29.4429 48.192 28.8856 45.3847 28.6304C41.2649 28.2606 38.1711 28.9377 36.0982 30.6669C34.9628 31.6148 34.1242 32.5939 33.5774 33.6096C33.0826 34.5314 32.7805 35.5992 32.6711 36.8075C32.4784 38.896 32.6451 40.5158 33.1607 41.6669C33.5826 42.6148 33.9732 43.2085 34.3274 43.4481C36.2232 44.7346 38.317 45.896 40.6086 46.9481C42.942 48.0106 45.0722 48.8127 46.994 49.3491C51.2649 50.5419 54.9263 52.271 57.994 54.5314C60.5045 56.3856 62.442 58.5835 63.8117 61.12C65.5253 64.2919 66.218 67.6669 65.8951 71.2502C65.6086 74.396 64.8013 77.2554 63.468 79.8335C61.8847 82.8908 59.6815 85.3752 56.8534 87.2919C52.3638 90.3283 46.843 91.5523 40.2857 90.9585C36.2024 90.5887 32.2649 89.0314 28.4732 86.2762C25.442 84.0783 23.0305 81.6721 21.2492 79.0627L32.718 71.2294L22.0565 80.1304C21.0982 78.9846 20.3742 78.2137 19.8742 77.8283C20.0097 77.9325 20.2388 78.0627 20.5617 78.2189C21.4992 78.6669 22.5565 78.9481 23.7284 79.0523C24.7336 79.146 25.6972 79.0314 26.6138 78.7085C27.1451 78.5262 27.5878 78.2919 27.9367 78.0106C27.119 78.6773 26.6086 79.146 26.4003 79.4169C26.5878 79.1669 26.7857 78.8335 26.9784 78.4169C27.4367 77.4429 27.7128 76.37 27.8222 75.1981C27.9211 74.1044 27.8222 73.1408 27.5357 72.3075C27.494 72.1929 27.4628 72.12 27.4472 72.0835C27.4992 72.1877 27.5878 72.3283 27.7024 72.5054L27.6763 72.4637Z" fill="white"/>
</svg>
