<svg width="128" height="169" viewBox="0 0 128 169" fill="none" xmlns="http://www.w3.org/2000/svg">
<path d="M50.8308 105.477L99.1537 108.368C105.737 108.758 111.05 110.123 115.091 112.456C117.956 114.107 120.357 116.222 122.3 118.8C124.242 121.378 125.612 124.274 126.409 127.482C127.305 131.097 127.607 135.336 127.315 140.201C127.023 145.071 126.221 149.243 124.898 152.722C123.826 155.555 122.346 158.045 120.466 160.201C118.221 162.774 115.539 164.727 112.425 166.06C107.763 168.17 102.081 169.024 95.3724 168.623L31.4193 164.805C24.7787 164.409 19.1745 162.982 14.612 160.524C11.4714 158.836 8.82035 156.685 6.66931 154.076C4.30993 151.211 2.67451 147.967 1.76306 144.342L18.2683 140.196L2.00785 145.206C0.804723 141.305 0.388056 136.253 0.757848 130.055L6.65889 31.2791C6.86722 27.8208 7.16931 25.0552 7.56514 22.9771C8.21618 19.5968 9.60681 16.1646 11.737 12.6854C17.0547 3.77393 26.9453 -0.246902 41.4089 0.617682C47.9662 1.00831 53.5078 2.38331 58.0443 4.73747C61.1485 6.35206 63.7891 8.40414 65.961 10.8989C68.3828 13.675 70.0964 16.8364 71.112 20.3885L71.2318 20.8104L71.3308 21.2427C72.1693 24.8833 72.4141 29.5916 72.0704 35.3677L66.8047 123.482L49.8151 122.467L50.8308 105.477ZM31.8151 138.441L38.0912 33.3364C38.1849 31.8052 38.211 30.5396 38.1745 29.5343C38.1641 29.1958 38.1433 28.9198 38.1224 28.7114C38.1172 28.675 38.1172 28.6593 38.112 28.6541C38.1224 28.7166 38.1381 28.7896 38.1589 28.8781L54.7474 25.0604L38.3828 29.7323C38.7578 31.0448 39.3933 32.2218 40.2995 33.2583C40.9558 34.0083 41.6381 34.5708 42.3568 34.9458C42.4714 35.0031 42.5547 35.0448 42.6016 35.0604C42.5026 35.0239 42.362 34.9875 42.1693 34.9458C41.4506 34.7791 40.5183 34.6646 39.3776 34.5968C38.2214 34.5239 37.2474 34.5187 36.4453 34.576C36.0599 34.6021 35.836 34.6281 35.7683 34.6437C36.3516 34.4823 36.987 34.1646 37.6849 33.701C38.9662 32.8312 39.9922 31.7583 40.7631 30.4666C40.6953 30.576 40.6433 30.6698 40.6016 30.7427L40.6172 30.7062C40.7683 30.3468 40.8933 29.9093 40.9974 29.3833C40.8776 30.0135 40.7578 31.3208 40.6381 33.3104L34.737 132.086C34.6485 133.493 34.6328 134.628 34.6849 135.482C34.6953 135.696 34.7058 135.842 34.7214 135.925C34.6901 135.732 34.6276 135.482 34.5339 135.18L34.6693 135.607L34.7787 136.045C34.4401 134.711 33.8308 133.508 32.9349 132.425C32.2526 131.597 31.5235 130.972 30.7422 130.55C30.5964 130.472 30.4818 130.42 30.3985 130.389C30.4714 130.415 30.5912 130.446 30.7526 130.487C31.4401 130.649 32.3412 130.758 33.4506 130.826L97.4037 134.649C98.2787 134.701 98.961 134.696 99.4454 134.628L99.4349 134.639C99.2214 134.696 99.0912 134.737 99.0443 134.764C97.3933 135.467 95.987 136.487 94.8256 137.821C94.0287 138.732 93.4454 139.675 93.0756 140.649C93.0391 140.737 93.0235 140.795 93.0131 140.821C93.0391 140.722 93.0704 140.592 93.0964 140.42C93.2058 139.826 93.2839 139.076 93.336 138.17C93.3933 137.269 93.4037 136.514 93.3672 135.909C93.3568 135.737 93.3464 135.602 93.3308 135.503C93.336 135.529 93.3516 135.592 93.3724 135.68C93.6901 136.961 94.2683 138.159 95.112 139.274C95.9506 140.394 96.9401 141.279 98.0808 141.935C98.7474 142.321 99.2422 142.55 99.5547 142.618C99.0079 142.498 98.2006 142.409 97.1224 142.342L48.7995 139.456L31.8151 138.441Z" fill="white"/>
</svg>
