<svg width="152" height="170" viewBox="0 0 152 170" fill="none" xmlns="http://www.w3.org/2000/svg">
<path d="M145.19 109.738C148.742 115.65 150.821 120.666 151.425 124.791C151.94 128.28 151.722 131.728 150.779 135.134C149.935 138.176 148.534 141.051 146.586 143.765C143.685 147.801 139.529 151.447 134.128 154.712C128.748 158.072 123.737 160.098 119.102 160.78C113.034 161.671 107.508 160.749 102.529 158.004C98.982 156.051 96.081 153.692 93.8206 150.931L93.5185 150.561L93.2372 150.181C91.4404 147.723 85.0289 137.363 73.9925 119.098L88.5602 110.296L92.1175 126.936L86.1747 128.207L63.4456 131.551L60.9664 114.718L77.805 112.238L80.732 132.134C81.2373 135.561 81.5081 138.332 81.5393 140.447C81.5966 143.89 80.9352 147.53 79.5602 151.374C76.18 161.181 67.3206 167.14 52.982 169.249C46.456 170.212 40.7372 169.988 35.8258 168.587C32.4195 167.619 29.3935 166.103 26.7529 164.046C23.8154 161.754 21.5185 158.926 19.857 155.572L35.107 148.025L20.055 155.962C18.1487 152.353 16.7529 147.53 15.8675 141.499L1.48725 43.7802C0.982039 40.3479 0.711204 37.577 0.674747 35.4677C0.622663 32.0249 1.27891 28.3843 2.65912 24.5406C6.03933 14.7333 14.8987 8.77495 29.2372 6.66036L67.2685 1.06661C81.4248 -1.01672 95.6122 1.92599 109.831 9.89474C117.378 14.1447 123.878 20.2437 129.336 28.1812C134.795 36.1239 138.279 45.2125 139.784 55.4468C141.081 64.2593 140.768 72.6239 138.857 80.5458C136.893 88.6552 133.305 96.1239 128.081 102.957L114.56 92.6187L129.159 83.8739C132.591 89.6031 137.867 98.1187 144.998 109.421L145.19 109.738ZM116.206 127.577C108.94 116.051 103.524 107.317 99.956 101.363L94.0237 91.452L101.039 82.2802C103.357 79.2489 104.935 76.0041 105.768 72.5458C106.649 68.9052 106.763 64.8583 106.107 60.4052C105.367 55.3791 103.758 51.0666 101.284 47.4624C98.805 43.8583 96.107 41.2333 93.1904 39.5874C85.7164 35.3999 78.7268 33.7854 72.2216 34.7437L34.1904 40.3374C33.0445 40.5093 32.0862 40.702 31.3206 40.9208C30.9456 41.0249 30.732 41.0927 30.6695 41.1239C31.206 40.8479 31.7633 40.4052 32.3466 39.8062C33.43 38.6968 34.2112 37.4364 34.7008 36.0145C34.6591 36.1343 34.6227 36.2385 34.6018 36.3166L34.607 36.2749C34.6852 35.8999 34.7164 35.4416 34.7112 34.9104C34.7216 35.5458 34.8727 36.8531 35.1591 38.8218L49.5393 136.546C49.7477 137.952 49.9664 139.093 50.2008 139.962C50.2685 140.212 50.3206 140.395 50.3675 140.52C50.331 140.426 50.2633 140.275 50.1591 140.082L50.2633 140.275L50.357 140.473C49.7216 139.186 48.831 138.093 47.6852 137.202C46.8414 136.546 45.9977 136.093 45.1591 135.853C45.0133 135.811 44.9039 135.791 44.831 135.78C44.9248 135.791 45.0602 135.801 45.2425 135.801C45.9716 135.817 46.8987 135.738 48.0237 135.577C49.1695 135.405 50.1279 135.212 50.8987 134.994C51.2685 134.89 51.4873 134.822 51.5498 134.791C51.0133 135.067 50.456 135.504 49.8675 136.103C48.7893 137.212 48.0029 138.478 47.5133 139.9C47.5602 139.78 47.5914 139.676 47.6175 139.593L47.607 139.634C47.5341 140.015 47.4977 140.473 47.5081 141.004C47.4977 140.363 47.3466 139.061 47.055 137.087L41.6487 100.358L80.6748 94.6135L83.1539 111.452L79.5966 94.8062L96.857 91.1187L103.123 101.494C113.649 118.91 119.518 128.452 120.727 130.108L106.982 140.145L120.143 129.358C119.795 128.926 119.44 128.577 119.091 128.301C119.013 128.238 118.951 128.192 118.893 128.155C118.904 128.16 118.925 128.171 118.961 128.192C117.961 127.645 116.925 127.291 115.857 127.134C115.201 127.046 114.633 127.03 114.149 127.103C113.857 127.145 113.617 127.197 113.435 127.254C113.477 127.238 113.565 127.202 113.711 127.14C114.393 126.843 115.336 126.317 116.534 125.572C117.461 125.015 118.196 124.504 118.737 124.041C118.883 123.916 118.998 123.817 119.071 123.733C119.05 123.759 119.008 123.811 118.951 123.895C118.539 124.462 118.216 125.176 117.982 126.03C117.643 127.249 117.565 128.483 117.753 129.744C117.826 130.27 117.925 130.707 118.045 131.061C118.029 131.025 117.982 130.905 117.893 130.712C117.498 129.843 116.867 128.692 116.008 127.265L116.206 127.577ZM53.9039 66.7125L76.4404 63.3947C76.0862 63.4468 75.805 63.5354 75.5914 63.65C75.7685 63.551 76.0445 63.3166 76.4091 62.9416C75.8623 63.4989 75.4768 64.1708 75.2633 64.9468C75.206 65.1656 75.1695 65.3479 75.1643 65.4833C75.1695 65.3791 75.1539 65.2072 75.1175 64.9625C75.081 64.7177 75.0445 64.5406 75.0081 64.4364C75.0498 64.551 75.1227 64.6968 75.2373 64.8739C75.6279 65.5041 76.1383 65.9989 76.7633 66.3479C76.3675 66.1239 76.081 65.9937 75.9039 65.9572C76.055 65.9885 76.2425 65.9885 76.456 65.9572L54.2737 69.2229L51.7945 52.3843L68.6331 49.9104L73.2164 81.0718L56.3779 83.551L53.9039 66.7125ZM42.0185 102.869L32.4768 38.0249L71.5029 32.2854C78.982 31.1812 86.3154 32.6552 93.4925 36.7072C97.9091 39.1968 101.451 42.5875 104.123 46.8687C106.513 50.7072 108.071 55.0822 108.795 60.0093C109.518 64.9468 109.284 69.5979 108.091 73.9572C106.742 78.8583 104.284 83.1291 100.711 86.7749C95.0133 92.5822 88.5758 96.0145 81.3935 97.0718L58.857 100.39L42.0185 102.869Z" fill="white"/>
</svg>
