<svg width="51" height="67" viewBox="0 0 51 67" fill="none" xmlns="http://www.w3.org/2000/svg">
<path d="M28.2523 33.3101C37.2367 41.9507 43.6117 48.4455 47.3773 52.7892C49.3044 54.9559 50.2731 56.7892 50.2731 58.2892C50.2731 59.7892 49.096 61.5549 46.7523 63.5809C44.4033 65.5965 42.4814 66.6017 40.9814 66.6017C39.4814 66.6017 37.6742 65.3726 35.5648 62.9142L16.1898 40.8101V57.9767C16.1898 59.383 16.1481 60.409 16.0648 61.0601C15.9814 61.7007 15.7002 62.4663 15.2314 63.3517C14.4085 64.9351 12.1169 65.7267 8.35645 65.7267C4.24186 65.7267 1.83561 64.6121 1.12728 62.3726C0.77832 61.4455 0.606445 59.9507 0.606445 57.8934V8.93506C0.606445 7.57568 0.648112 6.56006 0.731445 5.89339C0.825196 5.21631 1.11165 4.43506 1.58561 3.56006C2.40332 1.97673 4.68978 1.18506 8.43978 1.18506C12.5492 1.18506 14.9867 2.26839 15.7523 4.43506C16.0439 5.43506 16.1898 6.96631 16.1898 9.01839V25.8309C24.1742 16.8465 30.6325 9.47673 35.5648 3.72673C37.6169 1.32568 39.4085 0.122559 40.9398 0.122559C42.4658 0.122559 44.4033 1.13818 46.7523 3.16423C49.096 5.19548 50.2731 6.95589 50.2731 8.45589C50.2731 9.94548 49.3877 11.7163 47.6273 13.7684C44.221 17.7007 38.9398 23.1017 31.7731 29.9767L28.2523 33.3101Z" fill="#FF8461"/>
</svg>
