<svg width="17" height="65" viewBox="0 0 17 65" fill="none" xmlns="http://www.w3.org/2000/svg">
<path d="M0.570801 7.93506C0.570801 6.57568 0.612467 5.56006 0.695801 4.89339C0.789551 4.21631 1.07601 3.43506 1.54997 2.56006C2.36768 0.976725 4.65413 0.185059 8.40413 0.185059C12.5135 0.185059 14.951 1.26839 15.7166 3.43506C16.0083 4.43506 16.1541 5.96631 16.1541 8.01839V56.9767C16.1541 58.383 16.1125 59.409 16.0291 60.0601C15.9458 60.7007 15.6646 61.4663 15.1958 62.3517C14.3729 63.9351 12.0812 64.7267 8.3208 64.7267C4.20622 64.7267 1.79997 63.6121 1.09163 61.3726C0.742675 60.4455 0.570801 58.9507 0.570801 56.8934V7.93506Z" fill="#FF8461"/>
</svg>
