<svg width="63" height="65" viewBox="0 0 63 65" fill="none" xmlns="http://www.w3.org/2000/svg">
<path d="M7.2207 0.0810547H56.179C58.054 0.0810547 59.429 0.305013 60.304 0.747721C61.1895 1.19564 61.7832 1.88835 62.0749 2.83105C62.377 3.76335 62.5332 4.99251 62.5332 6.51855C62.5332 8.04981 62.377 9.26855 62.0749 10.1852C61.7832 11.0915 61.2884 11.7165 60.5957 12.0602C59.5228 12.5915 58.0228 12.8519 56.0957 12.8519H39.2832V57.1436C39.2832 58.5081 39.2311 59.5133 39.1374 60.1644C39.054 60.805 38.7884 61.5498 38.3457 62.3936C37.9134 63.2425 37.1374 63.8467 36.0124 64.2061C34.8978 64.555 33.4342 64.7269 31.6165 64.7269C29.7936 64.7269 28.3353 64.555 27.2415 64.2061C26.1582 63.8467 25.3926 63.2425 24.9499 62.3936C24.5176 61.5498 24.252 60.7842 24.1582 60.1019C24.0749 59.4248 24.0332 58.4092 24.0332 57.0602V12.8519H7.13737C5.24674 12.8519 3.86654 12.6383 2.99154 12.2061C2.11654 11.7633 1.52279 11.0758 1.2207 10.1436C0.929036 9.20085 0.783203 7.96647 0.783203 6.43522C0.783203 4.90918 0.929036 3.69564 1.2207 2.78939C1.52279 1.87272 2.02279 1.2373 2.7207 0.872721C3.77279 0.34668 5.27279 0.0810547 7.2207 0.0810547Z" fill="#FF8461"/>
</svg>
