<svg width="52" height="106" viewBox="0 0 52 106" fill="none" xmlns="http://www.w3.org/2000/svg">
<path d="M4.66185 22.1187C4.82331 19.8999 5.04205 18.0978 5.32851 16.7072C5.82851 14.2541 6.84935 11.8062 8.38581 9.36346C9.6931 7.23325 11.4587 5.44158 13.6775 3.98325C15.4171 2.84262 17.3598 1.98325 19.5004 1.41033C22.4118 0.634288 25.7712 0.37908 29.5733 0.655122C34.0004 0.97283 37.7921 1.97283 40.9431 3.66033C43.1983 4.86866 45.115 6.39991 46.6983 8.2645C48.4796 10.3582 49.7296 12.7332 50.4535 15.3895L50.5473 15.7385L50.6254 16.0926C51.1775 18.6135 51.3129 21.7749 51.0421 25.5666L46.8129 84.2437C46.6462 86.5614 46.4171 88.4103 46.1254 89.7905C45.6254 92.176 44.6098 94.5822 43.0889 96.9989C41.7816 99.1291 40.0212 100.926 37.7973 102.384C36.0577 103.525 34.1202 104.379 31.9743 104.952C29.0629 105.733 25.7087 105.983 21.9014 105.707C17.4014 105.384 13.5629 104.343 10.3858 102.582C8.09935 101.317 6.16705 99.7072 4.59935 97.7541C2.86497 95.5926 1.67226 93.1551 1.02643 90.4416L14.5368 87.2228L1.21393 91.1551C0.396221 88.3843 0.141013 84.9364 0.437888 80.7957L4.66185 22.1187ZM32.365 24.1135L28.141 82.7957C28.0941 83.4832 28.0733 84.0093 28.0889 84.3739C28.0837 84.1551 28.0004 83.7957 27.8546 83.2957L27.9587 83.6447L28.0421 84.0041C27.7243 82.6603 27.1254 81.4416 26.2504 80.3478C25.5368 79.4676 24.74 78.7801 23.8441 78.2853C23.4639 78.0718 23.1566 77.9416 22.9275 77.8843C23.1254 77.9312 23.4483 77.9728 23.8962 78.0041C24.4223 78.0405 24.8389 78.051 25.1514 78.0353C25.1827 78.0301 25.2087 78.0301 25.2296 78.0301C25.2243 78.0301 25.2139 78.0301 25.2035 78.0301C25.0889 78.051 24.9535 78.077 24.7973 78.1187C24.0629 78.3166 23.3129 78.6603 22.5629 79.1603C21.3233 79.9728 20.3285 80.9832 19.5837 82.202C19.5577 82.2437 19.5108 82.3374 19.4483 82.478C19.24 82.9468 19.0733 83.4728 18.9483 84.0666C18.9796 83.9155 19.0316 83.3114 19.1098 82.2489L23.3337 23.5718C23.391 22.7801 23.4171 22.1499 23.4014 21.6707C23.4014 21.5666 23.3962 21.4989 23.3962 21.4728C23.4066 21.6135 23.4379 21.7853 23.4848 21.9937L37.0525 19.0405L23.6566 22.6916C24.016 24.0145 24.641 25.202 25.5316 26.2489C26.2296 27.0666 26.9952 27.702 27.8389 28.1499C28.1775 28.3322 28.4431 28.4468 28.6254 28.4937C28.3962 28.4364 28.0473 28.3947 27.5785 28.3582C27.0577 28.3218 26.641 28.3114 26.3285 28.327C26.2921 28.3322 26.266 28.3322 26.2504 28.3374C26.2504 28.3374 26.2608 28.3322 26.2764 28.3322C26.391 28.3166 26.5264 28.2853 26.6775 28.2437C27.4171 28.0457 28.1618 27.702 28.9171 27.2072C30.1566 26.3947 31.1462 25.3791 31.891 24.1603C32.1514 23.7489 32.3702 23.1187 32.5421 22.2697C32.5004 22.4832 32.4431 23.0978 32.365 24.1135Z" fill="white"/>
</svg>
