<svg width="53" height="65" viewBox="0 0 53 65" fill="none" xmlns="http://www.w3.org/2000/svg">
<path d="M44.7285 49.6644C47.0046 49.6644 48.6556 49.9456 49.6869 50.4977C50.7129 51.055 51.416 51.8675 51.791 52.9352C52.1764 53.9925 52.3744 55.3415 52.3744 56.9769C52.3744 58.6175 52.2285 59.9352 51.9369 60.9352C51.6452 61.9352 51.291 62.7008 50.8744 63.2269C50.4681 63.7581 49.8587 64.1383 49.041 64.3727C48.0931 64.7217 46.5931 64.8936 44.541 64.8936H7.91602C6.55143 64.8936 5.25977 64.5498 4.04102 63.8519C1.45768 62.3831 0.166016 60.0602 0.166016 56.8936C0.166016 55.3675 0.509765 54.1331 1.20768 53.1852L28.5202 15.4144H8.27018C6.85352 15.4144 5.80143 15.3727 5.12435 15.2894C4.45768 15.1956 3.65039 14.9456 2.70768 14.5394C1.00977 13.7061 0.166016 11.5081 0.166016 7.93522C0.166016 4.17481 0.957682 1.88314 2.54102 1.06022C3.41602 0.591472 4.18685 0.310221 4.85352 0.226888C5.5306 0.133139 6.58268 0.0810547 7.99935 0.0810547H43.3952C44.7389 0.0810547 46.0306 0.435221 47.2702 1.14355C48.5046 1.85189 49.4577 2.79981 50.1244 3.97689C50.8014 5.14355 51.1452 6.51855 51.1452 8.10189C51.1452 9.68522 50.791 10.9508 50.0827 11.8936L22.791 49.6644H44.7285Z" fill="#FF8461"/>
</svg>
