<svg width="129" height="214" viewBox="0 0 129 214" fill="none" xmlns="http://www.w3.org/2000/svg">
<path d="M201.172 137.463C188.308 73.5467 165.526 5.52588 120.37 0.588379L133.901 120.167C136.683 136.719 133.276 151.068 117.672 160.943C110.62 139.083 98.0837 116.062 79.6982 109.219C76.0889 107.89 86.5472 136.427 82.1462 137.213C76.1305 138.25 68.7034 128.922 55.7139 124.604C26.8284 115.026 5.32844 112.286 8.52636 122.531C9.64615 126.057 53.6774 150.406 53.2243 152.229C52.7659 154.057 5.70344 130.745 0.765939 138.833C-0.645519 141.114 -0.353853 147.047 16.7868 155.505C19.6045 156.917 6.03677 147.333 4.08365 155.26C1.46906 165.75 18.6097 178.526 37.8649 192.172C66.8753 212.703 95.9691 215.854 112.115 211.292C156.891 209.219 208.104 171.974 201.172 137.463Z" fill="#F9A991"/>
</svg>
