<svg width="247" height="190" viewBox="0 0 247 190" fill="none" xmlns="http://www.w3.org/2000/svg">
<path d="M243.302 98.8385C238.5 107.896 227.974 114.016 217.625 112.896C215.386 124.266 211.953 135.958 205.433 145.614C202.5 149.917 199.24 154.026 195.703 157.88C186.573 167.76 180.506 174.922 168.36 180.271C151.792 187.588 125.094 192.094 106.584 188.932C79.4847 184.328 58.9587 166.437 43.2868 144.818C38.8545 138.698 34.4534 130.088 33.4066 122.672C29.1305 126.927 21.9118 128.047 16.5159 125.234C11.7607 122.797 8.87532 118.021 6.48469 113.344C3.1774 106.948 0.338857 100.005 0.8649 92.8905C1.38573 85.7239 6.26073 78.4582 13.4795 77.1405C15.4951 76.7707 17.5837 76.8905 19.6462 76.9947C24.8232 77.2916 30.5212 77.8124 33.9274 81.5468C35.0003 82.7135 36.3909 84.3593 37.9587 84.7812C34.1514 66.4947 41.568 40.3905 54.5316 26.5572C54.5836 26.6353 54.6045 26.7603 54.6826 26.8332C55.9014 25.1405 57.792 23.9478 59.7816 23.151C64.1826 21.3853 69.0889 21.3072 73.7659 20.3124C82.9951 18.2968 90.9066 12.651 99.3909 8.52074C125.615 -4.24488 158.657 0.359285 185.479 11.6822C197.073 30.5416 208.969 50.4687 210.037 72.3645C211.604 68.0103 214.766 63.7812 218.797 61.5155C223.323 58.953 229.146 58.5312 233.797 60.7447C237.578 62.5885 240.365 65.9478 242.381 69.578C247.381 78.5103 248.078 89.8072 243.302 98.8385Z" fill="#FEA17E"/>
</svg>
