<svg width="43" height="25" viewBox="0 0 43 25" fill="none" xmlns="http://www.w3.org/2000/svg">
<path d="M3.33867 23.7706C0.843879 22.3175 0.0157556 19.0831 1.51055 16.5519C3.08867 13.9425 5.16159 11.5362 7.94284 9.12998C11.2189 6.30707 14.5835 4.23415 18.0262 2.94769C24.7085 0.458109 31.5991 0.749776 37.7397 1.04144C40.646 1.16644 42.8855 3.61436 42.7605 6.5154C42.6772 9.42165 40.146 11.6612 37.2866 11.5362C31.9324 11.3279 26.4116 11.0362 21.7605 12.8227C19.4793 13.6508 17.1564 15.1456 14.8751 17.1352C12.9637 18.7914 11.5939 20.4112 10.5991 22.031C9.6043 23.6873 7.8595 24.5987 6.07305 24.5987C5.16159 24.5571 4.25013 24.3123 3.33867 23.7706Z" fill="black"/>
</svg>
