<svg width="34" height="20" viewBox="0 0 34 20" fill="none" xmlns="http://www.w3.org/2000/svg">
<path d="M29.7762 19.8075C28.3335 19.8075 26.9376 19.0627 26.1408 17.745C25.3699 16.4533 24.2501 15.1825 22.7085 13.8648C20.8439 12.245 18.9741 11.1044 17.1356 10.4064C13.3543 8.96373 8.82307 9.1356 4.44806 9.28665C2.1564 9.35956 0.166815 7.54185 0.0678564 5.20331C-0.0102676 2.86477 1.80744 0.927269 4.14598 0.828312C9.12515 0.651228 14.7449 0.453312 20.1199 2.49498C22.9064 3.53665 25.6199 5.20331 28.2293 7.46894C30.4689 9.3856 32.1408 11.3491 33.3804 13.4169C34.5783 15.4325 33.9272 18.021 31.9168 19.2137C31.2658 19.6096 30.521 19.8075 29.7762 19.8075Z" fill="#160512"/>
</svg>
